<mxfile host="app.diagrams.net" agent="Mozilla/5.0 (X11; Linux x86_64; rv:129.0) Gecko/20100101 Firefox/129.0" version="24.7.10" pages="10">
  <diagram id="C5RBs43oDa-KdzZeNtuy" name="Complete">
    <mxGraphModel dx="2068" dy="1146" grid="1" gridSize="10" guides="1" tooltips="1" connect="1" arrows="1" fold="1" page="1" pageScale="1" pageWidth="1169" pageHeight="827" background="#F1FAEE" math="0" shadow="0">
      <root>
        <mxCell id="WIyWlLk6GJQsqaUBKTNV-0" />
        <mxCell id="WIyWlLk6GJQsqaUBKTNV-1" parent="WIyWlLk6GJQsqaUBKTNV-0" />
        <mxCell id="dBTdRUruwvSsEvon7qcE-63" style="edgeStyle=orthogonalEdgeStyle;curved=1;sketch=1;orthogonalLoop=1;jettySize=auto;html=1;exitX=1;exitY=0.5;exitDx=0;exitDy=0;exitPerimeter=0;entryX=0;entryY=0.5;entryDx=0;entryDy=0;entryPerimeter=0;fontColor=#1D3557;strokeColor=#457B9D;fillColor=#A8DADC;labelBackgroundColor=#F1FAEE;" parent="WIyWlLk6GJQsqaUBKTNV-1" source="dBTdRUruwvSsEvon7qcE-3" target="dBTdRUruwvSsEvon7qcE-56" edge="1">
          <mxGeometry relative="1" as="geometry" />
        </mxCell>
        <mxCell id="dBTdRUruwvSsEvon7qcE-3" value="Start BoxSup" style="strokeWidth=2;html=1;shape=mxgraph.flowchart.start_1;whiteSpace=wrap;sketch=1;fontColor=#1D3557;fillColor=#A8DADC;strokeColor=#457B9D;" parent="WIyWlLk6GJQsqaUBKTNV-1" vertex="1">
          <mxGeometry x="85" y="334.93" width="80" height="60" as="geometry" />
        </mxCell>
        <mxCell id="dBTdRUruwvSsEvon7qcE-67" style="edgeStyle=orthogonalEdgeStyle;curved=1;sketch=1;orthogonalLoop=1;jettySize=auto;html=1;exitX=0.5;exitY=1;exitDx=0;exitDy=0;fontColor=#1D3557;strokeColor=#457B9D;fillColor=#A8DADC;labelBackgroundColor=#F1FAEE;entryX=0;entryY=0.5;entryDx=0;entryDy=0;" parent="WIyWlLk6GJQsqaUBKTNV-1" source="dBTdRUruwvSsEvon7qcE-13" target="pG2BlkOgeWlfoMK5nSYD-0" edge="1">
          <mxGeometry relative="1" as="geometry">
            <Array as="points">
              <mxPoint x="340" y="449" />
              <mxPoint x="340" y="360" />
              <mxPoint x="490" y="360" />
              <mxPoint x="490" y="414" />
            </Array>
            <mxPoint x="550" y="510" as="targetPoint" />
          </mxGeometry>
        </mxCell>
        <mxCell id="dBTdRUruwvSsEvon7qcE-68" value="BoundingBoxes" style="edgeLabel;html=1;align=center;verticalAlign=middle;resizable=0;points=[];fontColor=#1D3557;rotation=-90;labelBackgroundColor=#F1FAEE;" parent="dBTdRUruwvSsEvon7qcE-67" vertex="1" connectable="0">
          <mxGeometry x="-0.4248" y="2" relative="1" as="geometry">
            <mxPoint x="-8" y="24" as="offset" />
          </mxGeometry>
        </mxCell>
        <mxCell id="dBTdRUruwvSsEvon7qcE-74" style="edgeStyle=orthogonalEdgeStyle;curved=1;sketch=1;orthogonalLoop=1;jettySize=auto;html=1;exitX=0.25;exitY=1;exitDx=0;exitDy=0;entryX=0;entryY=0.5;entryDx=0;entryDy=0;fontColor=#1D3557;strokeColor=#457B9D;fillColor=#A8DADC;labelBackgroundColor=#F1FAEE;" parent="WIyWlLk6GJQsqaUBKTNV-1" source="dBTdRUruwvSsEvon7qcE-13" target="dBTdRUruwvSsEvon7qcE-15" edge="1">
          <mxGeometry relative="1" as="geometry">
            <Array as="points">
              <mxPoint x="340" y="475" />
              <mxPoint x="340" y="414" />
            </Array>
          </mxGeometry>
        </mxCell>
        <mxCell id="pG2BlkOgeWlfoMK5nSYD-4" style="edgeStyle=orthogonalEdgeStyle;orthogonalLoop=1;jettySize=auto;html=1;exitX=0.25;exitY=1;exitDx=0;exitDy=0;entryX=0;entryY=0.75;entryDx=0;entryDy=0;curved=1;shadow=0;sketch=1;strokeColor=#457B9D;" parent="WIyWlLk6GJQsqaUBKTNV-1" source="dBTdRUruwvSsEvon7qcE-13" target="dBTdRUruwvSsEvon7qcE-24" edge="1">
          <mxGeometry relative="1" as="geometry">
            <Array as="points">
              <mxPoint x="620" y="475" />
              <mxPoint x="620" y="427" />
            </Array>
          </mxGeometry>
        </mxCell>
        <mxCell id="dBTdRUruwvSsEvon7qcE-13" value="&lt;div&gt;Images&lt;br&gt;with&lt;br&gt;GT-BBoxes&lt;/div&gt;" style="shape=parallelogram;html=1;strokeWidth=2;perimeter=parallelogramPerimeter;whiteSpace=wrap;rounded=1;arcSize=12;size=0.23;sketch=1;fontColor=#1D3557;fillColor=#A8DADC;rotation=-90;strokeColor=#457B9D;" parent="WIyWlLk6GJQsqaUBKTNV-1" vertex="1">
          <mxGeometry x="235" y="418.47" width="107.56" height="60.07" as="geometry" />
        </mxCell>
        <mxCell id="dBTdRUruwvSsEvon7qcE-45" style="edgeStyle=orthogonalEdgeStyle;curved=1;sketch=1;orthogonalLoop=1;jettySize=auto;html=1;exitX=1;exitY=0.5;exitDx=0;exitDy=0;fontColor=#1D3557;strokeColor=#457B9D;fillColor=#A8DADC;labelBackgroundColor=#F1FAEE;entryX=0;entryY=0.5;entryDx=0;entryDy=0;" parent="WIyWlLk6GJQsqaUBKTNV-1" source="dBTdRUruwvSsEvon7qcE-15" target="pG2BlkOgeWlfoMK5nSYD-0" edge="1">
          <mxGeometry relative="1" as="geometry">
            <mxPoint x="520" y="470" as="targetPoint" />
          </mxGeometry>
        </mxCell>
        <mxCell id="dBTdRUruwvSsEvon7qcE-46" value="MaskCandidates" style="edgeLabel;html=1;align=center;verticalAlign=middle;resizable=0;points=[];fontColor=#1D3557;rotation=-90;labelBackgroundColor=#F1FAEE;" parent="dBTdRUruwvSsEvon7qcE-45" vertex="1" connectable="0">
          <mxGeometry x="-0.3118" y="2" relative="1" as="geometry">
            <mxPoint x="2" y="-2" as="offset" />
          </mxGeometry>
        </mxCell>
        <mxCell id="dBTdRUruwvSsEvon7qcE-15" value="PreProcess MCG" style="rounded=1;whiteSpace=wrap;html=1;absoluteArcSize=1;arcSize=14;strokeWidth=2;sketch=1;fontColor=#1D3557;fillColor=#A8DADC;strokeColor=#457B9D;" parent="WIyWlLk6GJQsqaUBKTNV-1" vertex="1">
          <mxGeometry x="360" y="389.00000000000006" width="100" height="50" as="geometry" />
        </mxCell>
        <mxCell id="dBTdRUruwvSsEvon7qcE-29" style="edgeStyle=orthogonalEdgeStyle;curved=1;sketch=1;orthogonalLoop=1;jettySize=auto;html=1;exitX=1;exitY=0.5;exitDx=0;exitDy=0;entryX=0;entryY=0.25;entryDx=0;entryDy=0;fontColor=#1D3557;strokeColor=#457B9D;fillColor=#A8DADC;labelBackgroundColor=#F1FAEE;" parent="WIyWlLk6GJQsqaUBKTNV-1" source="dBTdRUruwvSsEvon7qcE-24" target="dBTdRUruwvSsEvon7qcE-27" edge="1">
          <mxGeometry relative="1" as="geometry" />
        </mxCell>
        <mxCell id="dBTdRUruwvSsEvon7qcE-31" value="LabeledMasks" style="edgeLabel;html=1;align=center;verticalAlign=middle;resizable=0;points=[];fontColor=#1D3557;rotation=-90;labelBackgroundColor=#F1FAEE;" parent="dBTdRUruwvSsEvon7qcE-29" vertex="1" connectable="0">
          <mxGeometry x="-0.154" y="3" relative="1" as="geometry">
            <mxPoint x="3" y="-7" as="offset" />
          </mxGeometry>
        </mxCell>
        <mxCell id="dBTdRUruwvSsEvon7qcE-24" value="Update Masks" style="rounded=1;whiteSpace=wrap;html=1;absoluteArcSize=1;arcSize=14;strokeWidth=2;sketch=1;fontColor=#1D3557;fillColor=#A8DADC;strokeColor=#457B9D;" parent="WIyWlLk6GJQsqaUBKTNV-1" vertex="1">
          <mxGeometry x="650" y="338.62000000000006" width="90" height="117.43" as="geometry" />
        </mxCell>
        <mxCell id="dBTdRUruwvSsEvon7qcE-38" style="edgeStyle=orthogonalEdgeStyle;curved=1;sketch=1;orthogonalLoop=1;jettySize=auto;html=1;fontColor=#1D3557;strokeColor=#457B9D;fillColor=#A8DADC;entryX=0;entryY=0.5;entryDx=0;entryDy=0;entryPerimeter=0;labelBackgroundColor=#F1FAEE;exitX=1;exitY=0.5;exitDx=0;exitDy=0;" parent="WIyWlLk6GJQsqaUBKTNV-1" source="dBTdRUruwvSsEvon7qcE-27" target="dBTdRUruwvSsEvon7qcE-32" edge="1">
          <mxGeometry relative="1" as="geometry">
            <Array as="points">
              <mxPoint x="870" y="398" />
              <mxPoint x="870" y="400" />
            </Array>
            <mxPoint x="880" y="470" as="sourcePoint" />
          </mxGeometry>
        </mxCell>
        <mxCell id="dBTdRUruwvSsEvon7qcE-27" value="Update Net" style="rounded=1;whiteSpace=wrap;html=1;absoluteArcSize=1;arcSize=14;strokeWidth=2;sketch=1;fontColor=#1D3557;fillColor=#A8DADC;strokeColor=#457B9D;" parent="WIyWlLk6GJQsqaUBKTNV-1" vertex="1">
          <mxGeometry x="780" y="339.83" width="80" height="118.64" as="geometry" />
        </mxCell>
        <mxCell id="dBTdRUruwvSsEvon7qcE-36" style="edgeStyle=orthogonalEdgeStyle;curved=1;sketch=1;orthogonalLoop=1;jettySize=auto;html=1;exitX=1;exitY=0.5;exitDx=0;exitDy=0;exitPerimeter=0;fontColor=#1D3557;strokeColor=#457B9D;fillColor=#A8DADC;entryX=0;entryY=0.5;entryDx=0;entryDy=0;entryPerimeter=0;labelBackgroundColor=#F1FAEE;" parent="WIyWlLk6GJQsqaUBKTNV-1" source="dBTdRUruwvSsEvon7qcE-32" target="dBTdRUruwvSsEvon7qcE-39" edge="1">
          <mxGeometry relative="1" as="geometry">
            <mxPoint x="945" y="420" as="targetPoint" />
          </mxGeometry>
        </mxCell>
        <mxCell id="dBTdRUruwvSsEvon7qcE-37" value="yes" style="edgeLabel;html=1;align=center;verticalAlign=middle;resizable=0;points=[];fontColor=#1D3557;labelBackgroundColor=#F1FAEE;" parent="dBTdRUruwvSsEvon7qcE-36" vertex="1" connectable="0">
          <mxGeometry x="-0.4908" y="-1" relative="1" as="geometry">
            <mxPoint y="-1" as="offset" />
          </mxGeometry>
        </mxCell>
        <mxCell id="dBTdRUruwvSsEvon7qcE-69" style="edgeStyle=orthogonalEdgeStyle;curved=1;sketch=1;orthogonalLoop=1;jettySize=auto;html=1;exitX=0.5;exitY=0;exitDx=0;exitDy=0;exitPerimeter=0;fontColor=#1D3557;strokeColor=#457B9D;fillColor=#A8DADC;labelBackgroundColor=#F1FAEE;entryX=0.5;entryY=0;entryDx=0;entryDy=0;" parent="WIyWlLk6GJQsqaUBKTNV-1" source="dBTdRUruwvSsEvon7qcE-32" target="dBTdRUruwvSsEvon7qcE-24" edge="1">
          <mxGeometry relative="1" as="geometry">
            <Array as="points">
              <mxPoint x="930" y="300" />
              <mxPoint x="695" y="300" />
            </Array>
          </mxGeometry>
        </mxCell>
        <mxCell id="dBTdRUruwvSsEvon7qcE-70" value="no" style="edgeLabel;html=1;align=center;verticalAlign=middle;resizable=0;points=[];fontColor=#1D3557;labelBackgroundColor=#F1FAEE;" parent="dBTdRUruwvSsEvon7qcE-69" vertex="1" connectable="0">
          <mxGeometry x="-0.9446" y="1" relative="1" as="geometry">
            <mxPoint as="offset" />
          </mxGeometry>
        </mxCell>
        <mxCell id="dBTdRUruwvSsEvon7qcE-32" value="Satisfied?" style="strokeWidth=2;html=1;shape=mxgraph.flowchart.decision;whiteSpace=wrap;sketch=1;fontColor=#1D3557;fillColor=#A8DADC;strokeColor=#457B9D;" parent="WIyWlLk6GJQsqaUBKTNV-1" vertex="1">
          <mxGeometry x="880" y="369.78999999999996" width="100" height="59.93" as="geometry" />
        </mxCell>
        <mxCell id="dBTdRUruwvSsEvon7qcE-39" value="finish" style="strokeWidth=2;html=1;shape=mxgraph.flowchart.terminator;whiteSpace=wrap;sketch=1;fontColor=#1D3557;fillColor=#A8DADC;strokeColor=#457B9D;" parent="WIyWlLk6GJQsqaUBKTNV-1" vertex="1">
          <mxGeometry x="1020" y="369.78999999999996" width="100" height="60" as="geometry" />
        </mxCell>
        <mxCell id="dBTdRUruwvSsEvon7qcE-59" style="edgeStyle=orthogonalEdgeStyle;curved=1;sketch=1;orthogonalLoop=1;jettySize=auto;html=1;exitX=0.5;exitY=1;exitDx=0;exitDy=0;exitPerimeter=0;entryX=0.588;entryY=-0.029;entryDx=0;entryDy=0;entryPerimeter=0;fontColor=#1D3557;strokeColor=#457B9D;fillColor=#A8DADC;labelBackgroundColor=#F1FAEE;" parent="WIyWlLk6GJQsqaUBKTNV-1" source="dBTdRUruwvSsEvon7qcE-56" target="dBTdRUruwvSsEvon7qcE-13" edge="1">
          <mxGeometry relative="1" as="geometry" />
        </mxCell>
        <mxCell id="dBTdRUruwvSsEvon7qcE-61" value="False" style="edgeLabel;html=1;align=center;verticalAlign=middle;resizable=0;points=[];fontColor=#1D3557;labelBackgroundColor=#F1FAEE;" parent="dBTdRUruwvSsEvon7qcE-59" vertex="1" connectable="0">
          <mxGeometry x="-0.6503" relative="1" as="geometry">
            <mxPoint as="offset" />
          </mxGeometry>
        </mxCell>
        <mxCell id="dBTdRUruwvSsEvon7qcE-60" style="edgeStyle=orthogonalEdgeStyle;curved=1;sketch=1;orthogonalLoop=1;jettySize=auto;html=1;exitX=0.5;exitY=0;exitDx=0;exitDy=0;exitPerimeter=0;entryX=0.608;entryY=0.017;entryDx=0;entryDy=0;entryPerimeter=0;fontColor=#1D3557;strokeColor=#457B9D;fillColor=#A8DADC;labelBackgroundColor=#F1FAEE;" parent="WIyWlLk6GJQsqaUBKTNV-1" source="dBTdRUruwvSsEvon7qcE-56" target="dBTdRUruwvSsEvon7qcE-58" edge="1">
          <mxGeometry relative="1" as="geometry" />
        </mxCell>
        <mxCell id="dBTdRUruwvSsEvon7qcE-62" value="True" style="edgeLabel;html=1;align=center;verticalAlign=middle;resizable=0;points=[];fontColor=#1D3557;labelBackgroundColor=#F1FAEE;" parent="dBTdRUruwvSsEvon7qcE-60" vertex="1" connectable="0">
          <mxGeometry x="-0.6021" y="-2" relative="1" as="geometry">
            <mxPoint as="offset" />
          </mxGeometry>
        </mxCell>
        <mxCell id="dBTdRUruwvSsEvon7qcE-56" value="GT-Flag?" style="strokeWidth=2;html=1;shape=mxgraph.flowchart.decision;whiteSpace=wrap;sketch=1;fontColor=#1D3557;fillColor=#A8DADC;strokeColor=#457B9D;" parent="WIyWlLk6GJQsqaUBKTNV-1" vertex="1">
          <mxGeometry x="185" y="332.4" width="70" height="65.07" as="geometry" />
        </mxCell>
        <mxCell id="dBTdRUruwvSsEvon7qcE-78" style="edgeStyle=orthogonalEdgeStyle;curved=1;sketch=1;orthogonalLoop=1;jettySize=auto;html=1;exitX=0.25;exitY=1;exitDx=0;exitDy=0;entryX=0;entryY=0.75;entryDx=0;entryDy=0;fontColor=#1D3557;strokeColor=#457B9D;fillColor=#A8DADC;labelBackgroundColor=#F1FAEE;" parent="WIyWlLk6GJQsqaUBKTNV-1" source="dBTdRUruwvSsEvon7qcE-58" target="dBTdRUruwvSsEvon7qcE-77" edge="1">
          <mxGeometry relative="1" as="geometry">
            <Array as="points">
              <mxPoint x="368" y="329" />
              <mxPoint x="368" y="327" />
            </Array>
          </mxGeometry>
        </mxCell>
        <mxCell id="dBTdRUruwvSsEvon7qcE-80" value="Images" style="edgeLabel;html=1;align=center;verticalAlign=middle;resizable=0;points=[];fontColor=#1D3557;labelBackgroundColor=#F1FAEE;" parent="dBTdRUruwvSsEvon7qcE-78" vertex="1" connectable="0">
          <mxGeometry x="-0.2949" relative="1" as="geometry">
            <mxPoint as="offset" />
          </mxGeometry>
        </mxCell>
        <mxCell id="dBTdRUruwvSsEvon7qcE-79" style="edgeStyle=orthogonalEdgeStyle;curved=1;sketch=1;orthogonalLoop=1;jettySize=auto;html=1;exitX=0.5;exitY=1;exitDx=0;exitDy=0;entryX=0;entryY=0.25;entryDx=0;entryDy=0;fontColor=#1D3557;strokeColor=#457B9D;fillColor=#A8DADC;labelBackgroundColor=#F1FAEE;" parent="WIyWlLk6GJQsqaUBKTNV-1" source="dBTdRUruwvSsEvon7qcE-58" target="dBTdRUruwvSsEvon7qcE-77" edge="1">
          <mxGeometry relative="1" as="geometry" />
        </mxCell>
        <mxCell id="dBTdRUruwvSsEvon7qcE-81" value="Masks" style="edgeLabel;html=1;align=center;verticalAlign=middle;resizable=0;points=[];fontColor=#1D3557;labelBackgroundColor=#F1FAEE;" parent="dBTdRUruwvSsEvon7qcE-79" vertex="1" connectable="0">
          <mxGeometry x="-0.2898" relative="1" as="geometry">
            <mxPoint as="offset" />
          </mxGeometry>
        </mxCell>
        <mxCell id="dBTdRUruwvSsEvon7qcE-58" value="Images&lt;br&gt;with&lt;br&gt;GT-Masks" style="shape=parallelogram;html=1;strokeWidth=2;perimeter=parallelogramPerimeter;whiteSpace=wrap;rounded=1;arcSize=12;size=0.23;sketch=1;fontColor=#1D3557;fillColor=#A8DADC;rotation=-90;strokeColor=#457B9D;" parent="WIyWlLk6GJQsqaUBKTNV-1" vertex="1">
          <mxGeometry x="237.52" y="272.33" width="105.04" height="60.07" as="geometry" />
        </mxCell>
        <mxCell id="dBTdRUruwvSsEvon7qcE-82" style="edgeStyle=orthogonalEdgeStyle;curved=1;sketch=1;orthogonalLoop=1;jettySize=auto;html=1;exitX=1;exitY=0.5;exitDx=0;exitDy=0;fontColor=#1D3557;strokeColor=#457B9D;fillColor=#A8DADC;entryX=0;entryY=0.5;entryDx=0;entryDy=0;entryPerimeter=0;labelBackgroundColor=#F1FAEE;" parent="WIyWlLk6GJQsqaUBKTNV-1" source="dBTdRUruwvSsEvon7qcE-77" target="dBTdRUruwvSsEvon7qcE-39" edge="1">
          <mxGeometry relative="1" as="geometry">
            <mxPoint x="932.5" y="400.36" as="targetPoint" />
            <Array as="points">
              <mxPoint x="565" y="315" />
              <mxPoint x="565" y="270" />
              <mxPoint x="1000" y="270" />
              <mxPoint x="1000" y="400" />
            </Array>
          </mxGeometry>
        </mxCell>
        <mxCell id="dBTdRUruwvSsEvon7qcE-77" value="Update Net" style="rounded=1;whiteSpace=wrap;html=1;absoluteArcSize=1;arcSize=14;strokeWidth=2;sketch=1;fontColor=#1D3557;fillColor=#A8DADC;strokeColor=#457B9D;" parent="WIyWlLk6GJQsqaUBKTNV-1" vertex="1">
          <mxGeometry x="415" y="290.51" width="80" height="49.32" as="geometry" />
        </mxCell>
        <mxCell id="ZLOfH2Re2wlI3WU4CahJ-0" value="BoxSup Algorithm" style="text;html=1;align=center;verticalAlign=middle;whiteSpace=wrap;rounded=0;sketch=1;fontFamily=Lucida Console;fontSize=36;fontColor=#1D3557;" parent="WIyWlLk6GJQsqaUBKTNV-1" vertex="1">
          <mxGeometry x="273" y="40" width="623" height="80" as="geometry" />
        </mxCell>
        <mxCell id="pG2BlkOgeWlfoMK5nSYD-5" style="edgeStyle=orthogonalEdgeStyle;curved=1;sketch=1;orthogonalLoop=1;jettySize=auto;html=1;exitX=1;exitY=0.5;exitDx=0;exitDy=0;entryX=0;entryY=0.25;entryDx=0;entryDy=0;shadow=0;strokeColor=#457B9D;" parent="WIyWlLk6GJQsqaUBKTNV-1" source="pG2BlkOgeWlfoMK5nSYD-0" target="dBTdRUruwvSsEvon7qcE-24" edge="1">
          <mxGeometry relative="1" as="geometry" />
        </mxCell>
        <mxCell id="pG2BlkOgeWlfoMK5nSYD-0" value="Calculate IoU" style="rounded=1;whiteSpace=wrap;html=1;absoluteArcSize=1;arcSize=14;strokeWidth=2;sketch=1;fontColor=#1D3557;fillColor=#A8DADC;strokeColor=#457B9D;" parent="WIyWlLk6GJQsqaUBKTNV-1" vertex="1">
          <mxGeometry x="510" y="389" width="70" height="50" as="geometry" />
        </mxCell>
        <mxCell id="dBTdRUruwvSsEvon7qcE-65" style="edgeStyle=orthogonalEdgeStyle;curved=1;sketch=1;orthogonalLoop=1;jettySize=auto;html=1;exitX=0.25;exitY=1;exitDx=0;exitDy=0;entryX=0;entryY=0.75;entryDx=0;entryDy=0;fontColor=#1D3557;strokeColor=#457B9D;fillColor=#A8DADC;labelBackgroundColor=#F1FAEE;" parent="WIyWlLk6GJQsqaUBKTNV-1" edge="1">
          <mxGeometry relative="1" as="geometry">
            <Array as="points">
              <mxPoint x="319" y="482.8" />
              <mxPoint x="750" y="482.8" />
              <mxPoint x="750" y="432.8" />
              <mxPoint x="770" y="432.8" />
              <mxPoint x="770" y="430.8" />
            </Array>
            <mxPoint x="318.81500000000005" y="478.195" as="sourcePoint" />
            <mxPoint x="780" y="430.40000000000003" as="targetPoint" />
          </mxGeometry>
        </mxCell>
        <mxCell id="pG2BlkOgeWlfoMK5nSYD-3" value="Images" style="edgeLabel;html=1;align=center;verticalAlign=middle;resizable=0;points=[];rotation=-90;fontColor=#1D3557;" parent="dBTdRUruwvSsEvon7qcE-65" vertex="1" connectable="0">
          <mxGeometry x="-0.8637" y="16" relative="1" as="geometry">
            <mxPoint x="-20" y="12" as="offset" />
          </mxGeometry>
        </mxCell>
      </root>
    </mxGraphModel>
  </diagram>
  <diagram id="P9U7UGUvJVKsVBTC0LMZ" name="Update Masks">
    <mxGraphModel dx="1240" dy="620" grid="1" gridSize="10" guides="1" tooltips="1" connect="1" arrows="1" fold="1" page="1" pageScale="1" pageWidth="850" pageHeight="1100" background="#F1FAEE" math="0" shadow="0">
      <root>
        <mxCell id="0" />
        <mxCell id="1" parent="0" />
        <mxCell id="kgGydF3GcbX9kIzkIF3p-45" style="edgeStyle=orthogonalEdgeStyle;curved=1;sketch=1;orthogonalLoop=1;jettySize=auto;html=1;exitX=1;exitY=0.5;exitDx=0;exitDy=0;exitPerimeter=0;entryX=0;entryY=0.5;entryDx=0;entryDy=0;shadow=0;fontSize=12;fontColor=#1D3557;strokeColor=#457B9D;fillColor=#A8DADC;labelBackgroundColor=#F1FAEE;" parent="1" source="4Fq9ceX_VG-YS3ik4-2U-4" target="b7qcoKIOhfxjR_RTO6o0-22" edge="1">
          <mxGeometry relative="1" as="geometry" />
        </mxCell>
        <mxCell id="4Fq9ceX_VG-YS3ik4-2U-4" value="start Update Mask" style="strokeWidth=2;html=1;shape=mxgraph.flowchart.start_1;whiteSpace=wrap;sketch=1;fontColor=#1D3557;fillColor=#A8DADC;strokeColor=#457B9D;" parent="1" vertex="1">
          <mxGeometry x="20" y="153.08" width="90" height="70" as="geometry" />
        </mxCell>
        <mxCell id="ESLMYOS8GgTxVuvXD0V8-8" style="edgeStyle=orthogonalEdgeStyle;curved=1;sketch=1;orthogonalLoop=1;jettySize=auto;html=1;exitX=1;exitY=0.5;exitDx=0;exitDy=0;entryX=0.75;entryY=1;entryDx=0;entryDy=0;shadow=0;fontSize=12;fontColor=#1D3557;strokeColor=#457B9D;fillColor=#A8DADC;labelBackgroundColor=#F1FAEE;" parent="1" source="4Fq9ceX_VG-YS3ik4-2U-5" target="ESLMYOS8GgTxVuvXD0V8-7" edge="1">
          <mxGeometry relative="1" as="geometry" />
        </mxCell>
        <mxCell id="4Fq9ceX_VG-YS3ik4-2U-5" value="Greedy" style="rounded=1;whiteSpace=wrap;html=1;absoluteArcSize=1;arcSize=14;strokeWidth=2;sketch=1;fontColor=#1D3557;fillColor=#A8DADC;strokeColor=#457B9D;" parent="1" vertex="1">
          <mxGeometry x="450" y="221" width="52.5" height="50" as="geometry" />
        </mxCell>
        <mxCell id="ESLMYOS8GgTxVuvXD0V8-9" style="edgeStyle=orthogonalEdgeStyle;curved=1;sketch=1;orthogonalLoop=1;jettySize=auto;html=1;exitX=1;exitY=0.5;exitDx=0;exitDy=0;entryX=0.75;entryY=0;entryDx=0;entryDy=0;shadow=0;fontSize=12;fontColor=#1D3557;strokeColor=#457B9D;fillColor=#A8DADC;labelBackgroundColor=#F1FAEE;" parent="1" source="b7qcoKIOhfxjR_RTO6o0-1" target="ESLMYOS8GgTxVuvXD0V8-7" edge="1">
          <mxGeometry relative="1" as="geometry" />
        </mxCell>
        <mxCell id="b7qcoKIOhfxjR_RTO6o0-1" value="MiniMax" style="rounded=1;whiteSpace=wrap;html=1;absoluteArcSize=1;arcSize=14;strokeWidth=2;sketch=1;fontColor=#1D3557;fillColor=#A8DADC;strokeColor=#457B9D;" parent="1" vertex="1">
          <mxGeometry x="450" y="106" width="52.5" height="50" as="geometry" />
        </mxCell>
        <mxCell id="ESLMYOS8GgTxVuvXD0V8-5" style="edgeStyle=orthogonalEdgeStyle;curved=1;sketch=1;orthogonalLoop=1;jettySize=auto;html=1;exitX=0.5;exitY=1;exitDx=0;exitDy=0;exitPerimeter=0;entryX=0;entryY=0.5;entryDx=0;entryDy=0;shadow=0;fontSize=12;fontColor=#1D3557;strokeColor=#457B9D;fillColor=#A8DADC;labelBackgroundColor=#F1FAEE;" parent="1" source="b7qcoKIOhfxjR_RTO6o0-13" target="4Fq9ceX_VG-YS3ik4-2U-5" edge="1">
          <mxGeometry relative="1" as="geometry" />
        </mxCell>
        <mxCell id="ESLMYOS8GgTxVuvXD0V8-6" style="edgeStyle=orthogonalEdgeStyle;curved=1;sketch=1;orthogonalLoop=1;jettySize=auto;html=1;exitX=0.5;exitY=0;exitDx=0;exitDy=0;exitPerimeter=0;shadow=0;fontSize=12;fontColor=#1D3557;strokeColor=#457B9D;fillColor=#A8DADC;entryX=0;entryY=0.5;entryDx=0;entryDy=0;labelBackgroundColor=#F1FAEE;" parent="1" source="b7qcoKIOhfxjR_RTO6o0-13" target="b7qcoKIOhfxjR_RTO6o0-1" edge="1">
          <mxGeometry relative="1" as="geometry">
            <mxPoint x="450" y="133.08" as="targetPoint" />
          </mxGeometry>
        </mxCell>
        <mxCell id="b7qcoKIOhfxjR_RTO6o0-13" value="Greedy | MiniMax" style="strokeWidth=2;html=1;shape=mxgraph.flowchart.decision;whiteSpace=wrap;sketch=1;fontColor=#1D3557;fillColor=#A8DADC;strokeColor=#457B9D;" parent="1" vertex="1">
          <mxGeometry x="372.5" y="152.98000000000002" width="82.5" height="70.05" as="geometry" />
        </mxCell>
        <mxCell id="ESLMYOS8GgTxVuvXD0V8-3" style="edgeStyle=orthogonalEdgeStyle;curved=1;sketch=1;orthogonalLoop=1;jettySize=auto;html=1;exitX=1;exitY=0.5;exitDx=0;exitDy=0;entryX=0;entryY=0.5;entryDx=0;entryDy=0;shadow=0;fontSize=12;fontColor=#1D3557;strokeColor=#457B9D;fillColor=#A8DADC;labelBackgroundColor=#F1FAEE;" parent="1" source="b7qcoKIOhfxjR_RTO6o0-22" target="ESLMYOS8GgTxVuvXD0V8-1" edge="1">
          <mxGeometry relative="1" as="geometry" />
        </mxCell>
        <mxCell id="b7qcoKIOhfxjR_RTO6o0-22" value="&lt;div&gt;Lists of&lt;br&gt; BBoxes, Masks,&lt;br&gt;Images&lt;br&gt;&lt;/div&gt;" style="shape=parallelogram;html=1;strokeWidth=2;perimeter=parallelogramPerimeter;whiteSpace=wrap;rounded=1;arcSize=12;size=0.23;sketch=1;fontColor=#1D3557;fillColor=#A8DADC;strokeColor=#457B9D;" parent="1" vertex="1">
          <mxGeometry x="120" y="160.58" width="130" height="55" as="geometry" />
        </mxCell>
        <mxCell id="ESLMYOS8GgTxVuvXD0V8-14" value="" style="edgeStyle=orthogonalEdgeStyle;curved=1;sketch=1;orthogonalLoop=1;jettySize=auto;html=1;shadow=0;fontSize=12;fontColor=#1D3557;strokeColor=#457B9D;fillColor=#A8DADC;labelBackgroundColor=#F1FAEE;" parent="1" source="b7qcoKIOhfxjR_RTO6o0-24" target="kgGydF3GcbX9kIzkIF3p-51" edge="1">
          <mxGeometry relative="1" as="geometry" />
        </mxCell>
        <mxCell id="b7qcoKIOhfxjR_RTO6o0-24" value="List of LabeledMasks" style="shape=parallelogram;html=1;strokeWidth=2;perimeter=parallelogramPerimeter;whiteSpace=wrap;rounded=1;arcSize=12;size=0.23;sketch=1;fontColor=#1D3557;fillColor=#A8DADC;strokeColor=#457B9D;" parent="1" vertex="1">
          <mxGeometry x="650" y="160.43000000000004" width="110" height="55.1" as="geometry" />
        </mxCell>
        <mxCell id="kgGydF3GcbX9kIzkIF3p-51" value="finish" style="strokeWidth=2;html=1;shape=mxgraph.flowchart.terminator;whiteSpace=wrap;sketch=1;fontSize=12;fontColor=#1D3557;fillColor=#A8DADC;strokeColor=#457B9D;" parent="1" vertex="1">
          <mxGeometry x="780" y="170.58" width="60" height="35" as="geometry" />
        </mxCell>
        <mxCell id="ESLMYOS8GgTxVuvXD0V8-4" style="edgeStyle=orthogonalEdgeStyle;curved=1;sketch=1;orthogonalLoop=1;jettySize=auto;html=1;exitX=1;exitY=0.5;exitDx=0;exitDy=0;entryX=0;entryY=0.5;entryDx=0;entryDy=0;entryPerimeter=0;shadow=0;fontSize=12;fontColor=#1D3557;strokeColor=#457B9D;fillColor=#A8DADC;labelBackgroundColor=#F1FAEE;" parent="1" source="ESLMYOS8GgTxVuvXD0V8-1" target="b7qcoKIOhfxjR_RTO6o0-13" edge="1">
          <mxGeometry relative="1" as="geometry" />
        </mxCell>
        <mxCell id="ESLMYOS8GgTxVuvXD0V8-1" value="pop BBoxes,&lt;br&gt;Masks, Images" style="rounded=1;whiteSpace=wrap;html=1;absoluteArcSize=1;arcSize=14;strokeWidth=2;sketch=1;fontColor=#1D3557;fillColor=#A8DADC;strokeColor=#457B9D;" parent="1" vertex="1">
          <mxGeometry x="260" y="163.08" width="90" height="50" as="geometry" />
        </mxCell>
        <mxCell id="ESLMYOS8GgTxVuvXD0V8-11" value="" style="edgeStyle=orthogonalEdgeStyle;curved=1;sketch=1;orthogonalLoop=1;jettySize=auto;html=1;shadow=0;fontSize=12;fontColor=#1D3557;strokeColor=#457B9D;fillColor=#A8DADC;labelBackgroundColor=#F1FAEE;" parent="1" source="ESLMYOS8GgTxVuvXD0V8-7" target="ESLMYOS8GgTxVuvXD0V8-10" edge="1">
          <mxGeometry relative="1" as="geometry" />
        </mxCell>
        <mxCell id="ESLMYOS8GgTxVuvXD0V8-7" value="push LabeledMasks" style="rounded=1;whiteSpace=wrap;html=1;absoluteArcSize=1;arcSize=14;strokeWidth=2;sketch=1;fontColor=#1D3557;fillColor=#A8DADC;strokeColor=#457B9D;" parent="1" vertex="1">
          <mxGeometry x="472.5" y="163.00000000000003" width="80" height="50" as="geometry" />
        </mxCell>
        <mxCell id="ESLMYOS8GgTxVuvXD0V8-12" style="edgeStyle=orthogonalEdgeStyle;curved=1;sketch=1;orthogonalLoop=1;jettySize=auto;html=1;exitX=0.5;exitY=0;exitDx=0;exitDy=0;exitPerimeter=0;entryX=0.5;entryY=0;entryDx=0;entryDy=0;shadow=0;fontSize=12;fontColor=#1D3557;strokeColor=#457B9D;fillColor=#A8DADC;labelBackgroundColor=#F1FAEE;" parent="1" source="ESLMYOS8GgTxVuvXD0V8-10" target="ESLMYOS8GgTxVuvXD0V8-1" edge="1">
          <mxGeometry relative="1" as="geometry">
            <Array as="points">
              <mxPoint x="605" y="93" />
              <mxPoint x="305" y="93" />
            </Array>
          </mxGeometry>
        </mxCell>
        <mxCell id="ESLMYOS8GgTxVuvXD0V8-15" value="no" style="edgeLabel;html=1;align=center;verticalAlign=middle;resizable=0;points=[];fontSize=12;fontColor=#1D3557;labelBackgroundColor=#F1FAEE;" parent="ESLMYOS8GgTxVuvXD0V8-12" vertex="1" connectable="0">
          <mxGeometry x="-0.9025" y="4" relative="1" as="geometry">
            <mxPoint as="offset" />
          </mxGeometry>
        </mxCell>
        <mxCell id="ESLMYOS8GgTxVuvXD0V8-13" style="edgeStyle=orthogonalEdgeStyle;curved=1;sketch=1;orthogonalLoop=1;jettySize=auto;html=1;exitX=1;exitY=0.5;exitDx=0;exitDy=0;exitPerimeter=0;entryX=0;entryY=0.5;entryDx=0;entryDy=0;shadow=0;fontSize=12;fontColor=#1D3557;strokeColor=#457B9D;fillColor=#A8DADC;labelBackgroundColor=#F1FAEE;" parent="1" source="ESLMYOS8GgTxVuvXD0V8-10" target="b7qcoKIOhfxjR_RTO6o0-24" edge="1">
          <mxGeometry relative="1" as="geometry" />
        </mxCell>
        <mxCell id="ESLMYOS8GgTxVuvXD0V8-10" value="Lists Empty?" style="strokeWidth=2;html=1;shape=mxgraph.flowchart.decision;whiteSpace=wrap;sketch=1;fontColor=#1D3557;fillColor=#A8DADC;strokeColor=#457B9D;" parent="1" vertex="1">
          <mxGeometry x="570" y="152.98000000000002" width="70" height="70" as="geometry" />
        </mxCell>
        <mxCell id="Zn-j1-K5LXA0L9mdTGQz-1" value="Update Masks" style="text;html=1;align=center;verticalAlign=middle;whiteSpace=wrap;rounded=0;sketch=1;fontFamily=Lucida Console;fontSize=36;fontColor=#1D3557;" parent="1" vertex="1">
          <mxGeometry x="114" y="54" width="623" height="30" as="geometry" />
        </mxCell>
        <mxCell id="ds64i5Wi1BSZkwu0R001-1" style="edgeStyle=orthogonalEdgeStyle;sketch=1;orthogonalLoop=1;jettySize=auto;html=1;exitX=0.5;exitY=1;exitDx=0;exitDy=0;exitPerimeter=0;fontSize=12;fontColor=#1D3557;strokeColor=#457B9D;fillColor=#A8DADC;labelBackgroundColor=#F1FAEE;curved=1;" edge="1" parent="1" source="ds64i5Wi1BSZkwu0R001-2" target="ds64i5Wi1BSZkwu0R001-9">
          <mxGeometry relative="1" as="geometry" />
        </mxCell>
        <mxCell id="ds64i5Wi1BSZkwu0R001-2" value="&lt;font style=&quot;font-size: 12px&quot;&gt;Start Greedy&lt;/font&gt;" style="strokeWidth=2;html=1;shape=mxgraph.flowchart.start_1;whiteSpace=wrap;sketch=1;fontSize=16;fontColor=#1D3557;fillColor=#A8DADC;strokeColor=#457B9D;" vertex="1" parent="1">
          <mxGeometry x="107.5" y="310" width="80" height="60" as="geometry" />
        </mxCell>
        <mxCell id="ds64i5Wi1BSZkwu0R001-3" style="edgeStyle=orthogonalEdgeStyle;sketch=1;orthogonalLoop=1;jettySize=auto;html=1;exitX=0.187;exitY=1.051;exitDx=0;exitDy=0;fontSize=12;fontColor=#1D3557;strokeColor=#457B9D;fillColor=#A8DADC;exitPerimeter=0;labelBackgroundColor=#F1FAEE;curved=1;entryX=0.25;entryY=0;entryDx=0;entryDy=0;" edge="1" parent="1" source="ds64i5Wi1BSZkwu0R001-9" target="ds64i5Wi1BSZkwu0R001-28">
          <mxGeometry relative="1" as="geometry">
            <mxPoint x="57.5" y="500" as="targetPoint" />
          </mxGeometry>
        </mxCell>
        <mxCell id="ds64i5Wi1BSZkwu0R001-4" value="Image" style="edgeLabel;html=1;align=center;verticalAlign=middle;resizable=0;points=[];fontSize=12;fontColor=#1D3557;sketch=1;labelBackgroundColor=#F1FAEE;" vertex="1" connectable="0" parent="ds64i5Wi1BSZkwu0R001-3">
          <mxGeometry x="0.1248" relative="1" as="geometry">
            <mxPoint x="-22" y="-56" as="offset" />
          </mxGeometry>
        </mxCell>
        <mxCell id="ds64i5Wi1BSZkwu0R001-5" value="" style="edgeStyle=orthogonalEdgeStyle;rounded=1;sketch=1;orthogonalLoop=1;jettySize=auto;html=1;fontColor=#1D3557;strokeColor=#457B9D;fillColor=#A8DADC;curved=1;entryX=0.5;entryY=0;entryDx=0;entryDy=0;labelBackgroundColor=#F1FAEE;" edge="1" parent="1" source="ds64i5Wi1BSZkwu0R001-9" target="ds64i5Wi1BSZkwu0R001-28">
          <mxGeometry relative="1" as="geometry">
            <mxPoint x="110.5" y="528" as="targetPoint" />
          </mxGeometry>
        </mxCell>
        <mxCell id="ds64i5Wi1BSZkwu0R001-6" value="Masks" style="edgeLabel;html=1;align=center;verticalAlign=middle;resizable=0;points=[];fontColor=#1D3557;labelBackgroundColor=#F1FAEE;" vertex="1" connectable="0" parent="ds64i5Wi1BSZkwu0R001-5">
          <mxGeometry x="-0.6452" y="-1" relative="1" as="geometry">
            <mxPoint x="1" y="-19" as="offset" />
          </mxGeometry>
        </mxCell>
        <mxCell id="ds64i5Wi1BSZkwu0R001-7" style="edgeStyle=orthogonalEdgeStyle;curved=1;rounded=1;sketch=1;orthogonalLoop=1;jettySize=auto;html=1;exitX=0.75;exitY=1;exitDx=0;exitDy=0;fontColor=#1D3557;strokeColor=#457B9D;fillColor=#A8DADC;labelBackgroundColor=#F1FAEE;" edge="1" parent="1" source="ds64i5Wi1BSZkwu0R001-9" target="ds64i5Wi1BSZkwu0R001-14">
          <mxGeometry relative="1" as="geometry">
            <Array as="points">
              <mxPoint x="201.5" y="458" />
              <mxPoint x="200.5" y="458" />
            </Array>
          </mxGeometry>
        </mxCell>
        <mxCell id="ds64i5Wi1BSZkwu0R001-8" value="BBoxes" style="edgeLabel;html=1;align=center;verticalAlign=middle;resizable=0;points=[];fontColor=#1D3557;labelBackgroundColor=#F1FAEE;" vertex="1" connectable="0" parent="ds64i5Wi1BSZkwu0R001-7">
          <mxGeometry x="-0.365" relative="1" as="geometry">
            <mxPoint x="-1" as="offset" />
          </mxGeometry>
        </mxCell>
        <mxCell id="ds64i5Wi1BSZkwu0R001-9" value="&lt;div&gt;BBoxes, Masks,&lt;br&gt;Image&lt;br&gt;&lt;/div&gt;" style="shape=parallelogram;html=1;strokeWidth=2;perimeter=parallelogramPerimeter;whiteSpace=wrap;rounded=1;arcSize=12;size=0.23;sketch=1;fontColor=#1D3557;fillColor=#A8DADC;strokeColor=#457B9D;" vertex="1" parent="1">
          <mxGeometry x="40" y="390" width="215" height="40" as="geometry" />
        </mxCell>
        <mxCell id="ds64i5Wi1BSZkwu0R001-10" style="edgeStyle=orthogonalEdgeStyle;sketch=1;orthogonalLoop=1;jettySize=auto;html=1;exitX=0.5;exitY=1;exitDx=0;exitDy=0;fontSize=12;fontColor=#1D3557;strokeColor=#457B9D;fillColor=#A8DADC;labelBackgroundColor=#F1FAEE;curved=1;" edge="1" parent="1" source="ds64i5Wi1BSZkwu0R001-28" target="ds64i5Wi1BSZkwu0R001-12">
          <mxGeometry relative="1" as="geometry">
            <mxPoint x="131.25" y="700" as="sourcePoint" />
          </mxGeometry>
        </mxCell>
        <mxCell id="ds64i5Wi1BSZkwu0R001-11" style="edgeStyle=orthogonalEdgeStyle;sketch=1;orthogonalLoop=1;jettySize=auto;html=1;exitX=0.5;exitY=1;exitDx=0;exitDy=0;entryX=0.5;entryY=0;entryDx=0;entryDy=0;fontSize=12;fontColor=#1D3557;strokeColor=#457B9D;fillColor=#A8DADC;labelBackgroundColor=#F1FAEE;curved=1;" edge="1" parent="1" source="ds64i5Wi1BSZkwu0R001-12" target="ds64i5Wi1BSZkwu0R001-17">
          <mxGeometry relative="1" as="geometry" />
        </mxCell>
        <mxCell id="ds64i5Wi1BSZkwu0R001-12" value="Select Mask with lowest Cost" style="rounded=1;whiteSpace=wrap;html=1;absoluteArcSize=1;arcSize=14;strokeWidth=2;sketch=1;fontSize=12;fontColor=#1D3557;fillColor=#A8DADC;strokeColor=#457B9D;" vertex="1" parent="1">
          <mxGeometry x="81.25" y="643" width="100" height="40" as="geometry" />
        </mxCell>
        <mxCell id="ds64i5Wi1BSZkwu0R001-13" style="edgeStyle=orthogonalEdgeStyle;curved=1;rounded=1;sketch=1;orthogonalLoop=1;jettySize=auto;html=1;exitX=0.5;exitY=1;exitDx=0;exitDy=0;entryX=0.75;entryY=0;entryDx=0;entryDy=0;fontColor=#1D3557;strokeColor=#457B9D;fillColor=#A8DADC;labelBackgroundColor=#F1FAEE;" edge="1" parent="1" source="ds64i5Wi1BSZkwu0R001-14" target="ds64i5Wi1BSZkwu0R001-28">
          <mxGeometry relative="1" as="geometry" />
        </mxCell>
        <mxCell id="ds64i5Wi1BSZkwu0R001-14" value="Pop BBox" style="rounded=1;whiteSpace=wrap;html=1;absoluteArcSize=1;arcSize=14;strokeWidth=2;sketch=1;fontSize=12;fontColor=#1D3557;fillColor=#A8DADC;strokeColor=#457B9D;" vertex="1" parent="1">
          <mxGeometry x="181.25" y="458" width="50" height="50" as="geometry" />
        </mxCell>
        <mxCell id="ds64i5Wi1BSZkwu0R001-15" value="" style="edgeStyle=orthogonalEdgeStyle;sketch=1;orthogonalLoop=1;jettySize=auto;html=1;shadow=0;fontSize=12;fontColor=#1D3557;strokeColor=#457B9D;fillColor=#A8DADC;labelBackgroundColor=#F1FAEE;curved=1;" edge="1" parent="1" source="ds64i5Wi1BSZkwu0R001-29" target="ds64i5Wi1BSZkwu0R001-12">
          <mxGeometry relative="1" as="geometry" />
        </mxCell>
        <mxCell id="ds64i5Wi1BSZkwu0R001-16" value="" style="edgeStyle=orthogonalEdgeStyle;sketch=1;orthogonalLoop=1;jettySize=auto;html=1;fontSize=12;fontColor=#1D3557;strokeColor=#457B9D;fillColor=#A8DADC;labelBackgroundColor=#F1FAEE;curved=1;" edge="1" parent="1" source="ds64i5Wi1BSZkwu0R001-17" target="ds64i5Wi1BSZkwu0R001-22">
          <mxGeometry relative="1" as="geometry" />
        </mxCell>
        <mxCell id="ds64i5Wi1BSZkwu0R001-17" value="Push Labeled&lt;br&gt;Mask" style="rounded=1;whiteSpace=wrap;html=1;absoluteArcSize=1;arcSize=14;strokeWidth=2;sketch=1;fontSize=12;fontColor=#1D3557;fillColor=#A8DADC;strokeColor=#457B9D;" vertex="1" parent="1">
          <mxGeometry x="81.25" y="703" width="100" height="40" as="geometry" />
        </mxCell>
        <mxCell id="ds64i5Wi1BSZkwu0R001-18" style="edgeStyle=orthogonalEdgeStyle;sketch=1;orthogonalLoop=1;jettySize=auto;html=1;exitX=0.5;exitY=1;exitDx=0;exitDy=0;exitPerimeter=0;entryX=0.5;entryY=0;entryDx=0;entryDy=0;shadow=0;fontSize=12;fontColor=#1D3557;strokeColor=#457B9D;fillColor=#A8DADC;startArrow=none;labelBackgroundColor=#F1FAEE;curved=1;" edge="1" parent="1" source="ds64i5Wi1BSZkwu0R001-27" target="ds64i5Wi1BSZkwu0R001-24">
          <mxGeometry relative="1" as="geometry" />
        </mxCell>
        <mxCell id="ds64i5Wi1BSZkwu0R001-19" value="" style="edgeStyle=orthogonalEdgeStyle;sketch=1;orthogonalLoop=1;jettySize=auto;html=1;shadow=0;fontSize=12;fontColor=#1D3557;strokeColor=#457B9D;fillColor=#A8DADC;labelBackgroundColor=#F1FAEE;curved=1;" edge="1" parent="1" source="ds64i5Wi1BSZkwu0R001-22" target="ds64i5Wi1BSZkwu0R001-27">
          <mxGeometry relative="1" as="geometry" />
        </mxCell>
        <mxCell id="ds64i5Wi1BSZkwu0R001-20" style="edgeStyle=orthogonalEdgeStyle;curved=1;rounded=1;sketch=1;orthogonalLoop=1;jettySize=auto;html=1;exitX=1;exitY=0.5;exitDx=0;exitDy=0;exitPerimeter=0;entryX=1;entryY=0.5;entryDx=0;entryDy=0;fontColor=#1D3557;strokeColor=#457B9D;fillColor=#A8DADC;labelBackgroundColor=#F1FAEE;" edge="1" parent="1" source="ds64i5Wi1BSZkwu0R001-22" target="ds64i5Wi1BSZkwu0R001-14">
          <mxGeometry relative="1" as="geometry">
            <Array as="points">
              <mxPoint x="260.5" y="793" />
              <mxPoint x="260.5" y="483" />
            </Array>
          </mxGeometry>
        </mxCell>
        <mxCell id="ds64i5Wi1BSZkwu0R001-21" value="no" style="edgeLabel;html=1;align=center;verticalAlign=middle;resizable=0;points=[];fontColor=#1D3557;labelBackgroundColor=#F1FAEE;" vertex="1" connectable="0" parent="ds64i5Wi1BSZkwu0R001-20">
          <mxGeometry x="-0.9269" y="-3" relative="1" as="geometry">
            <mxPoint as="offset" />
          </mxGeometry>
        </mxCell>
        <mxCell id="ds64i5Wi1BSZkwu0R001-22" value="BBoxes Empty?" style="strokeWidth=2;html=1;shape=mxgraph.flowchart.decision;whiteSpace=wrap;sketch=1;fontSize=12;fontColor=#1D3557;fillColor=#A8DADC;strokeColor=#457B9D;" vertex="1" parent="1">
          <mxGeometry x="81.25" y="763" width="100" height="60" as="geometry" />
        </mxCell>
        <mxCell id="ds64i5Wi1BSZkwu0R001-23" value="" style="edgeStyle=orthogonalEdgeStyle;sketch=1;orthogonalLoop=1;jettySize=auto;html=1;shadow=0;fontSize=12;fontColor=#1D3557;strokeColor=#457B9D;fillColor=#A8DADC;labelBackgroundColor=#F1FAEE;curved=1;" edge="1" parent="1" source="ds64i5Wi1BSZkwu0R001-24" target="ds64i5Wi1BSZkwu0R001-25">
          <mxGeometry relative="1" as="geometry" />
        </mxCell>
        <mxCell id="ds64i5Wi1BSZkwu0R001-24" value="LabeledMask" style="shape=parallelogram;html=1;strokeWidth=2;perimeter=parallelogramPerimeter;whiteSpace=wrap;rounded=1;arcSize=12;size=0.23;sketch=1;fontColor=#1D3557;fillColor=#A8DADC;strokeColor=#457B9D;" vertex="1" parent="1">
          <mxGeometry x="76.25" y="958" width="110" height="40" as="geometry" />
        </mxCell>
        <mxCell id="ds64i5Wi1BSZkwu0R001-25" value="finish" style="strokeWidth=2;html=1;shape=mxgraph.flowchart.terminator;whiteSpace=wrap;sketch=1;fontSize=12;fontColor=#1D3557;fillColor=#A8DADC;strokeColor=#457B9D;" vertex="1" parent="1">
          <mxGeometry x="92.5" y="1028" width="77.5" height="20" as="geometry" />
        </mxCell>
        <mxCell id="ds64i5Wi1BSZkwu0R001-26" value="Since all Masks are only representing one &lt;br&gt;Class they need to be stacked, to create &lt;br&gt;the correct Label Format (Which order? try multiple)" style="strokeWidth=2;html=1;shape=mxgraph.flowchart.annotation_2;align=left;labelPosition=right;pointerEvents=1;sketch=1;fontSize=12;fontColor=#1D3557;fillColor=#A8DADC;strokeColor=#457B9D;" vertex="1" parent="1">
          <mxGeometry x="181.25" y="843" width="50" height="100" as="geometry" />
        </mxCell>
        <mxCell id="ds64i5Wi1BSZkwu0R001-27" value="Create Combined Mask as GT" style="rounded=1;whiteSpace=wrap;html=1;absoluteArcSize=1;arcSize=14;strokeWidth=2;sketch=1;fontSize=12;fontColor=#1D3557;fillColor=#A8DADC;strokeColor=#457B9D;" vertex="1" parent="1">
          <mxGeometry x="81.25" y="863" width="100" height="60" as="geometry" />
        </mxCell>
        <mxCell id="ds64i5Wi1BSZkwu0R001-28" value="CalcError" style="rounded=1;whiteSpace=wrap;html=1;absoluteArcSize=1;arcSize=14;strokeWidth=2;sketch=1;fontSize=12;fontColor=#1D3557;fillColor=#A8DADC;strokeColor=#457B9D;" vertex="1" parent="1">
          <mxGeometry x="81.25" y="558" width="100" height="40" as="geometry" />
        </mxCell>
        <mxCell id="ds64i5Wi1BSZkwu0R001-29" value="The Mask which generates the&lt;br&gt;lowest Cost for current BBox&lt;br&gt;is selected for Class of the&lt;br&gt;BBox.&lt;br&gt; " style="strokeWidth=2;html=1;shape=mxgraph.flowchart.annotation_2;align=left;labelPosition=right;pointerEvents=1;sketch=1;fontSize=12;fontColor=#1D3557;fillColor=#A8DADC;strokeColor=#457B9D;" vertex="1" parent="1">
          <mxGeometry x="255" y="628" width="50" height="70" as="geometry" />
        </mxCell>
        <mxCell id="5P7L9A1L2EwhLCJXm_3R-1" style="edgeStyle=orthogonalEdgeStyle;curved=1;sketch=1;orthogonalLoop=1;jettySize=auto;html=1;exitX=1;exitY=0.5;exitDx=0;exitDy=0;exitPerimeter=0;entryX=1;entryY=0.5;entryDx=0;entryDy=0;fontSize=12;fontColor=#1D3557;strokeColor=#457B9D;fillColor=#A8DADC;shadow=0;labelBackgroundColor=#F1FAEE;" edge="1" parent="1" source="5P7L9A1L2EwhLCJXm_3R-20" target="5P7L9A1L2EwhLCJXm_3R-14">
          <mxGeometry relative="1" as="geometry">
            <Array as="points">
              <mxPoint x="785" y="803" />
              <mxPoint x="785" y="492" />
            </Array>
          </mxGeometry>
        </mxCell>
        <mxCell id="5P7L9A1L2EwhLCJXm_3R-2" value="&lt;div&gt;no&lt;/div&gt;" style="edgeLabel;html=1;align=center;verticalAlign=middle;resizable=0;points=[];fontSize=12;fontColor=#1D3557;labelBackgroundColor=#F1FAEE;sketch=1;" vertex="1" connectable="0" parent="5P7L9A1L2EwhLCJXm_3R-1">
          <mxGeometry x="-0.9728" y="-2" relative="1" as="geometry">
            <mxPoint as="offset" />
          </mxGeometry>
        </mxCell>
        <mxCell id="5P7L9A1L2EwhLCJXm_3R-3" style="edgeStyle=orthogonalEdgeStyle;curved=1;sketch=1;orthogonalLoop=1;jettySize=auto;html=1;exitX=0.5;exitY=1;exitDx=0;exitDy=0;exitPerimeter=0;fontSize=12;fontColor=#1D3557;strokeColor=#457B9D;fillColor=#A8DADC;labelBackgroundColor=#F1FAEE;" edge="1" parent="1" source="5P7L9A1L2EwhLCJXm_3R-4" target="5P7L9A1L2EwhLCJXm_3R-10">
          <mxGeometry relative="1" as="geometry" />
        </mxCell>
        <mxCell id="5P7L9A1L2EwhLCJXm_3R-4" value="&lt;font style=&quot;font-size: 12px&quot;&gt;Start MiniMax&lt;br&gt;&lt;/font&gt;" style="strokeWidth=2;html=1;shape=mxgraph.flowchart.start_1;whiteSpace=wrap;sketch=1;fontSize=16;fontColor=#1D3557;fillColor=#A8DADC;strokeColor=#457B9D;" vertex="1" parent="1">
          <mxGeometry x="596.25" y="307" width="92.5" height="60" as="geometry" />
        </mxCell>
        <mxCell id="5P7L9A1L2EwhLCJXm_3R-5" style="edgeStyle=orthogonalEdgeStyle;curved=1;sketch=1;orthogonalLoop=1;jettySize=auto;html=1;exitX=0.187;exitY=1.051;exitDx=0;exitDy=0;fontSize=12;fontColor=#1D3557;strokeColor=#457B9D;fillColor=#A8DADC;exitPerimeter=0;labelBackgroundColor=#F1FAEE;entryX=0.25;entryY=0;entryDx=0;entryDy=0;" edge="1" parent="1" source="5P7L9A1L2EwhLCJXm_3R-10" target="5P7L9A1L2EwhLCJXm_3R-26">
          <mxGeometry relative="1" as="geometry">
            <mxPoint x="575.0588235294117" y="467" as="targetPoint" />
          </mxGeometry>
        </mxCell>
        <mxCell id="5P7L9A1L2EwhLCJXm_3R-6" value="Image" style="edgeLabel;html=1;align=center;verticalAlign=middle;resizable=0;points=[];fontSize=12;fontColor=#1D3557;labelBackgroundColor=#F1FAEE;sketch=1;" vertex="1" connectable="0" parent="5P7L9A1L2EwhLCJXm_3R-5">
          <mxGeometry x="0.1248" relative="1" as="geometry">
            <mxPoint x="-33" y="-57" as="offset" />
          </mxGeometry>
        </mxCell>
        <mxCell id="5P7L9A1L2EwhLCJXm_3R-7" style="edgeStyle=orthogonalEdgeStyle;curved=1;sketch=1;orthogonalLoop=1;jettySize=auto;html=1;exitX=0.438;exitY=1.039;exitDx=0;exitDy=0;entryX=0.75;entryY=0;entryDx=0;entryDy=0;fontSize=12;fontColor=#1D3557;strokeColor=#457B9D;fillColor=#A8DADC;exitPerimeter=0;startArrow=none;labelBackgroundColor=#F1FAEE;" edge="1" parent="1" source="5P7L9A1L2EwhLCJXm_3R-14" target="5P7L9A1L2EwhLCJXm_3R-26">
          <mxGeometry relative="1" as="geometry">
            <Array as="points">
              <mxPoint x="668" y="519" />
              <mxPoint x="668" y="575" />
            </Array>
            <mxPoint x="675" y="547" as="targetPoint" />
          </mxGeometry>
        </mxCell>
        <mxCell id="5P7L9A1L2EwhLCJXm_3R-8" style="edgeStyle=orthogonalEdgeStyle;curved=1;sketch=1;orthogonalLoop=1;jettySize=auto;html=1;exitX=0.5;exitY=1;exitDx=0;exitDy=0;entryX=0.5;entryY=0;entryDx=0;entryDy=0;fontSize=12;fontColor=#1D3557;strokeColor=#457B9D;fillColor=#A8DADC;labelBackgroundColor=#F1FAEE;" edge="1" parent="1" source="5P7L9A1L2EwhLCJXm_3R-10" target="5P7L9A1L2EwhLCJXm_3R-26">
          <mxGeometry relative="1" as="geometry">
            <Array as="points">
              <mxPoint x="642" y="429" />
              <mxPoint x="643" y="575" />
            </Array>
            <mxPoint x="725" y="547" as="targetPoint" />
          </mxGeometry>
        </mxCell>
        <mxCell id="5P7L9A1L2EwhLCJXm_3R-9" value="Masks" style="edgeLabel;html=1;align=center;verticalAlign=middle;resizable=0;points=[];fontSize=12;fontColor=#1D3557;labelBackgroundColor=#F1FAEE;sketch=1;" vertex="1" connectable="0" parent="5P7L9A1L2EwhLCJXm_3R-8">
          <mxGeometry x="-0.7635" y="1" relative="1" as="geometry">
            <mxPoint x="-1" as="offset" />
          </mxGeometry>
        </mxCell>
        <mxCell id="5P7L9A1L2EwhLCJXm_3R-10" value="&lt;div&gt;BBoxes, Masks,&lt;br&gt;Image&lt;br&gt;&lt;/div&gt;" style="shape=parallelogram;html=1;strokeWidth=2;perimeter=parallelogramPerimeter;whiteSpace=wrap;rounded=1;arcSize=12;size=0.23;sketch=1;fontColor=#1D3557;fillColor=#A8DADC;strokeColor=#457B9D;" vertex="1" parent="1">
          <mxGeometry x="535" y="387" width="215" height="40" as="geometry" />
        </mxCell>
        <mxCell id="5P7L9A1L2EwhLCJXm_3R-11" style="edgeStyle=orthogonalEdgeStyle;curved=1;sketch=1;orthogonalLoop=1;jettySize=auto;html=1;exitX=0.5;exitY=1;exitDx=0;exitDy=0;fontSize=12;fontColor=#1D3557;strokeColor=#457B9D;fillColor=#A8DADC;labelBackgroundColor=#F1FAEE;" edge="1" parent="1" source="5P7L9A1L2EwhLCJXm_3R-26" target="5P7L9A1L2EwhLCJXm_3R-13">
          <mxGeometry relative="1" as="geometry">
            <mxPoint x="642.5" y="687" as="sourcePoint" />
          </mxGeometry>
        </mxCell>
        <mxCell id="5P7L9A1L2EwhLCJXm_3R-12" style="edgeStyle=orthogonalEdgeStyle;curved=1;sketch=1;orthogonalLoop=1;jettySize=auto;html=1;exitX=0.5;exitY=1;exitDx=0;exitDy=0;entryX=0.5;entryY=0;entryDx=0;entryDy=0;fontSize=12;fontColor=#1D3557;strokeColor=#457B9D;fillColor=#A8DADC;labelBackgroundColor=#F1FAEE;" edge="1" parent="1" source="5P7L9A1L2EwhLCJXm_3R-13" target="5P7L9A1L2EwhLCJXm_3R-18">
          <mxGeometry relative="1" as="geometry" />
        </mxCell>
        <mxCell id="5P7L9A1L2EwhLCJXm_3R-13" value="Select K highest cost Masks, random Sample" style="rounded=1;whiteSpace=wrap;html=1;absoluteArcSize=1;arcSize=14;strokeWidth=2;sketch=1;fontSize=12;fontColor=#1D3557;fillColor=#A8DADC;strokeColor=#457B9D;" vertex="1" parent="1">
          <mxGeometry x="592.5" y="643" width="100" height="50" as="geometry" />
        </mxCell>
        <mxCell id="5P7L9A1L2EwhLCJXm_3R-14" value="Pop BBox" style="rounded=1;whiteSpace=wrap;html=1;absoluteArcSize=1;arcSize=14;strokeWidth=2;sketch=1;fontSize=12;fontColor=#1D3557;fillColor=#A8DADC;strokeColor=#457B9D;" vertex="1" parent="1">
          <mxGeometry x="650" y="467" width="50" height="50" as="geometry" />
        </mxCell>
        <mxCell id="5P7L9A1L2EwhLCJXm_3R-15" value="" style="edgeStyle=orthogonalEdgeStyle;curved=1;sketch=1;orthogonalLoop=1;jettySize=auto;html=1;exitX=0.75;exitY=1;exitDx=0;exitDy=0;entryX=0.5;entryY=0;entryDx=0;entryDy=0;fontSize=12;fontColor=#1D3557;strokeColor=#457B9D;fillColor=#A8DADC;endArrow=none;labelBackgroundColor=#F1FAEE;" edge="1" parent="1" source="5P7L9A1L2EwhLCJXm_3R-10" target="5P7L9A1L2EwhLCJXm_3R-14">
          <mxGeometry relative="1" as="geometry">
            <mxPoint x="629.17" y="428.55999999999995" as="sourcePoint" />
            <mxPoint x="675" y="547" as="targetPoint" />
          </mxGeometry>
        </mxCell>
        <mxCell id="5P7L9A1L2EwhLCJXm_3R-16" value="BBoxes" style="edgeLabel;html=1;align=center;verticalAlign=middle;resizable=0;points=[];fontSize=12;fontColor=#1D3557;labelBackgroundColor=#F1FAEE;sketch=1;" vertex="1" connectable="0" parent="5P7L9A1L2EwhLCJXm_3R-15">
          <mxGeometry x="-0.8143" y="-1" relative="1" as="geometry">
            <mxPoint x="-1" y="9" as="offset" />
          </mxGeometry>
        </mxCell>
        <mxCell id="5P7L9A1L2EwhLCJXm_3R-17" value="" style="edgeStyle=orthogonalEdgeStyle;curved=1;sketch=1;orthogonalLoop=1;jettySize=auto;html=1;fontSize=12;fontColor=#1D3557;strokeColor=#457B9D;fillColor=#A8DADC;labelBackgroundColor=#F1FAEE;" edge="1" parent="1" source="5P7L9A1L2EwhLCJXm_3R-18" target="5P7L9A1L2EwhLCJXm_3R-20">
          <mxGeometry relative="1" as="geometry" />
        </mxCell>
        <mxCell id="5P7L9A1L2EwhLCJXm_3R-18" value="Push Labeled&lt;br&gt;Mask" style="rounded=1;whiteSpace=wrap;html=1;absoluteArcSize=1;arcSize=14;strokeWidth=2;sketch=1;fontSize=12;fontColor=#1D3557;fillColor=#A8DADC;strokeColor=#457B9D;" vertex="1" parent="1">
          <mxGeometry x="592.5" y="713" width="100" height="40" as="geometry" />
        </mxCell>
        <mxCell id="5P7L9A1L2EwhLCJXm_3R-19" value="" style="edgeStyle=orthogonalEdgeStyle;curved=1;sketch=1;orthogonalLoop=1;jettySize=auto;html=1;shadow=0;fontSize=12;fontColor=#1D3557;strokeColor=#457B9D;fillColor=#A8DADC;labelBackgroundColor=#F1FAEE;" edge="1" parent="1" source="5P7L9A1L2EwhLCJXm_3R-20" target="5P7L9A1L2EwhLCJXm_3R-25">
          <mxGeometry relative="1" as="geometry">
            <Array as="points">
              <mxPoint x="643" y="853" />
              <mxPoint x="643" y="853" />
            </Array>
          </mxGeometry>
        </mxCell>
        <mxCell id="5P7L9A1L2EwhLCJXm_3R-20" value="BBoxes Empty?" style="strokeWidth=2;html=1;shape=mxgraph.flowchart.decision;whiteSpace=wrap;sketch=1;fontSize=12;fontColor=#1D3557;fillColor=#A8DADC;strokeColor=#457B9D;" vertex="1" parent="1">
          <mxGeometry x="592.5" y="773" width="100" height="60" as="geometry" />
        </mxCell>
        <mxCell id="5P7L9A1L2EwhLCJXm_3R-21" value="" style="edgeStyle=orthogonalEdgeStyle;curved=1;sketch=1;orthogonalLoop=1;jettySize=auto;html=1;shadow=0;fontSize=12;fontColor=#1D3557;strokeColor=#457B9D;fillColor=#A8DADC;labelBackgroundColor=#F1FAEE;" edge="1" parent="1" source="5P7L9A1L2EwhLCJXm_3R-22" target="5P7L9A1L2EwhLCJXm_3R-23">
          <mxGeometry relative="1" as="geometry" />
        </mxCell>
        <mxCell id="5P7L9A1L2EwhLCJXm_3R-22" value="LabeledMasks" style="shape=parallelogram;html=1;strokeWidth=2;perimeter=parallelogramPerimeter;whiteSpace=wrap;rounded=1;arcSize=12;size=0.23;sketch=1;fontColor=#1D3557;fillColor=#A8DADC;strokeColor=#457B9D;" vertex="1" parent="1">
          <mxGeometry x="587.5" y="958" width="110" height="40" as="geometry" />
        </mxCell>
        <mxCell id="5P7L9A1L2EwhLCJXm_3R-23" value="finish" style="strokeWidth=2;html=1;shape=mxgraph.flowchart.terminator;whiteSpace=wrap;sketch=1;fontSize=12;fontColor=#1D3557;fillColor=#A8DADC;strokeColor=#457B9D;" vertex="1" parent="1">
          <mxGeometry x="603.75" y="1028" width="77.5" height="20" as="geometry" />
        </mxCell>
        <mxCell id="5P7L9A1L2EwhLCJXm_3R-24" style="edgeStyle=orthogonalEdgeStyle;curved=1;sketch=1;orthogonalLoop=1;jettySize=auto;html=1;exitX=0.5;exitY=1;exitDx=0;exitDy=0;shadow=0;fontSize=12;fontColor=#1D3557;strokeColor=#457B9D;fillColor=#A8DADC;labelBackgroundColor=#F1FAEE;" edge="1" parent="1" source="5P7L9A1L2EwhLCJXm_3R-25" target="5P7L9A1L2EwhLCJXm_3R-22">
          <mxGeometry relative="1" as="geometry">
            <Array as="points">
              <mxPoint x="643" y="943" />
              <mxPoint x="643" y="943" />
            </Array>
          </mxGeometry>
        </mxCell>
        <mxCell id="5P7L9A1L2EwhLCJXm_3R-25" value="Create Combined Mask as GT" style="rounded=1;whiteSpace=wrap;html=1;absoluteArcSize=1;arcSize=14;strokeWidth=2;sketch=1;fontSize=12;fontColor=#1D3557;fillColor=#A8DADC;strokeColor=#457B9D;" vertex="1" parent="1">
          <mxGeometry x="592.5" y="863" width="100" height="60" as="geometry" />
        </mxCell>
        <mxCell id="5P7L9A1L2EwhLCJXm_3R-26" value="CalcError" style="rounded=1;whiteSpace=wrap;html=1;absoluteArcSize=1;arcSize=14;strokeWidth=2;sketch=1;fontSize=12;fontColor=#1D3557;fillColor=#A8DADC;strokeColor=#457B9D;" vertex="1" parent="1">
          <mxGeometry x="592.5" y="575" width="100" height="40" as="geometry" />
        </mxCell>
      </root>
    </mxGraphModel>
  </diagram>
  <diagram id="tj7W18p8xtnpivYvrQoB" name="Update Net">
    <mxGraphModel dx="2062" dy="1112" grid="1" gridSize="10" guides="1" tooltips="1" connect="1" arrows="1" fold="1" page="1" pageScale="1" pageWidth="850" pageHeight="1100" background="#F1FAEE" math="0" shadow="0">
      <root>
        <mxCell id="0" />
        <mxCell id="1" parent="0" />
        <mxCell id="xoEKdU-Zw-Jy7U12aA8c-3" style="edgeStyle=orthogonalEdgeStyle;curved=1;sketch=1;orthogonalLoop=1;jettySize=auto;html=1;exitX=0.5;exitY=1;exitDx=0;exitDy=0;exitPerimeter=0;entryX=0.5;entryY=0;entryDx=0;entryDy=0;shadow=0;fontSize=12;fontColor=#1D3557;strokeColor=#457B9D;fillColor=#A8DADC;labelBackgroundColor=#F1FAEE;" parent="1" source="c3w3Em9g_hYgU8AwmdAu-1" target="oz-WrGMqWJcZ31HmCMvE-1" edge="1">
          <mxGeometry relative="1" as="geometry" />
        </mxCell>
        <mxCell id="c3w3Em9g_hYgU8AwmdAu-1" value="start Update Net" style="strokeWidth=2;html=1;shape=mxgraph.flowchart.start_1;whiteSpace=wrap;sketch=1;fontSize=12;fontColor=#1D3557;fillColor=#A8DADC;strokeColor=#457B9D;" parent="1" vertex="1">
          <mxGeometry x="365" y="218" width="100" height="60" as="geometry" />
        </mxCell>
        <mxCell id="xoEKdU-Zw-Jy7U12aA8c-4" style="edgeStyle=orthogonalEdgeStyle;curved=1;sketch=1;orthogonalLoop=1;jettySize=auto;html=1;exitX=0.5;exitY=1;exitDx=0;exitDy=0;entryX=0.5;entryY=0;entryDx=0;entryDy=0;shadow=0;fontSize=12;fontColor=#1D3557;strokeColor=#457B9D;fillColor=#A8DADC;labelBackgroundColor=#F1FAEE;" parent="1" source="oz-WrGMqWJcZ31HmCMvE-1" target="bsayJQK2rFjzM3sAT43b-1" edge="1">
          <mxGeometry relative="1" as="geometry" />
        </mxCell>
        <mxCell id="oz-WrGMqWJcZ31HmCMvE-1" value="List of &lt;br&gt;LabeledMasks,&lt;br&gt; Images" style="shape=parallelogram;html=1;strokeWidth=2;perimeter=parallelogramPerimeter;whiteSpace=wrap;rounded=1;arcSize=12;size=0.23;sketch=1;fontSize=12;fontColor=#1D3557;fillColor=#A8DADC;strokeColor=#457B9D;" parent="1" vertex="1">
          <mxGeometry x="345" y="298" width="140" height="60" as="geometry" />
        </mxCell>
        <mxCell id="oz-WrGMqWJcZ31HmCMvE-5" value="" style="edgeStyle=orthogonalEdgeStyle;curved=1;sketch=1;orthogonalLoop=1;jettySize=auto;html=1;shadow=0;fontSize=12;fontColor=#1D3557;strokeColor=#457B9D;fillColor=#A8DADC;labelBackgroundColor=#F1FAEE;" parent="1" source="oz-WrGMqWJcZ31HmCMvE-3" target="oz-WrGMqWJcZ31HmCMvE-4" edge="1">
          <mxGeometry relative="1" as="geometry">
            <Array as="points">
              <mxPoint x="415" y="548" />
              <mxPoint x="415" y="548" />
            </Array>
          </mxGeometry>
        </mxCell>
        <mxCell id="oz-WrGMqWJcZ31HmCMvE-3" value="Forward Propagation" style="rounded=1;whiteSpace=wrap;html=1;absoluteArcSize=1;arcSize=14;strokeWidth=2;sketch=1;fontSize=12;fontColor=#1D3557;fillColor=#A8DADC;strokeColor=#457B9D;" parent="1" vertex="1">
          <mxGeometry x="365" y="488" width="100" height="50" as="geometry" />
        </mxCell>
        <mxCell id="oz-WrGMqWJcZ31HmCMvE-7" value="" style="edgeStyle=orthogonalEdgeStyle;curved=1;sketch=1;orthogonalLoop=1;jettySize=auto;html=1;shadow=0;fontSize=12;fontColor=#1D3557;strokeColor=#457B9D;fillColor=#A8DADC;labelBackgroundColor=#F1FAEE;" parent="1" source="oz-WrGMqWJcZ31HmCMvE-4" target="oz-WrGMqWJcZ31HmCMvE-6" edge="1">
          <mxGeometry relative="1" as="geometry" />
        </mxCell>
        <mxCell id="oz-WrGMqWJcZ31HmCMvE-4" value="Callculate Er" style="rounded=1;whiteSpace=wrap;html=1;absoluteArcSize=1;arcSize=14;strokeWidth=2;sketch=1;fontSize=12;fontColor=#1D3557;fillColor=#A8DADC;strokeColor=#457B9D;" parent="1" vertex="1">
          <mxGeometry x="365" y="568" width="100" height="50" as="geometry" />
        </mxCell>
        <mxCell id="oz-WrGMqWJcZ31HmCMvE-11" value="" style="edgeStyle=orthogonalEdgeStyle;curved=1;sketch=1;orthogonalLoop=1;jettySize=auto;html=1;shadow=0;fontSize=12;fontColor=#1D3557;strokeColor=#457B9D;fillColor=#A8DADC;entryX=0.5;entryY=0;entryDx=0;entryDy=0;labelBackgroundColor=#F1FAEE;" parent="1" source="oz-WrGMqWJcZ31HmCMvE-6" target="oz-WrGMqWJcZ31HmCMvE-10" edge="1">
          <mxGeometry relative="1" as="geometry">
            <Array as="points">
              <mxPoint x="415" y="718" />
              <mxPoint x="415" y="718" />
            </Array>
          </mxGeometry>
        </mxCell>
        <mxCell id="oz-WrGMqWJcZ31HmCMvE-6" value="Back&lt;br&gt;Propagation&lt;br&gt;(SGD)" style="rounded=1;whiteSpace=wrap;html=1;absoluteArcSize=1;arcSize=14;strokeWidth=2;sketch=1;fontSize=12;fontColor=#1D3557;fillColor=#A8DADC;strokeColor=#457B9D;" parent="1" vertex="1">
          <mxGeometry x="365" y="658" width="100" height="50" as="geometry" />
        </mxCell>
        <mxCell id="oz-WrGMqWJcZ31HmCMvE-12" style="edgeStyle=orthogonalEdgeStyle;curved=1;sketch=1;orthogonalLoop=1;jettySize=auto;html=1;entryX=1;entryY=0.5;entryDx=0;entryDy=0;shadow=0;fontSize=12;fontColor=#1D3557;strokeColor=#457B9D;fillColor=#A8DADC;exitX=1;exitY=0.5;exitDx=0;exitDy=0;labelBackgroundColor=#F1FAEE;" parent="1" source="oz-WrGMqWJcZ31HmCMvE-10" target="oz-WrGMqWJcZ31HmCMvE-3" edge="1">
          <mxGeometry relative="1" as="geometry">
            <Array as="points">
              <mxPoint x="505" y="778" />
              <mxPoint x="505" y="513" />
            </Array>
          </mxGeometry>
        </mxCell>
        <mxCell id="bsayJQK2rFjzM3sAT43b-2" value="&lt;div&gt;no&lt;/div&gt;" style="edgeLabel;html=1;align=center;verticalAlign=middle;resizable=0;points=[];fontSize=12;fontColor=#1D3557;labelBackgroundColor=#F1FAEE;" parent="oz-WrGMqWJcZ31HmCMvE-12" vertex="1" connectable="0">
          <mxGeometry x="-0.8845" y="14" relative="1" as="geometry">
            <mxPoint y="9" as="offset" />
          </mxGeometry>
        </mxCell>
        <mxCell id="xoEKdU-Zw-Jy7U12aA8c-2" value="" style="edgeStyle=orthogonalEdgeStyle;curved=1;sketch=1;orthogonalLoop=1;jettySize=auto;html=1;shadow=0;fontSize=12;fontColor=#1D3557;strokeColor=#457B9D;fillColor=#A8DADC;labelBackgroundColor=#F1FAEE;" parent="1" source="oz-WrGMqWJcZ31HmCMvE-10" target="xoEKdU-Zw-Jy7U12aA8c-1" edge="1">
          <mxGeometry relative="1" as="geometry">
            <Array as="points">
              <mxPoint x="415" y="828" />
              <mxPoint x="415" y="828" />
            </Array>
          </mxGeometry>
        </mxCell>
        <mxCell id="oz-WrGMqWJcZ31HmCMvE-10" value="Epoch Complete?" style="rhombus;whiteSpace=wrap;html=1;fillColor=#A8DADC;fontColor=#1D3557;rounded=1;arcSize=14;strokeWidth=2;sketch=1;strokeColor=#457B9D;" parent="1" vertex="1">
          <mxGeometry x="375" y="738" width="80" height="80" as="geometry" />
        </mxCell>
        <mxCell id="xoEKdU-Zw-Jy7U12aA8c-5" style="edgeStyle=orthogonalEdgeStyle;curved=1;sketch=1;orthogonalLoop=1;jettySize=auto;html=1;exitX=0.5;exitY=1;exitDx=0;exitDy=0;entryX=0.5;entryY=0;entryDx=0;entryDy=0;shadow=0;fontSize=12;fontColor=#1D3557;strokeColor=#457B9D;fillColor=#A8DADC;labelBackgroundColor=#F1FAEE;" parent="1" source="bsayJQK2rFjzM3sAT43b-1" target="oz-WrGMqWJcZ31HmCMvE-3" edge="1">
          <mxGeometry relative="1" as="geometry" />
        </mxCell>
        <mxCell id="bsayJQK2rFjzM3sAT43b-1" value="Create Batches&lt;br&gt;(20)" style="rounded=1;whiteSpace=wrap;html=1;absoluteArcSize=1;arcSize=14;strokeWidth=2;sketch=1;fontSize=12;fontColor=#1D3557;fillColor=#A8DADC;strokeColor=#457B9D;" parent="1" vertex="1">
          <mxGeometry x="365" y="398" width="100" height="50" as="geometry" />
        </mxCell>
        <mxCell id="xoEKdU-Zw-Jy7U12aA8c-1" value="finish" style="strokeWidth=2;html=1;shape=mxgraph.flowchart.terminator;whiteSpace=wrap;sketch=1;fontSize=12;fontColor=#1D3557;fillColor=#A8DADC;strokeColor=#457B9D;" parent="1" vertex="1">
          <mxGeometry x="365" y="843" width="100" height="40" as="geometry" />
        </mxCell>
        <mxCell id="r7Ml8VaBo5Xy7YqDJldW-1" value="Update Net" style="text;html=1;align=center;verticalAlign=middle;whiteSpace=wrap;rounded=0;sketch=1;fontFamily=Lucida Console;fontSize=36;fontColor=#1D3557;" parent="1" vertex="1">
          <mxGeometry x="114" y="30" width="623" height="80" as="geometry" />
        </mxCell>
      </root>
    </mxGraphModel>
  </diagram>
  <diagram id="vc7m_f2JawfNYI61CdWH" name="PreProcess MCG">
    <mxGraphModel dx="868" dy="434" grid="1" gridSize="10" guides="1" tooltips="1" connect="1" arrows="1" fold="1" page="1" pageScale="1" pageWidth="850" pageHeight="1100" background="#F1FAEE" math="0" shadow="0">
      <root>
        <mxCell id="0" />
        <mxCell id="1" parent="0" />
        <mxCell id="M7olw4ItZJNz55JN2k2L-2" value="&lt;div&gt;start MCG&lt;br&gt;&lt;/div&gt;" style="strokeWidth=2;html=1;shape=mxgraph.flowchart.start_1;whiteSpace=wrap;rounded=1;sketch=1;fontColor=#1D3557;fillColor=#A8DADC;strokeColor=#457B9D;" parent="1" vertex="1">
          <mxGeometry x="415" y="135" width="100" height="60" as="geometry" />
        </mxCell>
        <mxCell id="YWj38hP-NuNYspanYB4l-10" value="" style="edgeStyle=orthogonalEdgeStyle;curved=0;rounded=1;sketch=1;orthogonalLoop=1;jettySize=auto;html=1;fontColor=#1D3557;strokeColor=#457B9D;fillColor=#A8DADC;labelBackgroundColor=#F1FAEE;" parent="1" source="M7olw4ItZJNz55JN2k2L-3" target="YWj38hP-NuNYspanYB4l-7" edge="1">
          <mxGeometry relative="1" as="geometry" />
        </mxCell>
        <mxCell id="M7olw4ItZJNz55JN2k2L-3" value="pop image" style="whiteSpace=wrap;html=1;fillColor=#A8DADC;fontColor=#1D3557;strokeWidth=2;rounded=1;sketch=1;strokeColor=#457B9D;" parent="1" vertex="1">
          <mxGeometry x="405" y="295" width="120" height="60" as="geometry" />
        </mxCell>
        <mxCell id="YWj38hP-NuNYspanYB4l-12" value="" style="edgeStyle=orthogonalEdgeStyle;curved=0;rounded=1;sketch=1;orthogonalLoop=1;jettySize=auto;html=1;fontColor=#1D3557;strokeColor=#457B9D;fillColor=#A8DADC;labelBackgroundColor=#F1FAEE;" parent="1" source="YWj38hP-NuNYspanYB4l-1" target="M7olw4ItZJNz55JN2k2L-3" edge="1">
          <mxGeometry relative="1" as="geometry" />
        </mxCell>
        <mxCell id="YWj38hP-NuNYspanYB4l-1" value="Images" style="shape=parallelogram;html=1;strokeWidth=2;perimeter=parallelogramPerimeter;whiteSpace=wrap;rounded=1;arcSize=12;size=0.23;sketch=1;fontColor=#1D3557;fillColor=#A8DADC;strokeColor=#457B9D;" parent="1" vertex="1">
          <mxGeometry x="415" y="225" width="100" height="40" as="geometry" />
        </mxCell>
        <mxCell id="YWj38hP-NuNYspanYB4l-2" value="" style="edgeStyle=orthogonalEdgeStyle;curved=0;rounded=1;sketch=1;orthogonalLoop=1;jettySize=auto;html=1;fontColor=#1D3557;strokeColor=#457B9D;fillColor=#A8DADC;endArrow=none;labelBackgroundColor=#F1FAEE;" parent="1" source="M7olw4ItZJNz55JN2k2L-2" target="YWj38hP-NuNYspanYB4l-1" edge="1">
          <mxGeometry relative="1" as="geometry">
            <mxPoint x="465" y="215" as="sourcePoint" />
            <mxPoint x="465" y="295" as="targetPoint" />
          </mxGeometry>
        </mxCell>
        <mxCell id="YWj38hP-NuNYspanYB4l-6" value="" style="edgeStyle=orthogonalEdgeStyle;curved=0;rounded=1;sketch=1;orthogonalLoop=1;jettySize=auto;html=1;fontColor=#1D3557;strokeColor=#457B9D;fillColor=#A8DADC;labelBackgroundColor=#F1FAEE;" parent="1" source="YWj38hP-NuNYspanYB4l-3" target="YWj38hP-NuNYspanYB4l-5" edge="1">
          <mxGeometry relative="1" as="geometry" />
        </mxCell>
        <mxCell id="YWj38hP-NuNYspanYB4l-3" value="Calculate Candidates for Image" style="whiteSpace=wrap;html=1;fillColor=#A8DADC;fontColor=#1D3557;strokeWidth=2;rounded=1;sketch=1;strokeColor=#457B9D;" parent="1" vertex="1">
          <mxGeometry x="405" y="475" width="120" height="60" as="geometry" />
        </mxCell>
        <mxCell id="YWj38hP-NuNYspanYB4l-14" value="" style="edgeStyle=orthogonalEdgeStyle;curved=0;rounded=1;sketch=1;orthogonalLoop=1;jettySize=auto;html=1;fontColor=#1D3557;strokeColor=#457B9D;fillColor=#A8DADC;labelBackgroundColor=#F1FAEE;" parent="1" source="YWj38hP-NuNYspanYB4l-5" target="YWj38hP-NuNYspanYB4l-13" edge="1">
          <mxGeometry relative="1" as="geometry" />
        </mxCell>
        <mxCell id="YWj38hP-NuNYspanYB4l-5" value="Create Masks for Candidates" style="whiteSpace=wrap;html=1;fillColor=#A8DADC;fontColor=#1D3557;strokeWidth=2;rounded=1;sketch=1;strokeColor=#457B9D;" parent="1" vertex="1">
          <mxGeometry x="405" y="565" width="120" height="60" as="geometry" />
        </mxCell>
        <mxCell id="YWj38hP-NuNYspanYB4l-11" value="" style="edgeStyle=orthogonalEdgeStyle;curved=0;rounded=1;sketch=1;orthogonalLoop=1;jettySize=auto;html=1;fontColor=#1D3557;strokeColor=#457B9D;fillColor=#A8DADC;labelBackgroundColor=#F1FAEE;" parent="1" source="YWj38hP-NuNYspanYB4l-7" target="YWj38hP-NuNYspanYB4l-3" edge="1">
          <mxGeometry relative="1" as="geometry" />
        </mxCell>
        <mxCell id="8oIvXE9zasiLZuNgN0CV-3" style="edgeStyle=orthogonalEdgeStyle;curved=0;rounded=1;sketch=1;orthogonalLoop=1;jettySize=auto;html=1;exitX=0;exitY=0.5;exitDx=0;exitDy=0;exitPerimeter=0;fontColor=#1D3557;strokeColor=#457B9D;fillColor=#A8DADC;labelBackgroundColor=#F1FAEE;" parent="1" source="YWj38hP-NuNYspanYB4l-7" target="8oIvXE9zasiLZuNgN0CV-2" edge="1">
          <mxGeometry relative="1" as="geometry" />
        </mxCell>
        <mxCell id="8oIvXE9zasiLZuNgN0CV-4" value="yes" style="edgeLabel;html=1;align=center;verticalAlign=middle;resizable=0;points=[];fontColor=#1D3557;rounded=1;labelBackgroundColor=#F1FAEE;" parent="8oIvXE9zasiLZuNgN0CV-3" vertex="1" connectable="0">
          <mxGeometry x="-0.824" relative="1" as="geometry">
            <mxPoint as="offset" />
          </mxGeometry>
        </mxCell>
        <mxCell id="YWj38hP-NuNYspanYB4l-7" value="cached?" style="strokeWidth=2;html=1;shape=mxgraph.flowchart.decision;whiteSpace=wrap;rounded=1;sketch=1;fontColor=#1D3557;fillColor=#A8DADC;strokeColor=#457B9D;" parent="1" vertex="1">
          <mxGeometry x="435" y="385" width="60" height="60" as="geometry" />
        </mxCell>
        <mxCell id="YWj38hP-NuNYspanYB4l-17" value="" style="edgeStyle=orthogonalEdgeStyle;curved=0;rounded=1;sketch=1;orthogonalLoop=1;jettySize=auto;html=1;fontColor=#1D3557;strokeColor=#457B9D;fillColor=#A8DADC;labelBackgroundColor=#F1FAEE;" parent="1" source="YWj38hP-NuNYspanYB4l-13" target="YWj38hP-NuNYspanYB4l-16" edge="1">
          <mxGeometry relative="1" as="geometry" />
        </mxCell>
        <mxCell id="YWj38hP-NuNYspanYB4l-13" value="set initial Label for Masks" style="whiteSpace=wrap;html=1;fillColor=#A8DADC;fontColor=#1D3557;strokeWidth=2;rounded=1;sketch=1;strokeColor=#457B9D;" parent="1" vertex="1">
          <mxGeometry x="405" y="645" width="120" height="60" as="geometry" />
        </mxCell>
        <mxCell id="YWj38hP-NuNYspanYB4l-15" value="&lt;div&gt;This Procedure is not accurate described.&lt;/div&gt;&lt;div&gt;Possible Options:&lt;/div&gt;&lt;div&gt;1. random initialization&lt;/div&gt;&lt;div&gt;2. nearest BBox center&lt;br&gt;&lt;/div&gt;" style="strokeWidth=2;html=1;shape=mxgraph.flowchart.annotation_2;align=left;labelPosition=right;pointerEvents=1;rounded=1;sketch=1;fontColor=#1D3557;fillColor=#A8DADC;strokeColor=#457B9D;" parent="1" vertex="1">
          <mxGeometry x="525" y="625" width="50" height="100" as="geometry" />
        </mxCell>
        <mxCell id="8oIvXE9zasiLZuNgN0CV-6" style="edgeStyle=orthogonalEdgeStyle;curved=0;rounded=1;sketch=1;orthogonalLoop=1;jettySize=auto;html=1;exitX=0.5;exitY=1;exitDx=0;exitDy=0;fontColor=#1D3557;strokeColor=#457B9D;fillColor=#A8DADC;labelBackgroundColor=#F1FAEE;" parent="1" source="YWj38hP-NuNYspanYB4l-16" edge="1">
          <mxGeometry relative="1" as="geometry">
            <mxPoint x="465" y="865" as="targetPoint" />
          </mxGeometry>
        </mxCell>
        <mxCell id="YWj38hP-NuNYspanYB4l-16" value="Cache calculated Maks" style="rounded=1;whiteSpace=wrap;html=1;fillColor=#A8DADC;fontColor=#1D3557;strokeWidth=2;sketch=1;strokeColor=#457B9D;" parent="1" vertex="1">
          <mxGeometry x="405" y="755" width="120" height="60" as="geometry" />
        </mxCell>
        <mxCell id="8oIvXE9zasiLZuNgN0CV-8" value="" style="edgeStyle=orthogonalEdgeStyle;curved=0;rounded=1;sketch=1;orthogonalLoop=1;jettySize=auto;html=1;fontColor=#1D3557;strokeColor=#457B9D;fillColor=#A8DADC;labelBackgroundColor=#F1FAEE;" parent="1" source="YWj38hP-NuNYspanYB4l-18" target="8oIvXE9zasiLZuNgN0CV-7" edge="1">
          <mxGeometry relative="1" as="geometry" />
        </mxCell>
        <mxCell id="YWj38hP-NuNYspanYB4l-18" value="MaskCandidates" style="shape=parallelogram;html=1;strokeWidth=2;perimeter=parallelogramPerimeter;whiteSpace=wrap;rounded=1;arcSize=12;size=0.23;sketch=1;fontColor=#1D3557;fillColor=#A8DADC;strokeColor=#457B9D;" parent="1" vertex="1">
          <mxGeometry x="385" y="865" width="160" height="30" as="geometry" />
        </mxCell>
        <mxCell id="8oIvXE9zasiLZuNgN0CV-5" style="edgeStyle=orthogonalEdgeStyle;curved=0;rounded=1;sketch=1;orthogonalLoop=1;jettySize=auto;html=1;exitX=0.5;exitY=1;exitDx=0;exitDy=0;fontColor=#1D3557;strokeColor=#457B9D;fillColor=#A8DADC;labelBackgroundColor=#F1FAEE;" parent="1" source="8oIvXE9zasiLZuNgN0CV-2" target="YWj38hP-NuNYspanYB4l-18" edge="1">
          <mxGeometry relative="1" as="geometry">
            <Array as="points">
              <mxPoint x="335" y="835" />
              <mxPoint x="465" y="835" />
            </Array>
          </mxGeometry>
        </mxCell>
        <mxCell id="8oIvXE9zasiLZuNgN0CV-2" value="Load cached masks" style="whiteSpace=wrap;html=1;fillColor=#A8DADC;fontColor=#1D3557;strokeWidth=2;rounded=1;sketch=1;strokeColor=#457B9D;" parent="1" vertex="1">
          <mxGeometry x="275" y="565" width="120" height="60" as="geometry" />
        </mxCell>
        <mxCell id="8oIvXE9zasiLZuNgN0CV-7" value="finish" style="strokeWidth=2;html=1;shape=mxgraph.flowchart.terminator;whiteSpace=wrap;rounded=1;sketch=1;fontColor=#1D3557;fillColor=#A8DADC;strokeColor=#457B9D;" parent="1" vertex="1">
          <mxGeometry x="425" y="925" width="80" height="40" as="geometry" />
        </mxCell>
        <mxCell id="SolkoA4AWvd-EzBRmmA2-1" value="&lt;h4&gt;PreProcess MCG&lt;/h4&gt;" style="text;html=1;align=center;verticalAlign=middle;whiteSpace=wrap;rounded=0;sketch=1;fontFamily=Lucida Console;fontSize=36;fontColor=#1D3557;" parent="1" vertex="1">
          <mxGeometry x="114" y="30" width="623" height="80" as="geometry" />
        </mxCell>
      </root>
    </mxGraphModel>
  </diagram>
  <diagram id="cJzBCdv781pxZm_VCdNR" name="CalcError">
    <mxGraphModel dx="3472" dy="1736" grid="1" gridSize="10" guides="1" tooltips="1" connect="1" arrows="1" fold="1" page="1" pageScale="1" pageWidth="827" pageHeight="1169" background="#F1FAEE" math="0" shadow="0">
      <root>
        <mxCell id="0" />
        <mxCell id="1" parent="0" />
        <mxCell id="G-wqNICQMphqn03rLYBO-2" style="edgeStyle=orthogonalEdgeStyle;rounded=0;sketch=1;orthogonalLoop=1;jettySize=auto;html=1;exitX=0.5;exitY=1;exitDx=0;exitDy=0;labelBackgroundColor=#F1FAEE;strokeColor=#457B9D;fontColor=#1D3557;entryX=0.5;entryY=0;entryDx=0;entryDy=0;curved=1;" edge="1" parent="1" source="G-wqNICQMphqn03rLYBO-3" target="G-wqNICQMphqn03rLYBO-5">
          <mxGeometry relative="1" as="geometry">
            <Array as="points" />
          </mxGeometry>
        </mxCell>
        <mxCell id="G-wqNICQMphqn03rLYBO-3" value="FCN Network" style="rounded=1;whiteSpace=wrap;html=1;absoluteArcSize=1;arcSize=14;strokeWidth=2;sketch=1;fontSize=12;fontColor=#1D3557;fillColor=#A8DADC;strokeColor=#457B9D;" vertex="1" parent="1">
          <mxGeometry x="242" y="439" width="100" height="50" as="geometry" />
        </mxCell>
        <mxCell id="G-wqNICQMphqn03rLYBO-4" style="edgeStyle=orthogonalEdgeStyle;sketch=1;orthogonalLoop=1;jettySize=auto;html=1;exitX=0.5;exitY=1;exitDx=0;exitDy=0;fontColor=#1D3557;strokeColor=#457B9D;fillColor=#A8DADC;curved=1;labelBackgroundColor=#F1FAEE;" edge="1" parent="1" source="G-wqNICQMphqn03rLYBO-5" target="G-wqNICQMphqn03rLYBO-8">
          <mxGeometry relative="1" as="geometry" />
        </mxCell>
        <mxCell id="G-wqNICQMphqn03rLYBO-5" value="Calculate Er for every Mask" style="rounded=1;whiteSpace=wrap;html=1;absoluteArcSize=1;arcSize=14;strokeWidth=2;sketch=1;fontSize=12;fontColor=#1D3557;fillColor=#A8DADC;strokeColor=#457B9D;" vertex="1" parent="1">
          <mxGeometry x="264.5" y="529" width="100" height="50" as="geometry" />
        </mxCell>
        <mxCell id="G-wqNICQMphqn03rLYBO-6" style="edgeStyle=orthogonalEdgeStyle;sketch=1;orthogonalLoop=1;jettySize=auto;html=1;exitX=0.5;exitY=1;exitDx=0;exitDy=0;fontSize=12;fontColor=#1D3557;strokeColor=#457B9D;fillColor=#A8DADC;labelBackgroundColor=#F1FAEE;curved=1;" edge="1" parent="1" source="G-wqNICQMphqn03rLYBO-7" target="G-wqNICQMphqn03rLYBO-8">
          <mxGeometry relative="1" as="geometry" />
        </mxCell>
        <mxCell id="G-wqNICQMphqn03rLYBO-7" value="Calculate Eo" style="rounded=1;whiteSpace=wrap;html=1;absoluteArcSize=1;arcSize=14;strokeWidth=2;sketch=1;fontSize=12;fontColor=#1D3557;fillColor=#A8DADC;strokeColor=#457B9D;" vertex="1" parent="1">
          <mxGeometry x="389.5" y="529" width="100" height="50" as="geometry" />
        </mxCell>
        <mxCell id="fNGkhRbo38l8LrW2-9fp-1" style="edgeStyle=orthogonalEdgeStyle;curved=1;rounded=1;sketch=1;orthogonalLoop=1;jettySize=auto;html=1;exitX=0.5;exitY=1;exitDx=0;exitDy=0;fontColor=#1D3557;strokeColor=#457B9D;fillColor=#A8DADC;labelBackgroundColor=#F1FAEE;" edge="1" parent="1" source="G-wqNICQMphqn03rLYBO-8" target="fNGkhRbo38l8LrW2-9fp-2">
          <mxGeometry relative="1" as="geometry">
            <mxPoint x="371" y="759" as="targetPoint" />
          </mxGeometry>
        </mxCell>
        <mxCell id="G-wqNICQMphqn03rLYBO-8" value="Weighted Sum" style="rounded=1;whiteSpace=wrap;html=1;absoluteArcSize=1;arcSize=14;strokeWidth=2;sketch=1;fontSize=12;fontColor=#1D3557;fillColor=#A8DADC;strokeColor=#457B9D;" vertex="1" parent="1">
          <mxGeometry x="320.75" y="659" width="100" height="50" as="geometry" />
        </mxCell>
        <mxCell id="G-wqNICQMphqn03rLYBO-9" value="" style="edgeStyle=orthogonalEdgeStyle;sketch=1;orthogonalLoop=1;jettySize=auto;html=1;shadow=0;fontSize=12;fontColor=#1D3557;strokeColor=#457B9D;fillColor=#A8DADC;labelBackgroundColor=#F1FAEE;curved=1;" edge="1" parent="1" source="G-wqNICQMphqn03rLYBO-10" target="G-wqNICQMphqn03rLYBO-7">
          <mxGeometry relative="1" as="geometry" />
        </mxCell>
        <mxCell id="G-wqNICQMphqn03rLYBO-10" value="&lt;div&gt;This is a bit difficult to understand&lt;/div&gt;&lt;div&gt;from the paper text. It Seems that this &lt;br&gt;calculation is mostly responsible for &lt;br&gt;&lt;/div&gt;&lt;div&gt;selection, instead both errors have &lt;br&gt;&lt;/div&gt;&lt;div&gt;huge impact.&lt;br&gt;&lt;/div&gt;" style="strokeWidth=2;html=1;shape=mxgraph.flowchart.annotation_2;align=left;labelPosition=right;pointerEvents=1;sketch=1;fontSize=12;fontColor=#1D3557;fillColor=#A8DADC;strokeColor=#457B9D;" vertex="1" parent="1">
          <mxGeometry x="520" y="497.25" width="50" height="113.5" as="geometry" />
        </mxCell>
        <mxCell id="7JKyBCaeGLsHXNYBWOhf-1" value="CalcError" style="text;html=1;align=center;verticalAlign=middle;whiteSpace=wrap;rounded=0;sketch=1;fontFamily=Lucida Console;fontSize=36;fontColor=#1D3557;" vertex="1" parent="1">
          <mxGeometry x="114" y="54" width="623" height="30" as="geometry" />
        </mxCell>
        <mxCell id="M7BZZSUrkt4HM4WgFccI-3" style="edgeStyle=orthogonalEdgeStyle;curved=1;rounded=1;sketch=1;orthogonalLoop=1;jettySize=auto;html=1;exitX=0.5;exitY=1;exitDx=0;exitDy=0;exitPerimeter=0;entryX=0.5;entryY=0;entryDx=0;entryDy=0;fontColor=#1D3557;strokeColor=#457B9D;fillColor=#A8DADC;labelBackgroundColor=#F1FAEE;" edge="1" parent="1" source="M7BZZSUrkt4HM4WgFccI-1" target="M7BZZSUrkt4HM4WgFccI-2">
          <mxGeometry relative="1" as="geometry" />
        </mxCell>
        <mxCell id="M7BZZSUrkt4HM4WgFccI-1" value="start CalcError" style="strokeWidth=2;html=1;shape=mxgraph.flowchart.start_1;whiteSpace=wrap;rounded=0;sketch=1;fontColor=#1D3557;fillColor=#A8DADC;strokeColor=#457B9D;" vertex="1" parent="1">
          <mxGeometry x="322" y="289" width="100" height="40" as="geometry" />
        </mxCell>
        <mxCell id="M7BZZSUrkt4HM4WgFccI-4" style="edgeStyle=orthogonalEdgeStyle;curved=1;rounded=1;sketch=1;orthogonalLoop=1;jettySize=auto;html=1;exitX=0.25;exitY=1;exitDx=0;exitDy=0;entryX=0.25;entryY=0;entryDx=0;entryDy=0;fontColor=#1D3557;strokeColor=#457B9D;fillColor=#A8DADC;labelBackgroundColor=#F1FAEE;" edge="1" parent="1" source="M7BZZSUrkt4HM4WgFccI-2" target="G-wqNICQMphqn03rLYBO-3">
          <mxGeometry relative="1" as="geometry" />
        </mxCell>
        <mxCell id="M7BZZSUrkt4HM4WgFccI-10" value="Image" style="edgeLabel;html=1;align=center;verticalAlign=middle;resizable=0;points=[];fontColor=#1D3557;labelBackgroundColor=#F1FAEE;" vertex="1" connectable="0" parent="M7BZZSUrkt4HM4WgFccI-4">
          <mxGeometry x="-0.3878" y="-5" relative="1" as="geometry">
            <mxPoint x="5" y="-10" as="offset" />
          </mxGeometry>
        </mxCell>
        <mxCell id="M7BZZSUrkt4HM4WgFccI-5" style="edgeStyle=orthogonalEdgeStyle;curved=1;rounded=1;sketch=1;orthogonalLoop=1;jettySize=auto;html=1;exitX=0.5;exitY=1;exitDx=0;exitDy=0;entryX=0.75;entryY=0;entryDx=0;entryDy=0;fontColor=#1D3557;strokeColor=#457B9D;fillColor=#A8DADC;labelBackgroundColor=#F1FAEE;" edge="1" parent="1" source="M7BZZSUrkt4HM4WgFccI-2" target="G-wqNICQMphqn03rLYBO-3">
          <mxGeometry relative="1" as="geometry" />
        </mxCell>
        <mxCell id="M7BZZSUrkt4HM4WgFccI-6" style="edgeStyle=orthogonalEdgeStyle;curved=1;rounded=1;sketch=1;orthogonalLoop=1;jettySize=auto;html=1;exitX=0.5;exitY=1;exitDx=0;exitDy=0;entryX=0.25;entryY=0;entryDx=0;entryDy=0;fontColor=#1D3557;strokeColor=#457B9D;fillColor=#A8DADC;labelBackgroundColor=#F1FAEE;" edge="1" parent="1" source="M7BZZSUrkt4HM4WgFccI-2" target="G-wqNICQMphqn03rLYBO-7">
          <mxGeometry relative="1" as="geometry" />
        </mxCell>
        <mxCell id="M7BZZSUrkt4HM4WgFccI-9" value="Masks" style="edgeLabel;html=1;align=center;verticalAlign=middle;resizable=0;points=[];fontColor=#1D3557;labelBackgroundColor=#F1FAEE;" vertex="1" connectable="0" parent="M7BZZSUrkt4HM4WgFccI-6">
          <mxGeometry x="-0.7808" y="-2" relative="1" as="geometry">
            <mxPoint as="offset" />
          </mxGeometry>
        </mxCell>
        <mxCell id="M7BZZSUrkt4HM4WgFccI-7" style="edgeStyle=orthogonalEdgeStyle;curved=1;rounded=1;sketch=1;orthogonalLoop=1;jettySize=auto;html=1;exitX=0.75;exitY=1;exitDx=0;exitDy=0;entryX=0.75;entryY=0;entryDx=0;entryDy=0;fontColor=#1D3557;strokeColor=#457B9D;fillColor=#A8DADC;labelBackgroundColor=#F1FAEE;" edge="1" parent="1" source="M7BZZSUrkt4HM4WgFccI-2" target="G-wqNICQMphqn03rLYBO-7">
          <mxGeometry relative="1" as="geometry" />
        </mxCell>
        <mxCell id="M7BZZSUrkt4HM4WgFccI-8" value="BBox" style="edgeLabel;html=1;align=center;verticalAlign=middle;resizable=0;points=[];fontColor=#1D3557;labelBackgroundColor=#F1FAEE;" vertex="1" connectable="0" parent="M7BZZSUrkt4HM4WgFccI-7">
          <mxGeometry x="-0.86" y="2" relative="1" as="geometry">
            <mxPoint as="offset" />
          </mxGeometry>
        </mxCell>
        <mxCell id="M7BZZSUrkt4HM4WgFccI-2" value="&lt;div&gt;Image, Masks,&lt;/div&gt;&lt;div&gt;BBox&lt;br&gt;&lt;/div&gt;" style="shape=parallelogram;html=1;strokeWidth=2;perimeter=parallelogramPerimeter;whiteSpace=wrap;rounded=1;arcSize=12;size=0.23;sketch=1;fontColor=#1D3557;fillColor=#A8DADC;strokeColor=#457B9D;" vertex="1" parent="1">
          <mxGeometry x="307" y="349" width="130" height="40" as="geometry" />
        </mxCell>
        <mxCell id="fNGkhRbo38l8LrW2-9fp-4" value="" style="edgeStyle=orthogonalEdgeStyle;curved=1;rounded=1;sketch=1;orthogonalLoop=1;jettySize=auto;html=1;fontColor=#1D3557;strokeColor=#457B9D;fillColor=#A8DADC;labelBackgroundColor=#F1FAEE;" edge="1" parent="1" source="fNGkhRbo38l8LrW2-9fp-2" target="fNGkhRbo38l8LrW2-9fp-3">
          <mxGeometry relative="1" as="geometry" />
        </mxCell>
        <mxCell id="fNGkhRbo38l8LrW2-9fp-2" value="Masks with ErrorSum" style="shape=parallelogram;html=1;strokeWidth=2;perimeter=parallelogramPerimeter;whiteSpace=wrap;rounded=1;arcSize=12;size=0.23;sketch=1;fontColor=#1D3557;fillColor=#A8DADC;strokeColor=#457B9D;" vertex="1" parent="1">
          <mxGeometry x="315.13" y="759" width="111.25" height="40" as="geometry" />
        </mxCell>
        <mxCell id="fNGkhRbo38l8LrW2-9fp-3" value="finish" style="strokeWidth=2;html=1;shape=mxgraph.flowchart.terminator;whiteSpace=wrap;rounded=0;sketch=1;fontColor=#1D3557;fillColor=#A8DADC;strokeColor=#457B9D;" vertex="1" parent="1">
          <mxGeometry x="325.13" y="839" width="91.25" height="40" as="geometry" />
        </mxCell>
      </root>
    </mxGraphModel>
  </diagram>
  <diagram id="Nch4QdlTfR5ZgIpFMvOw" name="CompletePaper">
    <mxGraphModel dx="1240" dy="620" grid="1" gridSize="10" guides="1" tooltips="1" connect="1" arrows="1" fold="1" page="1" pageScale="1" pageWidth="400" pageHeight="500" background="#F1FAEE" math="0" shadow="0">
      <root>
        <mxCell id="0" />
        <mxCell id="1" parent="0" />
        <mxCell id="Buu12fD2hwxKlfcYME8h-2" style="edgeStyle=orthogonalEdgeStyle;curved=0;rounded=1;sketch=0;orthogonalLoop=1;jettySize=auto;html=1;exitX=0;exitY=0.5;exitDx=0;exitDy=0;exitPerimeter=0;entryX=0.5;entryY=0;entryDx=0;entryDy=0;fontColor=#006600;strokeColor=#457B9D;fillColor=#A8DADC;" edge="1" parent="1" source="1GQ7kWAleGgcZmWeKsRq-2" target="1GQ7kWAleGgcZmWeKsRq-7">
          <mxGeometry relative="1" as="geometry" />
        </mxCell>
        <mxCell id="1GQ7kWAleGgcZmWeKsRq-2" value="Start BoxSup" style="strokeWidth=2;html=1;shape=mxgraph.flowchart.start_1;whiteSpace=wrap;sketch=1;fontColor=#1D3557;fillColor=#A8DADC;strokeColor=#457B9D;fillStyle=solid;gradientColor=none;" parent="1" vertex="1">
          <mxGeometry x="173" y="120" width="80" height="60" as="geometry" />
        </mxCell>
        <mxCell id="Buu12fD2hwxKlfcYME8h-3" style="edgeStyle=orthogonalEdgeStyle;curved=0;rounded=1;sketch=0;orthogonalLoop=1;jettySize=auto;html=1;exitX=0.5;exitY=1;exitDx=0;exitDy=0;fontColor=#006600;strokeColor=#457B9D;fillColor=#A8DADC;" edge="1" parent="1" source="1GQ7kWAleGgcZmWeKsRq-7" target="1GQ7kWAleGgcZmWeKsRq-10">
          <mxGeometry relative="1" as="geometry" />
        </mxCell>
        <mxCell id="Buu12fD2hwxKlfcYME8h-17" value="Images" style="edgeLabel;html=1;align=center;verticalAlign=middle;resizable=0;points=[];fontColor=#006600;" vertex="1" connectable="0" parent="Buu12fD2hwxKlfcYME8h-3">
          <mxGeometry x="-0.8289" relative="1" as="geometry">
            <mxPoint as="offset" />
          </mxGeometry>
        </mxCell>
        <mxCell id="Buu12fD2hwxKlfcYME8h-15" style="edgeStyle=orthogonalEdgeStyle;curved=0;rounded=1;sketch=0;orthogonalLoop=1;jettySize=auto;html=1;exitX=0.25;exitY=1;exitDx=0;exitDy=0;entryX=0.25;entryY=0;entryDx=0;entryDy=0;fontColor=#006600;strokeColor=#457B9D;fillColor=#A8DADC;" edge="1" parent="1" source="1GQ7kWAleGgcZmWeKsRq-7" target="1GQ7kWAleGgcZmWeKsRq-36">
          <mxGeometry relative="1" as="geometry">
            <Array as="points">
              <mxPoint x="38" y="248" />
              <mxPoint x="38" y="330" />
              <mxPoint x="94" y="330" />
            </Array>
          </mxGeometry>
        </mxCell>
        <mxCell id="Buu12fD2hwxKlfcYME8h-16" value="BoundingBoxes" style="edgeLabel;html=1;align=center;verticalAlign=middle;resizable=0;points=[];fontColor=#006600;rotation=-90;" vertex="1" connectable="0" parent="Buu12fD2hwxKlfcYME8h-15">
          <mxGeometry x="-0.2516" relative="1" as="geometry">
            <mxPoint y="13" as="offset" />
          </mxGeometry>
        </mxCell>
        <mxCell id="Buu12fD2hwxKlfcYME8h-18" style="edgeStyle=orthogonalEdgeStyle;curved=0;rounded=1;sketch=0;orthogonalLoop=1;jettySize=auto;html=1;exitX=0;exitY=0.5;exitDx=0;exitDy=0;entryX=0;entryY=0.5;entryDx=0;entryDy=0;fontColor=#006600;strokeColor=#457B9D;fillColor=#A8DADC;" edge="1" parent="1" source="1GQ7kWAleGgcZmWeKsRq-7" target="1GQ7kWAleGgcZmWeKsRq-15">
          <mxGeometry relative="1" as="geometry">
            <Array as="points">
              <mxPoint x="13" y="217" />
              <mxPoint x="13" y="440" />
              <mxPoint x="183" y="440" />
              <mxPoint x="183" y="321" />
            </Array>
          </mxGeometry>
        </mxCell>
        <mxCell id="Buu12fD2hwxKlfcYME8h-20" value="&lt;div&gt;Images&lt;/div&gt;" style="edgeLabel;html=1;align=center;verticalAlign=middle;resizable=0;points=[];fontColor=#006600;" vertex="1" connectable="0" parent="Buu12fD2hwxKlfcYME8h-18">
          <mxGeometry x="0.1231" y="-1" relative="1" as="geometry">
            <mxPoint x="27" y="-1" as="offset" />
          </mxGeometry>
        </mxCell>
        <mxCell id="1GQ7kWAleGgcZmWeKsRq-7" value="&lt;div&gt;Images&lt;br&gt;with&lt;br&gt;GT-BBoxes&lt;/div&gt;" style="shape=parallelogram;html=1;strokeWidth=2;perimeter=parallelogramPerimeter;whiteSpace=wrap;rounded=1;arcSize=12;size=0.23;sketch=1;fontColor=#1D3557;fillColor=#A8DADC;rotation=0;strokeColor=#457B9D;fillStyle=solid;" parent="1" vertex="1">
          <mxGeometry x="58" y="187.41" width="107.56" height="60.07" as="geometry" />
        </mxCell>
        <mxCell id="Buu12fD2hwxKlfcYME8h-5" style="edgeStyle=orthogonalEdgeStyle;curved=0;rounded=1;sketch=0;orthogonalLoop=1;jettySize=auto;html=1;exitX=0.5;exitY=1;exitDx=0;exitDy=0;entryX=0.5;entryY=0;entryDx=0;entryDy=0;fontColor=#006600;strokeColor=#457B9D;fillColor=#A8DADC;" edge="1" parent="1" source="1GQ7kWAleGgcZmWeKsRq-10" target="1GQ7kWAleGgcZmWeKsRq-36">
          <mxGeometry relative="1" as="geometry" />
        </mxCell>
        <mxCell id="1GQ7kWAleGgcZmWeKsRq-10" value="PreProcess MCG" style="rounded=1;whiteSpace=wrap;html=1;absoluteArcSize=1;arcSize=14;strokeWidth=2;sketch=1;fontColor=#1D3557;fillColor=#A8DADC;strokeColor=#457B9D;fillStyle=solid;" parent="1" vertex="1">
          <mxGeometry x="61.78" y="270.00000000000006" width="100" height="50" as="geometry" />
        </mxCell>
        <mxCell id="Buu12fD2hwxKlfcYME8h-11" style="edgeStyle=orthogonalEdgeStyle;curved=0;rounded=1;sketch=0;orthogonalLoop=1;jettySize=auto;html=1;exitX=0.5;exitY=1;exitDx=0;exitDy=0;fontColor=#006600;strokeColor=#457B9D;fillColor=#A8DADC;" edge="1" parent="1" source="1GQ7kWAleGgcZmWeKsRq-13" target="1GQ7kWAleGgcZmWeKsRq-15">
          <mxGeometry relative="1" as="geometry" />
        </mxCell>
        <mxCell id="Buu12fD2hwxKlfcYME8h-19" style="edgeStyle=orthogonalEdgeStyle;curved=0;rounded=1;sketch=0;orthogonalLoop=1;jettySize=auto;html=1;fontColor=#006600;strokeColor=#457B9D;fillColor=#A8DADC;entryX=0;entryY=0.5;entryDx=0;entryDy=0;" edge="1" parent="1" target="1GQ7kWAleGgcZmWeKsRq-13">
          <mxGeometry relative="1" as="geometry">
            <mxPoint x="218" y="250" as="targetPoint" />
            <mxPoint x="183" y="330" as="sourcePoint" />
            <Array as="points">
              <mxPoint x="183" y="360" />
              <mxPoint x="183" y="260" />
            </Array>
          </mxGeometry>
        </mxCell>
        <mxCell id="1GQ7kWAleGgcZmWeKsRq-13" value="Update Masks" style="rounded=1;whiteSpace=wrap;html=1;absoluteArcSize=1;arcSize=14;strokeWidth=2;sketch=1;fontColor=#006600;fillColor=#66FF66;strokeColor=#009900;fillStyle=solid;" parent="1" vertex="1">
          <mxGeometry x="268" y="240" width="108" height="40.25" as="geometry" />
        </mxCell>
        <mxCell id="Buu12fD2hwxKlfcYME8h-10" style="edgeStyle=orthogonalEdgeStyle;curved=0;rounded=1;sketch=0;orthogonalLoop=1;jettySize=auto;html=1;exitX=0.5;exitY=1;exitDx=0;exitDy=0;fontColor=#006600;strokeColor=#457B9D;fillColor=#A8DADC;" edge="1" parent="1" source="1GQ7kWAleGgcZmWeKsRq-15" target="1GQ7kWAleGgcZmWeKsRq-20">
          <mxGeometry relative="1" as="geometry" />
        </mxCell>
        <mxCell id="1GQ7kWAleGgcZmWeKsRq-15" value="Update Net" style="rounded=1;whiteSpace=wrap;html=1;absoluteArcSize=1;arcSize=14;strokeWidth=2;sketch=1;fontColor=#990000;fillColor=#FF8000;strokeColor=#990000;fillStyle=solid;" parent="1" vertex="1">
          <mxGeometry x="272" y="301" width="100" height="40" as="geometry" />
        </mxCell>
        <mxCell id="Buu12fD2hwxKlfcYME8h-7" style="edgeStyle=orthogonalEdgeStyle;curved=0;rounded=1;sketch=0;orthogonalLoop=1;jettySize=auto;html=1;exitX=0;exitY=0.5;exitDx=0;exitDy=0;exitPerimeter=0;entryX=0.5;entryY=0;entryDx=0;entryDy=0;entryPerimeter=0;fontColor=#006600;strokeColor=#457B9D;fillColor=#A8DADC;" edge="1" parent="1" source="1GQ7kWAleGgcZmWeKsRq-20" target="1GQ7kWAleGgcZmWeKsRq-21">
          <mxGeometry relative="1" as="geometry" />
        </mxCell>
        <mxCell id="Buu12fD2hwxKlfcYME8h-13" value="yes" style="edgeLabel;html=1;align=center;verticalAlign=middle;resizable=0;points=[];fontColor=#006600;" vertex="1" connectable="0" parent="Buu12fD2hwxKlfcYME8h-7">
          <mxGeometry x="-0.6393" y="1" relative="1" as="geometry">
            <mxPoint as="offset" />
          </mxGeometry>
        </mxCell>
        <mxCell id="Buu12fD2hwxKlfcYME8h-8" style="edgeStyle=orthogonalEdgeStyle;curved=0;rounded=1;sketch=0;orthogonalLoop=1;jettySize=auto;html=1;exitX=1;exitY=0.5;exitDx=0;exitDy=0;exitPerimeter=0;entryX=1;entryY=0.5;entryDx=0;entryDy=0;fontColor=#006600;strokeColor=#457B9D;fillColor=#A8DADC;" edge="1" parent="1" source="1GQ7kWAleGgcZmWeKsRq-20" target="1GQ7kWAleGgcZmWeKsRq-13">
          <mxGeometry relative="1" as="geometry">
            <Array as="points">
              <mxPoint x="388" y="390" />
              <mxPoint x="388" y="260" />
            </Array>
          </mxGeometry>
        </mxCell>
        <mxCell id="Buu12fD2hwxKlfcYME8h-14" value="no" style="edgeLabel;html=1;align=center;verticalAlign=middle;resizable=0;points=[];fontColor=#006600;" vertex="1" connectable="0" parent="Buu12fD2hwxKlfcYME8h-8">
          <mxGeometry x="-0.8574" y="-1" relative="1" as="geometry">
            <mxPoint as="offset" />
          </mxGeometry>
        </mxCell>
        <mxCell id="1GQ7kWAleGgcZmWeKsRq-20" value="Satisfied?" style="strokeWidth=2;html=1;shape=mxgraph.flowchart.decision;whiteSpace=wrap;sketch=1;fontColor=#1D3557;fillColor=#A8DADC;strokeColor=#457B9D;fillStyle=solid;" parent="1" vertex="1">
          <mxGeometry x="289.5" y="360" width="65" height="59.93" as="geometry" />
        </mxCell>
        <mxCell id="1GQ7kWAleGgcZmWeKsRq-21" value="finish" style="strokeWidth=2;html=1;shape=mxgraph.flowchart.terminator;whiteSpace=wrap;sketch=1;fontColor=#1D3557;fillColor=#A8DADC;strokeColor=#457B9D;fillStyle=solid;" parent="1" vertex="1">
          <mxGeometry x="182" y="440" width="62" height="44.83" as="geometry" />
        </mxCell>
        <mxCell id="1GQ7kWAleGgcZmWeKsRq-34" value="BoxSup Algorithm" style="text;html=1;align=center;verticalAlign=middle;whiteSpace=wrap;rounded=0;sketch=1;fontFamily=Lucida Console;fontSize=36;fontColor=#1D3557;" parent="1" vertex="1">
          <mxGeometry x="90" y="20" width="247" height="80" as="geometry" />
        </mxCell>
        <mxCell id="Buu12fD2hwxKlfcYME8h-9" style="edgeStyle=orthogonalEdgeStyle;curved=0;rounded=1;sketch=0;orthogonalLoop=1;jettySize=auto;html=1;exitX=0.5;exitY=1;exitDx=0;exitDy=0;entryX=0.5;entryY=0;entryDx=0;entryDy=0;fontColor=#006600;strokeColor=#457B9D;fillColor=#A8DADC;" edge="1" parent="1" source="1GQ7kWAleGgcZmWeKsRq-36" target="1GQ7kWAleGgcZmWeKsRq-13">
          <mxGeometry relative="1" as="geometry">
            <Array as="points">
              <mxPoint x="112" y="420" />
              <mxPoint x="173" y="420" />
              <mxPoint x="173" y="220" />
              <mxPoint x="322" y="220" />
            </Array>
          </mxGeometry>
        </mxCell>
        <mxCell id="Buu12fD2hwxKlfcYME8h-12" value="Candidate Masks" style="edgeLabel;html=1;align=center;verticalAlign=middle;resizable=0;points=[];fontColor=#006600;" vertex="1" connectable="0" parent="Buu12fD2hwxKlfcYME8h-9">
          <mxGeometry x="-0.795" y="-1" relative="1" as="geometry">
            <mxPoint x="-26" y="-1" as="offset" />
          </mxGeometry>
        </mxCell>
        <mxCell id="1GQ7kWAleGgcZmWeKsRq-36" value="Calculate IoU" style="rounded=1;whiteSpace=wrap;html=1;absoluteArcSize=1;arcSize=14;strokeWidth=2;sketch=1;fontColor=#1D3557;fillColor=#A8DADC;strokeColor=#457B9D;fillStyle=solid;" parent="1" vertex="1">
          <mxGeometry x="76.77999999999997" y="350" width="70" height="50" as="geometry" />
        </mxCell>
      </root>
    </mxGraphModel>
  </diagram>
  <diagram id="2fgOLz3XUjzhVZj7MOqr" name="Validation">
    <mxGraphModel dx="2068" dy="1146" grid="1" gridSize="10" guides="1" tooltips="1" connect="1" arrows="1" fold="1" page="1" pageScale="1" pageWidth="850" pageHeight="1100" math="0" shadow="0">
      <root>
        <mxCell id="0" />
        <mxCell id="1" parent="0" />
        <mxCell id="xJa3dqRCuZN_FZyqL8P8-4" style="edgeStyle=orthogonalEdgeStyle;rounded=0;orthogonalLoop=1;jettySize=auto;html=1;" parent="1" source="OuYyEne4kG3OGcafhdiq-1" edge="1">
          <mxGeometry relative="1" as="geometry">
            <mxPoint x="135" y="340" as="targetPoint" />
          </mxGeometry>
        </mxCell>
        <mxCell id="xJa3dqRCuZN_FZyqL8P8-8" style="edgeStyle=orthogonalEdgeStyle;rounded=0;orthogonalLoop=1;jettySize=auto;html=1;exitX=0.75;exitY=1;exitDx=0;exitDy=0;fontSize=6;dashed=1;" parent="1" source="OuYyEne4kG3OGcafhdiq-1" target="xJa3dqRCuZN_FZyqL8P8-13" edge="1">
          <mxGeometry relative="1" as="geometry">
            <mxPoint x="155" y="240" as="targetPoint" />
          </mxGeometry>
        </mxCell>
        <mxCell id="OuYyEne4kG3OGcafhdiq-1" value="Update Mask" style="whiteSpace=wrap;html=1;aspect=fixed;" parent="1" vertex="1">
          <mxGeometry x="95" y="120" width="80" height="80" as="geometry" />
        </mxCell>
        <mxCell id="xJa3dqRCuZN_FZyqL8P8-3" style="edgeStyle=orthogonalEdgeStyle;rounded=0;orthogonalLoop=1;jettySize=auto;html=1;entryX=0.5;entryY=0;entryDx=0;entryDy=0;" parent="1" source="OuYyEne4kG3OGcafhdiq-2" target="xJa3dqRCuZN_FZyqL8P8-1" edge="1">
          <mxGeometry relative="1" as="geometry" />
        </mxCell>
        <mxCell id="OuYyEne4kG3OGcafhdiq-2" value="&lt;div&gt;Update Network&lt;/div&gt;" style="whiteSpace=wrap;html=1;aspect=fixed;" parent="1" vertex="1">
          <mxGeometry x="95" y="360" width="80" height="80" as="geometry" />
        </mxCell>
        <mxCell id="xJa3dqRCuZN_FZyqL8P8-2" style="edgeStyle=orthogonalEdgeStyle;rounded=0;orthogonalLoop=1;jettySize=auto;html=1;entryX=0.5;entryY=0;entryDx=0;entryDy=0;exitX=1;exitY=0.5;exitDx=0;exitDy=0;" parent="1" source="xJa3dqRCuZN_FZyqL8P8-1" target="OuYyEne4kG3OGcafhdiq-2" edge="1">
          <mxGeometry relative="1" as="geometry">
            <Array as="points">
              <mxPoint x="195" y="520" />
              <mxPoint x="195" y="340" />
              <mxPoint x="135" y="340" />
            </Array>
          </mxGeometry>
        </mxCell>
        <mxCell id="xJa3dqRCuZN_FZyqL8P8-6" value="" style="edgeStyle=orthogonalEdgeStyle;rounded=0;orthogonalLoop=1;jettySize=auto;html=1;fontSize=6;" parent="1" source="xJa3dqRCuZN_FZyqL8P8-1" target="xJa3dqRCuZN_FZyqL8P8-5" edge="1">
          <mxGeometry relative="1" as="geometry" />
        </mxCell>
        <mxCell id="xJa3dqRCuZN_FZyqL8P8-1" value="&lt;font style=&quot;font-size: 6px;&quot;&gt;epoch&amp;gt;80&lt;/font&gt;" style="rhombus;whiteSpace=wrap;html=1;" parent="1" vertex="1">
          <mxGeometry x="95" y="480" width="80" height="80" as="geometry" />
        </mxCell>
        <mxCell id="xJa3dqRCuZN_FZyqL8P8-7" style="edgeStyle=orthogonalEdgeStyle;rounded=0;orthogonalLoop=1;jettySize=auto;html=1;entryX=0.5;entryY=0;entryDx=0;entryDy=0;fontSize=6;exitX=0;exitY=0.5;exitDx=0;exitDy=0;" parent="1" source="xJa3dqRCuZN_FZyqL8P8-5" target="OuYyEne4kG3OGcafhdiq-1" edge="1">
          <mxGeometry relative="1" as="geometry">
            <Array as="points">
              <mxPoint x="20" y="630" />
              <mxPoint x="20" y="100" />
              <mxPoint x="135" y="100" />
            </Array>
          </mxGeometry>
        </mxCell>
        <mxCell id="xJa3dqRCuZN_FZyqL8P8-82" value="" style="edgeStyle=orthogonalEdgeStyle;rounded=0;orthogonalLoop=1;jettySize=auto;html=1;fontSize=10;" parent="1" source="xJa3dqRCuZN_FZyqL8P8-5" target="xJa3dqRCuZN_FZyqL8P8-80" edge="1">
          <mxGeometry relative="1" as="geometry" />
        </mxCell>
        <mxCell id="xJa3dqRCuZN_FZyqL8P8-5" value="&lt;font style=&quot;font-size: 6px;&quot;&gt;updateloop&amp;gt;20&lt;/font&gt;" style="rhombus;whiteSpace=wrap;html=1;" parent="1" vertex="1">
          <mxGeometry x="95" y="590" width="80" height="80" as="geometry" />
        </mxCell>
        <mxCell id="xJa3dqRCuZN_FZyqL8P8-12" style="edgeStyle=orthogonalEdgeStyle;rounded=0;orthogonalLoop=1;jettySize=auto;html=1;entryX=0.75;entryY=0;entryDx=0;entryDy=0;dashed=1;fontSize=10;" parent="1" source="xJa3dqRCuZN_FZyqL8P8-11" target="OuYyEne4kG3OGcafhdiq-1" edge="1">
          <mxGeometry relative="1" as="geometry">
            <Array as="points">
              <mxPoint x="303" y="100" />
              <mxPoint x="155" y="100" />
            </Array>
          </mxGeometry>
        </mxCell>
        <mxCell id="xJa3dqRCuZN_FZyqL8P8-15" style="edgeStyle=orthogonalEdgeStyle;rounded=0;orthogonalLoop=1;jettySize=auto;html=1;entryX=0.5;entryY=0;entryDx=0;entryDy=0;dashed=1;fontSize=10;" parent="1" source="xJa3dqRCuZN_FZyqL8P8-11" target="xJa3dqRCuZN_FZyqL8P8-13" edge="1">
          <mxGeometry relative="1" as="geometry" />
        </mxCell>
        <mxCell id="xJa3dqRCuZN_FZyqL8P8-11" value="&lt;font style=&quot;font-size: 10px;&quot;&gt;train [image, gt_bbox, candidates]&lt;/font&gt;" style="shape=parallelogram;perimeter=parallelogramPerimeter;whiteSpace=wrap;html=1;fixedSize=1;fontSize=6;" parent="1" vertex="1">
          <mxGeometry x="230" y="20" width="145" height="60" as="geometry" />
        </mxCell>
        <mxCell id="xJa3dqRCuZN_FZyqL8P8-16" style="edgeStyle=orthogonalEdgeStyle;rounded=0;orthogonalLoop=1;jettySize=auto;html=1;entryX=0.75;entryY=0;entryDx=0;entryDy=0;dashed=1;fontSize=10;" parent="1" source="xJa3dqRCuZN_FZyqL8P8-13" target="OuYyEne4kG3OGcafhdiq-2" edge="1">
          <mxGeometry relative="1" as="geometry">
            <Array as="points">
              <mxPoint x="303" y="320" />
              <mxPoint x="155" y="320" />
            </Array>
          </mxGeometry>
        </mxCell>
        <mxCell id="xJa3dqRCuZN_FZyqL8P8-13" value="&lt;font style=&quot;font-size: 10px;&quot;&gt;train [image, gt_pseudo, gt_mask]&lt;/font&gt;" style="shape=parallelogram;perimeter=parallelogramPerimeter;whiteSpace=wrap;html=1;fixedSize=1;fontSize=6;" parent="1" vertex="1">
          <mxGeometry x="230" y="240" width="145" height="60" as="geometry" />
        </mxCell>
        <mxCell id="xJa3dqRCuZN_FZyqL8P8-17" style="edgeStyle=orthogonalEdgeStyle;rounded=0;orthogonalLoop=1;jettySize=auto;html=1;entryX=0.75;entryY=0;entryDx=0;entryDy=0;dashed=1;fontSize=10;" parent="1" source="xJa3dqRCuZN_FZyqL8P8-14" target="OuYyEne4kG3OGcafhdiq-2" edge="1">
          <mxGeometry relative="1" as="geometry">
            <Array as="points">
              <mxPoint x="447" y="320" />
              <mxPoint x="155" y="320" />
            </Array>
          </mxGeometry>
        </mxCell>
        <mxCell id="xJa3dqRCuZN_FZyqL8P8-14" value="&lt;font style=&quot;font-size: 10px;&quot;&gt;val [image, gt_mask]&lt;/font&gt;" style="shape=parallelogram;perimeter=parallelogramPerimeter;whiteSpace=wrap;html=1;fixedSize=1;fontSize=6;" parent="1" vertex="1">
          <mxGeometry x="375" y="240" width="145" height="60" as="geometry" />
        </mxCell>
        <mxCell id="xJa3dqRCuZN_FZyqL8P8-22" value="Update Network" style="text;html=1;strokeColor=none;fillColor=none;align=center;verticalAlign=middle;whiteSpace=wrap;rounded=0;fontSize=10;" parent="1" vertex="1">
          <mxGeometry x="230" y="330" width="100" height="30" as="geometry" />
        </mxCell>
        <mxCell id="xJa3dqRCuZN_FZyqL8P8-29" value="" style="rounded=0;whiteSpace=wrap;html=1;fontSize=10;" parent="1" vertex="1">
          <mxGeometry x="240" y="360" width="600" height="720" as="geometry" />
        </mxCell>
        <mxCell id="xJa3dqRCuZN_FZyqL8P8-33" style="edgeStyle=orthogonalEdgeStyle;rounded=0;orthogonalLoop=1;jettySize=auto;html=1;dashed=1;fontSize=10;entryX=0.251;entryY=0.017;entryDx=0;entryDy=0;entryPerimeter=0;" parent="1" source="xJa3dqRCuZN_FZyqL8P8-30" target="xJa3dqRCuZN_FZyqL8P8-32" edge="1">
          <mxGeometry relative="1" as="geometry">
            <Array as="points">
              <mxPoint x="370" y="470" />
              <mxPoint x="405" y="470" />
            </Array>
          </mxGeometry>
        </mxCell>
        <mxCell id="xJa3dqRCuZN_FZyqL8P8-34" value="image" style="edgeLabel;html=1;align=center;verticalAlign=middle;resizable=0;points=[];fontSize=10;" parent="xJa3dqRCuZN_FZyqL8P8-33" vertex="1" connectable="0">
          <mxGeometry x="-0.2857" y="-1" relative="1" as="geometry">
            <mxPoint x="21" y="31" as="offset" />
          </mxGeometry>
        </mxCell>
        <mxCell id="xJa3dqRCuZN_FZyqL8P8-42" style="edgeStyle=orthogonalEdgeStyle;rounded=0;orthogonalLoop=1;jettySize=auto;html=1;exitX=0.5;exitY=1;exitDx=0;exitDy=0;entryX=0;entryY=0.5;entryDx=0;entryDy=0;dashed=1;fontSize=10;" parent="1" source="xJa3dqRCuZN_FZyqL8P8-30" target="xJa3dqRCuZN_FZyqL8P8-40" edge="1">
          <mxGeometry relative="1" as="geometry">
            <Array as="points">
              <mxPoint x="370" y="390" />
              <mxPoint x="370" y="410" />
              <mxPoint x="290" y="410" />
              <mxPoint x="290" y="620" />
            </Array>
          </mxGeometry>
        </mxCell>
        <mxCell id="xJa3dqRCuZN_FZyqL8P8-45" value="gt_pseudo" style="edgeLabel;html=1;align=center;verticalAlign=middle;resizable=0;points=[];fontSize=10;" parent="xJa3dqRCuZN_FZyqL8P8-42" vertex="1" connectable="0">
          <mxGeometry x="-0.14" y="-2" relative="1" as="geometry">
            <mxPoint x="42" y="-33" as="offset" />
          </mxGeometry>
        </mxCell>
        <mxCell id="xJa3dqRCuZN_FZyqL8P8-49" style="edgeStyle=orthogonalEdgeStyle;rounded=0;orthogonalLoop=1;jettySize=auto;html=1;exitX=0.25;exitY=1;exitDx=0;exitDy=0;entryX=0;entryY=0.5;entryDx=0;entryDy=0;fontSize=10;dashed=1;" parent="1" source="xJa3dqRCuZN_FZyqL8P8-30" target="xJa3dqRCuZN_FZyqL8P8-48" edge="1">
          <mxGeometry relative="1" as="geometry">
            <Array as="points">
              <mxPoint x="370" y="390" />
              <mxPoint x="370" y="400" />
              <mxPoint x="270" y="400" />
              <mxPoint x="270" y="800" />
            </Array>
          </mxGeometry>
        </mxCell>
        <mxCell id="xJa3dqRCuZN_FZyqL8P8-50" value="gt_mask" style="edgeLabel;html=1;align=center;verticalAlign=middle;resizable=0;points=[];fontSize=10;" parent="xJa3dqRCuZN_FZyqL8P8-49" vertex="1" connectable="0">
          <mxGeometry x="-0.1027" y="-1" relative="1" as="geometry">
            <mxPoint x="51" y="-151" as="offset" />
          </mxGeometry>
        </mxCell>
        <mxCell id="xJa3dqRCuZN_FZyqL8P8-30" value="&lt;font style=&quot;font-size: 10px;&quot;&gt;train [image, gt_pseudo, gt_mask]&lt;/font&gt;" style="shape=parallelogram;perimeter=parallelogramPerimeter;whiteSpace=wrap;html=1;fixedSize=1;fontSize=10;" parent="1" vertex="1">
          <mxGeometry x="360" y="330" width="150" height="60" as="geometry" />
        </mxCell>
        <mxCell id="xJa3dqRCuZN_FZyqL8P8-68" style="edgeStyle=orthogonalEdgeStyle;rounded=0;orthogonalLoop=1;jettySize=auto;html=1;exitX=0.25;exitY=1;exitDx=0;exitDy=0;entryX=0.75;entryY=0;entryDx=0;entryDy=0;fontSize=10;dashed=1;" parent="1" source="xJa3dqRCuZN_FZyqL8P8-31" target="xJa3dqRCuZN_FZyqL8P8-32" edge="1">
          <mxGeometry relative="1" as="geometry">
            <Array as="points">
              <mxPoint x="596" y="410" />
              <mxPoint x="510" y="410" />
              <mxPoint x="510" y="470" />
              <mxPoint x="465" y="470" />
            </Array>
          </mxGeometry>
        </mxCell>
        <mxCell id="xJa3dqRCuZN_FZyqL8P8-69" value="image" style="edgeLabel;html=1;align=center;verticalAlign=middle;resizable=0;points=[];fontSize=10;" parent="xJa3dqRCuZN_FZyqL8P8-68" vertex="1" connectable="0">
          <mxGeometry x="0.8065" relative="1" as="geometry">
            <mxPoint x="23" as="offset" />
          </mxGeometry>
        </mxCell>
        <mxCell id="xJa3dqRCuZN_FZyqL8P8-71" style="edgeStyle=orthogonalEdgeStyle;rounded=0;orthogonalLoop=1;jettySize=auto;html=1;entryX=1;entryY=0.5;entryDx=0;entryDy=0;dashed=1;fontSize=10;" parent="1" source="xJa3dqRCuZN_FZyqL8P8-31" target="xJa3dqRCuZN_FZyqL8P8-62" edge="1">
          <mxGeometry relative="1" as="geometry">
            <Array as="points">
              <mxPoint x="633" y="410" />
              <mxPoint x="725" y="410" />
              <mxPoint x="725" y="600" />
            </Array>
          </mxGeometry>
        </mxCell>
        <mxCell id="xJa3dqRCuZN_FZyqL8P8-72" value="gt_mask" style="edgeLabel;html=1;align=center;verticalAlign=middle;resizable=0;points=[];fontSize=10;" parent="xJa3dqRCuZN_FZyqL8P8-71" vertex="1" connectable="0">
          <mxGeometry x="0.2999" relative="1" as="geometry">
            <mxPoint as="offset" />
          </mxGeometry>
        </mxCell>
        <mxCell id="xJa3dqRCuZN_FZyqL8P8-31" value="&lt;font style=&quot;font-size: 10px;&quot;&gt;val [image, gt_mask]&lt;/font&gt;" style="shape=parallelogram;perimeter=parallelogramPerimeter;whiteSpace=wrap;html=1;fixedSize=1;fontSize=6;" parent="1" vertex="1">
          <mxGeometry x="560" y="330" width="145" height="60" as="geometry" />
        </mxCell>
        <mxCell id="xJa3dqRCuZN_FZyqL8P8-44" style="edgeStyle=orthogonalEdgeStyle;rounded=0;orthogonalLoop=1;jettySize=auto;html=1;entryX=0.25;entryY=0;entryDx=0;entryDy=0;dashed=1;fontSize=10;exitX=0.243;exitY=1.056;exitDx=0;exitDy=0;exitPerimeter=0;" parent="1" source="xJa3dqRCuZN_FZyqL8P8-32" target="xJa3dqRCuZN_FZyqL8P8-40" edge="1">
          <mxGeometry relative="1" as="geometry" />
        </mxCell>
        <mxCell id="xJa3dqRCuZN_FZyqL8P8-51" style="edgeStyle=orthogonalEdgeStyle;rounded=0;orthogonalLoop=1;jettySize=auto;html=1;exitX=0.25;exitY=1;exitDx=0;exitDy=0;entryX=0.75;entryY=0;entryDx=0;entryDy=0;dashed=1;fontSize=10;" parent="1" source="xJa3dqRCuZN_FZyqL8P8-32" target="xJa3dqRCuZN_FZyqL8P8-48" edge="1">
          <mxGeometry relative="1" as="geometry">
            <Array as="points">
              <mxPoint x="405" y="570" />
              <mxPoint x="510" y="570" />
              <mxPoint x="510" y="740" />
              <mxPoint x="465" y="740" />
            </Array>
          </mxGeometry>
        </mxCell>
        <mxCell id="xJa3dqRCuZN_FZyqL8P8-70" style="edgeStyle=orthogonalEdgeStyle;rounded=0;orthogonalLoop=1;jettySize=auto;html=1;entryX=0.25;entryY=0;entryDx=0;entryDy=0;dashed=1;fontSize=10;" parent="1" source="xJa3dqRCuZN_FZyqL8P8-32" target="xJa3dqRCuZN_FZyqL8P8-62" edge="1">
          <mxGeometry relative="1" as="geometry" />
        </mxCell>
        <mxCell id="xJa3dqRCuZN_FZyqL8P8-32" value="Evaluate Network" style="rounded=0;whiteSpace=wrap;html=1;fontSize=10;" parent="1" vertex="1">
          <mxGeometry x="375" y="490" width="120" height="60" as="geometry" />
        </mxCell>
        <mxCell id="xJa3dqRCuZN_FZyqL8P8-54" style="edgeStyle=orthogonalEdgeStyle;rounded=0;orthogonalLoop=1;jettySize=auto;html=1;fontSize=10;" parent="1" source="xJa3dqRCuZN_FZyqL8P8-40" target="xJa3dqRCuZN_FZyqL8P8-53" edge="1">
          <mxGeometry relative="1" as="geometry" />
        </mxCell>
        <mxCell id="xJa3dqRCuZN_FZyqL8P8-40" value="gt_pseudo&lt;br&gt;train loss /train accuracy" style="rounded=0;whiteSpace=wrap;html=1;fontSize=10;" parent="1" vertex="1">
          <mxGeometry x="375" y="590" width="120" height="60" as="geometry" />
        </mxCell>
        <mxCell id="xJa3dqRCuZN_FZyqL8P8-60" value="" style="edgeStyle=orthogonalEdgeStyle;rounded=0;orthogonalLoop=1;jettySize=auto;html=1;fontSize=10;" parent="1" source="xJa3dqRCuZN_FZyqL8P8-48" target="xJa3dqRCuZN_FZyqL8P8-59" edge="1">
          <mxGeometry relative="1" as="geometry" />
        </mxCell>
        <mxCell id="xJa3dqRCuZN_FZyqL8P8-48" value="gt_mask&lt;br&gt;train loss /train accuracy" style="rounded=0;whiteSpace=wrap;html=1;fontSize=10;" parent="1" vertex="1">
          <mxGeometry x="375" y="770" width="120" height="60" as="geometry" />
        </mxCell>
        <mxCell id="xJa3dqRCuZN_FZyqL8P8-55" value="" style="edgeStyle=orthogonalEdgeStyle;rounded=0;orthogonalLoop=1;jettySize=auto;html=1;fontSize=10;" parent="1" source="xJa3dqRCuZN_FZyqL8P8-53" target="xJa3dqRCuZN_FZyqL8P8-48" edge="1">
          <mxGeometry relative="1" as="geometry" />
        </mxCell>
        <mxCell id="xJa3dqRCuZN_FZyqL8P8-58" style="edgeStyle=orthogonalEdgeStyle;rounded=0;orthogonalLoop=1;jettySize=auto;html=1;exitX=0;exitY=0.5;exitDx=0;exitDy=0;entryX=0;entryY=0.5;entryDx=0;entryDy=0;fontSize=10;" parent="1" source="xJa3dqRCuZN_FZyqL8P8-53" target="xJa3dqRCuZN_FZyqL8P8-57" edge="1">
          <mxGeometry relative="1" as="geometry">
            <Array as="points">
              <mxPoint x="340" y="710" />
              <mxPoint x="340" y="970" />
            </Array>
          </mxGeometry>
        </mxCell>
        <mxCell id="xJa3dqRCuZN_FZyqL8P8-53" value="epoch%10==0" style="rhombus;whiteSpace=wrap;html=1;fontSize=10;" parent="1" vertex="1">
          <mxGeometry x="395" y="670" width="80" height="80" as="geometry" />
        </mxCell>
        <mxCell id="xJa3dqRCuZN_FZyqL8P8-64" style="edgeStyle=orthogonalEdgeStyle;rounded=0;orthogonalLoop=1;jettySize=auto;html=1;exitX=0.5;exitY=1;exitDx=0;exitDy=0;entryX=0.5;entryY=0;entryDx=0;entryDy=0;fontSize=10;" parent="1" source="xJa3dqRCuZN_FZyqL8P8-57" target="xJa3dqRCuZN_FZyqL8P8-63" edge="1">
          <mxGeometry relative="1" as="geometry">
            <Array as="points">
              <mxPoint x="435" y="1020" />
              <mxPoint x="530" y="1020" />
              <mxPoint x="530" y="440" />
              <mxPoint x="633" y="440" />
            </Array>
          </mxGeometry>
        </mxCell>
        <mxCell id="xJa3dqRCuZN_FZyqL8P8-57" value="Plot gt_pseudo loss/accuracy" style="rounded=0;whiteSpace=wrap;html=1;fontSize=10;" parent="1" vertex="1">
          <mxGeometry x="375" y="940" width="120" height="60" as="geometry" />
        </mxCell>
        <mxCell id="xJa3dqRCuZN_FZyqL8P8-61" value="" style="edgeStyle=orthogonalEdgeStyle;rounded=0;orthogonalLoop=1;jettySize=auto;html=1;fontSize=10;" parent="1" source="xJa3dqRCuZN_FZyqL8P8-59" target="xJa3dqRCuZN_FZyqL8P8-57" edge="1">
          <mxGeometry relative="1" as="geometry" />
        </mxCell>
        <mxCell id="xJa3dqRCuZN_FZyqL8P8-59" value="Plot gt_mask loss/accuracy" style="rounded=0;whiteSpace=wrap;html=1;fontSize=10;" parent="1" vertex="1">
          <mxGeometry x="375" y="850" width="120" height="60" as="geometry" />
        </mxCell>
        <mxCell id="xJa3dqRCuZN_FZyqL8P8-67" value="" style="edgeStyle=orthogonalEdgeStyle;rounded=0;orthogonalLoop=1;jettySize=auto;html=1;fontSize=10;" parent="1" source="xJa3dqRCuZN_FZyqL8P8-62" target="xJa3dqRCuZN_FZyqL8P8-66" edge="1">
          <mxGeometry relative="1" as="geometry" />
        </mxCell>
        <mxCell id="xJa3dqRCuZN_FZyqL8P8-62" value="gt_mask&lt;br&gt;val loss/val accuracy" style="rounded=0;whiteSpace=wrap;html=1;fontSize=10;" parent="1" vertex="1">
          <mxGeometry x="572.5" y="570" width="120" height="60" as="geometry" />
        </mxCell>
        <mxCell id="xJa3dqRCuZN_FZyqL8P8-65" style="edgeStyle=orthogonalEdgeStyle;rounded=0;orthogonalLoop=1;jettySize=auto;html=1;exitX=0.5;exitY=1;exitDx=0;exitDy=0;entryX=0.5;entryY=0;entryDx=0;entryDy=0;fontSize=10;" parent="1" source="xJa3dqRCuZN_FZyqL8P8-63" target="xJa3dqRCuZN_FZyqL8P8-62" edge="1">
          <mxGeometry relative="1" as="geometry" />
        </mxCell>
        <mxCell id="xJa3dqRCuZN_FZyqL8P8-75" style="edgeStyle=orthogonalEdgeStyle;rounded=0;orthogonalLoop=1;jettySize=auto;html=1;exitX=1;exitY=0.5;exitDx=0;exitDy=0;fontSize=10;" parent="1" source="xJa3dqRCuZN_FZyqL8P8-63" target="xJa3dqRCuZN_FZyqL8P8-73" edge="1">
          <mxGeometry relative="1" as="geometry">
            <Array as="points">
              <mxPoint x="760" y="500" />
              <mxPoint x="760" y="750" />
              <mxPoint x="633" y="750" />
            </Array>
          </mxGeometry>
        </mxCell>
        <mxCell id="xJa3dqRCuZN_FZyqL8P8-63" value="epoch%80==0" style="rhombus;whiteSpace=wrap;html=1;fontSize=10;" parent="1" vertex="1">
          <mxGeometry x="592.5" y="460" width="80" height="80" as="geometry" />
        </mxCell>
        <mxCell id="xJa3dqRCuZN_FZyqL8P8-74" value="" style="edgeStyle=orthogonalEdgeStyle;rounded=0;orthogonalLoop=1;jettySize=auto;html=1;fontSize=10;" parent="1" source="xJa3dqRCuZN_FZyqL8P8-66" target="xJa3dqRCuZN_FZyqL8P8-73" edge="1">
          <mxGeometry relative="1" as="geometry" />
        </mxCell>
        <mxCell id="xJa3dqRCuZN_FZyqL8P8-66" value="Plot gt_mask loss/accuracy" style="rounded=0;whiteSpace=wrap;html=1;fontSize=10;" parent="1" vertex="1">
          <mxGeometry x="572.5" y="670" width="120" height="60" as="geometry" />
        </mxCell>
        <mxCell id="xJa3dqRCuZN_FZyqL8P8-73" value="stop update network" style="ellipse;whiteSpace=wrap;html=1;fontSize=10;" parent="1" vertex="1">
          <mxGeometry x="578.75" y="790" width="107.5" height="40" as="geometry" />
        </mxCell>
        <mxCell id="xJa3dqRCuZN_FZyqL8P8-78" value="" style="edgeStyle=orthogonalEdgeStyle;rounded=0;orthogonalLoop=1;jettySize=auto;html=1;fontSize=10;" parent="1" source="xJa3dqRCuZN_FZyqL8P8-76" target="xJa3dqRCuZN_FZyqL8P8-32" edge="1">
          <mxGeometry relative="1" as="geometry" />
        </mxCell>
        <mxCell id="xJa3dqRCuZN_FZyqL8P8-76" value="&lt;div&gt;start update network&lt;/div&gt;" style="ellipse;whiteSpace=wrap;html=1;fontSize=10;" parent="1" vertex="1">
          <mxGeometry x="379.38" y="420" width="111.25" height="40" as="geometry" />
        </mxCell>
        <mxCell id="xJa3dqRCuZN_FZyqL8P8-81" value="" style="edgeStyle=orthogonalEdgeStyle;rounded=0;orthogonalLoop=1;jettySize=auto;html=1;fontSize=10;" parent="1" source="xJa3dqRCuZN_FZyqL8P8-79" target="OuYyEne4kG3OGcafhdiq-1" edge="1">
          <mxGeometry relative="1" as="geometry" />
        </mxCell>
        <mxCell id="xJa3dqRCuZN_FZyqL8P8-79" value="start evaluation" style="ellipse;whiteSpace=wrap;html=1;fontSize=10;" parent="1" vertex="1">
          <mxGeometry x="79.37" y="30" width="111.25" height="40" as="geometry" />
        </mxCell>
        <mxCell id="xJa3dqRCuZN_FZyqL8P8-80" value="&lt;div&gt;stop update network&lt;/div&gt;" style="ellipse;whiteSpace=wrap;html=1;fontSize=10;" parent="1" vertex="1">
          <mxGeometry x="79.37" y="700" width="111.25" height="40" as="geometry" />
        </mxCell>
        <mxCell id="xJa3dqRCuZN_FZyqL8P8-86" value="" style="endArrow=classic;html=1;rounded=0;dashed=1;fontSize=10;" parent="1" edge="1">
          <mxGeometry relative="1" as="geometry">
            <mxPoint x="600" y="120" as="sourcePoint" />
            <mxPoint x="760" y="120" as="targetPoint" />
          </mxGeometry>
        </mxCell>
        <mxCell id="xJa3dqRCuZN_FZyqL8P8-88" value="Data" style="edgeLabel;resizable=0;html=1;align=left;verticalAlign=bottom;fontSize=10;" parent="xJa3dqRCuZN_FZyqL8P8-86" connectable="0" vertex="1">
          <mxGeometry x="-1" relative="1" as="geometry">
            <mxPoint x="-30" y="10" as="offset" />
          </mxGeometry>
        </mxCell>
        <mxCell id="xJa3dqRCuZN_FZyqL8P8-89" value="" style="endArrow=classic;html=1;rounded=0;fontSize=10;" parent="1" edge="1">
          <mxGeometry relative="1" as="geometry">
            <mxPoint x="600" y="80" as="sourcePoint" />
            <mxPoint x="760" y="80" as="targetPoint" />
          </mxGeometry>
        </mxCell>
        <mxCell id="xJa3dqRCuZN_FZyqL8P8-90" value="&lt;div&gt;Logic&lt;/div&gt;" style="edgeLabel;resizable=0;html=1;align=left;verticalAlign=bottom;fontSize=10;" parent="xJa3dqRCuZN_FZyqL8P8-89" connectable="0" vertex="1">
          <mxGeometry x="-1" relative="1" as="geometry">
            <mxPoint x="-30" y="10" as="offset" />
          </mxGeometry>
        </mxCell>
      </root>
    </mxGraphModel>
  </diagram>
  <diagram id="P32vQhv_6fQZ7-iOXzvr" name="Data Train Attempt">
    <mxGraphModel dx="2056" dy="1119" grid="1" gridSize="10" guides="1" tooltips="1" connect="1" arrows="1" fold="1" page="1" pageScale="1" pageWidth="850" pageHeight="1100" math="0" shadow="0">
      <root>
        <mxCell id="0" />
        <mxCell id="1" parent="0" />
        <mxCell id="MnxZtklNrE6G67OP9qPg-17" style="edgeStyle=orthogonalEdgeStyle;rounded=0;orthogonalLoop=1;jettySize=auto;html=1;exitX=1;exitY=0.71;exitDx=0;exitDy=0;entryX=-0.001;entryY=0.761;entryDx=0;entryDy=0;strokeWidth=1;endArrow=none;endFill=0;exitPerimeter=0;entryPerimeter=0;" parent="1" source="MnxZtklNrE6G67OP9qPg-2" target="MnxZtklNrE6G67OP9qPg-6" edge="1">
          <mxGeometry relative="1" as="geometry">
            <Array as="points">
              <mxPoint x="280" y="210" />
            </Array>
          </mxGeometry>
        </mxCell>
        <mxCell id="MnxZtklNrE6G67OP9qPg-18" value="1" style="edgeLabel;html=1;align=center;verticalAlign=middle;resizable=0;points=[];" parent="MnxZtklNrE6G67OP9qPg-17" vertex="1" connectable="0">
          <mxGeometry x="-0.6561" relative="1" as="geometry">
            <mxPoint x="-2" y="-10" as="offset" />
          </mxGeometry>
        </mxCell>
        <mxCell id="MnxZtklNrE6G67OP9qPg-19" value="1" style="edgeLabel;html=1;align=center;verticalAlign=middle;resizable=0;points=[];" parent="MnxZtklNrE6G67OP9qPg-17" vertex="1" connectable="0">
          <mxGeometry x="0.8923" y="-1" relative="1" as="geometry">
            <mxPoint x="-6" y="9" as="offset" />
          </mxGeometry>
        </mxCell>
        <mxCell id="MnxZtklNrE6G67OP9qPg-1" value="DataLocomotive" style="swimlane;fontStyle=1;align=center;verticalAlign=top;childLayout=stackLayout;horizontal=1;startSize=26;horizontalStack=0;resizeParent=1;resizeParentMax=0;resizeLast=0;collapsible=1;marginBottom=0;whiteSpace=wrap;html=1;" parent="1" vertex="1">
          <mxGeometry x="10" y="160" width="200" height="120" as="geometry" />
        </mxCell>
        <mxCell id="MnxZtklNrE6G67OP9qPg-2" value="&lt;div&gt;- clutch: str&lt;/div&gt;&lt;div&gt;- connected: DataControlWagon&lt;br&gt;&lt;/div&gt;&lt;div&gt;&lt;br&gt;&lt;/div&gt;&lt;div&gt;&lt;br&gt;&lt;/div&gt;" style="text;strokeColor=none;fillColor=none;align=left;verticalAlign=top;spacingLeft=4;spacingRight=4;overflow=hidden;rotatable=0;points=[[0,0.5],[1,0.5]];portConstraint=eastwest;whiteSpace=wrap;html=1;" parent="MnxZtklNrE6G67OP9qPg-1" vertex="1">
          <mxGeometry y="26" width="200" height="34" as="geometry" />
        </mxCell>
        <mxCell id="MnxZtklNrE6G67OP9qPg-3" value="" style="line;strokeWidth=1;fillColor=none;align=left;verticalAlign=middle;spacingTop=-1;spacingLeft=3;spacingRight=3;rotatable=0;labelPosition=right;points=[];portConstraint=eastwest;strokeColor=inherit;" parent="MnxZtklNrE6G67OP9qPg-1" vertex="1">
          <mxGeometry y="60" width="200" height="8" as="geometry" />
        </mxCell>
        <mxCell id="MnxZtklNrE6G67OP9qPg-4" value="&lt;div&gt;+ __init__(str): None&lt;/div&gt;&lt;div&gt;+ connect(WagonFabric): None&lt;/div&gt;&lt;div&gt;+ to_next_station(str): ?&lt;br&gt;&lt;/div&gt;" style="text;strokeColor=none;fillColor=none;align=left;verticalAlign=top;spacingLeft=4;spacingRight=4;overflow=hidden;rotatable=0;points=[[0,0.5],[1,0.5]];portConstraint=eastwest;whiteSpace=wrap;html=1;" parent="MnxZtklNrE6G67OP9qPg-1" vertex="1">
          <mxGeometry y="68" width="200" height="52" as="geometry" />
        </mxCell>
        <mxCell id="MnxZtklNrE6G67OP9qPg-20" style="edgeStyle=orthogonalEdgeStyle;rounded=0;orthogonalLoop=1;jettySize=auto;html=1;exitX=0.482;exitY=1.008;exitDx=0;exitDy=0;entryX=0.5;entryY=0;entryDx=0;entryDy=0;endArrow=none;endFill=0;exitPerimeter=0;" parent="1" source="MnxZtklNrE6G67OP9qPg-8" target="MnxZtklNrE6G67OP9qPg-9" edge="1">
          <mxGeometry relative="1" as="geometry">
            <Array as="points">
              <mxPoint x="386" y="440" />
            </Array>
          </mxGeometry>
        </mxCell>
        <mxCell id="MnxZtklNrE6G67OP9qPg-21" value="1" style="edgeLabel;html=1;align=center;verticalAlign=middle;resizable=0;points=[];" parent="MnxZtklNrE6G67OP9qPg-20" vertex="1" connectable="0">
          <mxGeometry x="-0.6857" relative="1" as="geometry">
            <mxPoint x="-6" y="-10" as="offset" />
          </mxGeometry>
        </mxCell>
        <mxCell id="MnxZtklNrE6G67OP9qPg-22" value="1..n" style="edgeLabel;html=1;align=center;verticalAlign=middle;resizable=0;points=[];" parent="MnxZtklNrE6G67OP9qPg-20" vertex="1" connectable="0">
          <mxGeometry x="0.7429" y="-1" relative="1" as="geometry">
            <mxPoint x="15" y="3" as="offset" />
          </mxGeometry>
        </mxCell>
        <mxCell id="MnxZtklNrE6G67OP9qPg-5" value="DataControlWagon" style="swimlane;fontStyle=1;align=center;verticalAlign=top;childLayout=stackLayout;horizontal=1;startSize=26;horizontalStack=0;resizeParent=1;resizeParentMax=0;resizeLast=0;collapsible=1;marginBottom=0;whiteSpace=wrap;html=1;" parent="1" vertex="1">
          <mxGeometry x="280" y="160" width="230" height="150" as="geometry">
            <mxRectangle x="290" y="190" width="160" height="30" as="alternateBounds" />
          </mxGeometry>
        </mxCell>
        <mxCell id="MnxZtklNrE6G67OP9qPg-6" value="&lt;div&gt;- nclutch: List[str]&lt;/div&gt;&lt;div&gt;- connected: Dict[DataWagon]&lt;br&gt;&lt;/div&gt;" style="text;strokeColor=none;fillColor=none;align=left;verticalAlign=top;spacingLeft=4;spacingRight=4;overflow=hidden;rotatable=0;points=[[0,0.5],[1,0.5]];portConstraint=eastwest;whiteSpace=wrap;html=1;" parent="MnxZtklNrE6G67OP9qPg-5" vertex="1">
          <mxGeometry y="26" width="230" height="34" as="geometry" />
        </mxCell>
        <mxCell id="MnxZtklNrE6G67OP9qPg-7" value="" style="line;strokeWidth=1;fillColor=none;align=left;verticalAlign=middle;spacingTop=-1;spacingLeft=3;spacingRight=3;rotatable=0;labelPosition=right;points=[];portConstraint=eastwest;strokeColor=inherit;" parent="MnxZtklNrE6G67OP9qPg-5" vertex="1">
          <mxGeometry y="60" width="230" height="8" as="geometry" />
        </mxCell>
        <mxCell id="MnxZtklNrE6G67OP9qPg-8" value="&lt;div&gt;+ __init__(List[str]): None&lt;/div&gt;&lt;div&gt;+ connect(WagonFabric): None&lt;/div&gt;&lt;div&gt;+ load_wagon(str, torch.Tensor): None&lt;br&gt;&lt;/div&gt;&lt;div&gt;+ unload_wagon(str): torch.Tensor&lt;/div&gt;&lt;div&gt;+ pre_trail_check(None): bool&lt;br&gt;&lt;/div&gt;" style="text;strokeColor=none;fillColor=none;align=left;verticalAlign=top;spacingLeft=4;spacingRight=4;overflow=hidden;rotatable=0;points=[[0,0.5],[1,0.5]];portConstraint=eastwest;whiteSpace=wrap;html=1;" parent="MnxZtklNrE6G67OP9qPg-5" vertex="1">
          <mxGeometry y="68" width="230" height="82" as="geometry" />
        </mxCell>
        <mxCell id="MnxZtklNrE6G67OP9qPg-9" value="DataWagon" style="swimlane;fontStyle=1;align=center;verticalAlign=top;childLayout=stackLayout;horizontal=1;startSize=26;horizontalStack=0;resizeParent=1;resizeParentMax=0;resizeLast=0;collapsible=1;marginBottom=0;whiteSpace=wrap;html=1;" parent="1" vertex="1">
          <mxGeometry x="310" y="440" width="160" height="110" as="geometry">
            <mxRectangle x="290" y="190" width="160" height="30" as="alternateBounds" />
          </mxGeometry>
        </mxCell>
        <mxCell id="MnxZtklNrE6G67OP9qPg-10" value="&lt;div&gt;- data: torch.Tensor&lt;/div&gt;&lt;div&gt;- dataspace: int&lt;br&gt;&lt;/div&gt;" style="text;strokeColor=none;fillColor=none;align=left;verticalAlign=top;spacingLeft=4;spacingRight=4;overflow=hidden;rotatable=0;points=[[0,0.5],[1,0.5]];portConstraint=eastwest;whiteSpace=wrap;html=1;" parent="MnxZtklNrE6G67OP9qPg-9" vertex="1">
          <mxGeometry y="26" width="160" height="34" as="geometry" />
        </mxCell>
        <mxCell id="MnxZtklNrE6G67OP9qPg-11" value="" style="line;strokeWidth=1;fillColor=none;align=left;verticalAlign=middle;spacingTop=-1;spacingLeft=3;spacingRight=3;rotatable=0;labelPosition=right;points=[];portConstraint=eastwest;strokeColor=inherit;" parent="MnxZtklNrE6G67OP9qPg-9" vertex="1">
          <mxGeometry y="60" width="160" height="8" as="geometry" />
        </mxCell>
        <mxCell id="MnxZtklNrE6G67OP9qPg-12" value="&lt;div&gt;+ _init_(None): None&lt;/div&gt;&lt;div&gt;+ check_load(): bool&lt;br&gt;&lt;/div&gt;" style="text;strokeColor=none;fillColor=none;align=left;verticalAlign=top;spacingLeft=4;spacingRight=4;overflow=hidden;rotatable=0;points=[[0,0.5],[1,0.5]];portConstraint=eastwest;whiteSpace=wrap;html=1;" parent="MnxZtklNrE6G67OP9qPg-9" vertex="1">
          <mxGeometry y="68" width="160" height="42" as="geometry" />
        </mxCell>
        <mxCell id="MnxZtklNrE6G67OP9qPg-27" value="DataWagonCache" style="swimlane;fontStyle=1;align=center;verticalAlign=top;childLayout=stackLayout;horizontal=1;startSize=26;horizontalStack=0;resizeParent=1;resizeParentMax=0;resizeLast=0;collapsible=1;marginBottom=0;whiteSpace=wrap;html=1;" parent="1" vertex="1">
          <mxGeometry x="600" y="280" width="190" height="130" as="geometry">
            <mxRectangle x="290" y="190" width="160" height="30" as="alternateBounds" />
          </mxGeometry>
        </mxCell>
        <mxCell id="MnxZtklNrE6G67OP9qPg-28" value="&lt;div&gt;- data: torch.Tensor&lt;/div&gt;&lt;div&gt;- datashape: torch.shape&lt;br&gt;&lt;/div&gt;&lt;div&gt;- dataspace: int&lt;br&gt;&lt;/div&gt;" style="text;strokeColor=none;fillColor=none;align=left;verticalAlign=top;spacingLeft=4;spacingRight=4;overflow=hidden;rotatable=0;points=[[0,0.5],[1,0.5]];portConstraint=eastwest;whiteSpace=wrap;html=1;" parent="MnxZtklNrE6G67OP9qPg-27" vertex="1">
          <mxGeometry y="26" width="190" height="54" as="geometry" />
        </mxCell>
        <mxCell id="MnxZtklNrE6G67OP9qPg-29" value="" style="line;strokeWidth=1;fillColor=none;align=left;verticalAlign=middle;spacingTop=-1;spacingLeft=3;spacingRight=3;rotatable=0;labelPosition=right;points=[];portConstraint=eastwest;strokeColor=inherit;" parent="MnxZtklNrE6G67OP9qPg-27" vertex="1">
          <mxGeometry y="80" width="190" height="8" as="geometry" />
        </mxCell>
        <mxCell id="MnxZtklNrE6G67OP9qPg-30" value="&lt;div&gt;+ _init_(None): None&lt;/div&gt;&lt;div&gt;+ lazy_load(torch.Tensor): None&lt;br&gt;&lt;/div&gt;" style="text;strokeColor=none;fillColor=none;align=left;verticalAlign=top;spacingLeft=4;spacingRight=4;overflow=hidden;rotatable=0;points=[[0,0.5],[1,0.5]];portConstraint=eastwest;whiteSpace=wrap;html=1;" parent="MnxZtklNrE6G67OP9qPg-27" vertex="1">
          <mxGeometry y="88" width="190" height="42" as="geometry" />
        </mxCell>
        <mxCell id="MnxZtklNrE6G67OP9qPg-31" style="edgeStyle=orthogonalEdgeStyle;rounded=0;orthogonalLoop=1;jettySize=auto;html=1;entryX=1;entryY=0.5;entryDx=0;entryDy=0;" parent="1" source="MnxZtklNrE6G67OP9qPg-28" target="MnxZtklNrE6G67OP9qPg-10" edge="1">
          <mxGeometry relative="1" as="geometry">
            <Array as="points">
              <mxPoint x="530" y="333" />
              <mxPoint x="530" y="483" />
            </Array>
          </mxGeometry>
        </mxCell>
        <mxCell id="MnxZtklNrE6G67OP9qPg-32" value="DataWagonBatch" style="swimlane;fontStyle=1;align=center;verticalAlign=top;childLayout=stackLayout;horizontal=1;startSize=26;horizontalStack=0;resizeParent=1;resizeParentMax=0;resizeLast=0;collapsible=1;marginBottom=0;whiteSpace=wrap;html=1;" parent="1" vertex="1">
          <mxGeometry x="600" y="420" width="240" height="130" as="geometry">
            <mxRectangle x="600" y="420" width="160" height="30" as="alternateBounds" />
          </mxGeometry>
        </mxCell>
        <mxCell id="MnxZtklNrE6G67OP9qPg-33" value="&lt;div&gt;- data: torch.Tensor&lt;/div&gt;&lt;div&gt;- datashape: torch.shape&lt;br&gt;&lt;/div&gt;&lt;div&gt;- dataspace: int&lt;br&gt;&lt;/div&gt;" style="text;strokeColor=none;fillColor=none;align=left;verticalAlign=top;spacingLeft=4;spacingRight=4;overflow=hidden;rotatable=0;points=[[0,0.5],[1,0.5]];portConstraint=eastwest;whiteSpace=wrap;html=1;" parent="MnxZtklNrE6G67OP9qPg-32" vertex="1">
          <mxGeometry y="26" width="240" height="54" as="geometry" />
        </mxCell>
        <mxCell id="MnxZtklNrE6G67OP9qPg-34" value="" style="line;strokeWidth=1;fillColor=none;align=left;verticalAlign=middle;spacingTop=-1;spacingLeft=3;spacingRight=3;rotatable=0;labelPosition=right;points=[];portConstraint=eastwest;strokeColor=inherit;" parent="MnxZtklNrE6G67OP9qPg-32" vertex="1">
          <mxGeometry y="80" width="240" height="8" as="geometry" />
        </mxCell>
        <mxCell id="MnxZtklNrE6G67OP9qPg-35" value="&lt;div&gt;+ _init_(None): None&lt;/div&gt;&lt;div&gt;+ build_batch(List[torch.Tensor]): None&lt;br&gt;&lt;/div&gt;" style="text;strokeColor=none;fillColor=none;align=left;verticalAlign=top;spacingLeft=4;spacingRight=4;overflow=hidden;rotatable=0;points=[[0,0.5],[1,0.5]];portConstraint=eastwest;whiteSpace=wrap;html=1;" parent="MnxZtklNrE6G67OP9qPg-32" vertex="1">
          <mxGeometry y="88" width="240" height="42" as="geometry" />
        </mxCell>
        <mxCell id="MnxZtklNrE6G67OP9qPg-36" style="edgeStyle=orthogonalEdgeStyle;rounded=0;orthogonalLoop=1;jettySize=auto;html=1;entryX=1;entryY=0.5;entryDx=0;entryDy=0;" parent="1" source="MnxZtklNrE6G67OP9qPg-33" target="MnxZtklNrE6G67OP9qPg-10" edge="1">
          <mxGeometry relative="1" as="geometry">
            <Array as="points">
              <mxPoint x="570" y="483" />
              <mxPoint x="570" y="483" />
            </Array>
          </mxGeometry>
        </mxCell>
        <mxCell id="MnxZtklNrE6G67OP9qPg-37" value="DataWagonImage" style="swimlane;fontStyle=1;align=center;verticalAlign=top;childLayout=stackLayout;horizontal=1;startSize=26;horizontalStack=0;resizeParent=1;resizeParentMax=0;resizeLast=0;collapsible=1;marginBottom=0;whiteSpace=wrap;html=1;" parent="1" vertex="1">
          <mxGeometry x="600" y="560" width="150" height="110" as="geometry">
            <mxRectangle x="290" y="190" width="160" height="30" as="alternateBounds" />
          </mxGeometry>
        </mxCell>
        <mxCell id="MnxZtklNrE6G67OP9qPg-38" value="&lt;div&gt;- data: torch.Tensor&lt;/div&gt;&lt;div&gt;- datashape: torch.shape&lt;br&gt;&lt;/div&gt;&lt;div&gt;- dataspace: int&lt;br&gt;&lt;/div&gt;" style="text;strokeColor=none;fillColor=none;align=left;verticalAlign=top;spacingLeft=4;spacingRight=4;overflow=hidden;rotatable=0;points=[[0,0.5],[1,0.5]];portConstraint=eastwest;whiteSpace=wrap;html=1;" parent="MnxZtklNrE6G67OP9qPg-37" vertex="1">
          <mxGeometry y="26" width="150" height="54" as="geometry" />
        </mxCell>
        <mxCell id="MnxZtklNrE6G67OP9qPg-39" value="" style="line;strokeWidth=1;fillColor=none;align=left;verticalAlign=middle;spacingTop=-1;spacingLeft=3;spacingRight=3;rotatable=0;labelPosition=right;points=[];portConstraint=eastwest;strokeColor=inherit;" parent="MnxZtklNrE6G67OP9qPg-37" vertex="1">
          <mxGeometry y="80" width="150" height="8" as="geometry" />
        </mxCell>
        <mxCell id="MnxZtklNrE6G67OP9qPg-40" value="&lt;div&gt;+ _init_(None): None&lt;/div&gt;" style="text;strokeColor=none;fillColor=none;align=left;verticalAlign=top;spacingLeft=4;spacingRight=4;overflow=hidden;rotatable=0;points=[[0,0.5],[1,0.5]];portConstraint=eastwest;whiteSpace=wrap;html=1;" parent="MnxZtklNrE6G67OP9qPg-37" vertex="1">
          <mxGeometry y="88" width="150" height="22" as="geometry" />
        </mxCell>
        <mxCell id="MnxZtklNrE6G67OP9qPg-41" style="edgeStyle=orthogonalEdgeStyle;rounded=0;orthogonalLoop=1;jettySize=auto;html=1;entryX=1;entryY=0.5;entryDx=0;entryDy=0;" parent="1" source="MnxZtklNrE6G67OP9qPg-38" target="MnxZtklNrE6G67OP9qPg-10" edge="1">
          <mxGeometry relative="1" as="geometry">
            <Array as="points">
              <mxPoint x="530" y="613" />
              <mxPoint x="530" y="483" />
            </Array>
          </mxGeometry>
        </mxCell>
        <mxCell id="MnxZtklNrE6G67OP9qPg-54" style="edgeStyle=orthogonalEdgeStyle;rounded=0;orthogonalLoop=1;jettySize=auto;html=1;entryX=1;entryY=0.5;entryDx=0;entryDy=0;" parent="1" source="MnxZtklNrE6G67OP9qPg-46" target="MnxZtklNrE6G67OP9qPg-10" edge="1">
          <mxGeometry relative="1" as="geometry">
            <Array as="points">
              <mxPoint x="530" y="735" />
              <mxPoint x="530" y="483" />
            </Array>
          </mxGeometry>
        </mxCell>
        <mxCell id="MnxZtklNrE6G67OP9qPg-46" value="DataWagonBBox" style="swimlane;fontStyle=1;align=center;verticalAlign=top;childLayout=stackLayout;horizontal=1;startSize=26;horizontalStack=0;resizeParent=1;resizeParentMax=0;resizeLast=0;collapsible=1;marginBottom=0;whiteSpace=wrap;html=1;" parent="1" vertex="1">
          <mxGeometry x="600" y="680" width="150" height="110" as="geometry">
            <mxRectangle x="600" y="700" width="160" height="30" as="alternateBounds" />
          </mxGeometry>
        </mxCell>
        <mxCell id="MnxZtklNrE6G67OP9qPg-47" value="&lt;div&gt;- data: torch.Tensor&lt;/div&gt;&lt;div&gt;- datashape: torch.shape&lt;br&gt;&lt;/div&gt;&lt;div&gt;- dataspace: int&lt;br&gt;&lt;/div&gt;" style="text;strokeColor=none;fillColor=none;align=left;verticalAlign=top;spacingLeft=4;spacingRight=4;overflow=hidden;rotatable=0;points=[[0,0.5],[1,0.5]];portConstraint=eastwest;whiteSpace=wrap;html=1;" parent="MnxZtklNrE6G67OP9qPg-46" vertex="1">
          <mxGeometry y="26" width="150" height="54" as="geometry" />
        </mxCell>
        <mxCell id="MnxZtklNrE6G67OP9qPg-48" value="" style="line;strokeWidth=1;fillColor=none;align=left;verticalAlign=middle;spacingTop=-1;spacingLeft=3;spacingRight=3;rotatable=0;labelPosition=right;points=[];portConstraint=eastwest;strokeColor=inherit;" parent="MnxZtklNrE6G67OP9qPg-46" vertex="1">
          <mxGeometry y="80" width="150" height="8" as="geometry" />
        </mxCell>
        <mxCell id="MnxZtklNrE6G67OP9qPg-49" value="&lt;div&gt;+ _init_(None): None&lt;/div&gt;" style="text;strokeColor=none;fillColor=none;align=left;verticalAlign=top;spacingLeft=4;spacingRight=4;overflow=hidden;rotatable=0;points=[[0,0.5],[1,0.5]];portConstraint=eastwest;whiteSpace=wrap;html=1;" parent="MnxZtklNrE6G67OP9qPg-46" vertex="1">
          <mxGeometry y="88" width="150" height="22" as="geometry" />
        </mxCell>
        <mxCell id="MnxZtklNrE6G67OP9qPg-50" value="DataWagonMask" style="swimlane;fontStyle=1;align=center;verticalAlign=top;childLayout=stackLayout;horizontal=1;startSize=26;horizontalStack=0;resizeParent=1;resizeParentMax=0;resizeLast=0;collapsible=1;marginBottom=0;whiteSpace=wrap;html=1;" parent="1" vertex="1">
          <mxGeometry x="600" y="800" width="150" height="110" as="geometry">
            <mxRectangle x="600" y="700" width="160" height="30" as="alternateBounds" />
          </mxGeometry>
        </mxCell>
        <mxCell id="MnxZtklNrE6G67OP9qPg-51" value="&lt;div&gt;- data: torch.Tensor&lt;/div&gt;&lt;div&gt;- datashape: torch.shape&lt;br&gt;&lt;/div&gt;&lt;div&gt;- dataspace: int&lt;br&gt;&lt;/div&gt;" style="text;strokeColor=none;fillColor=none;align=left;verticalAlign=top;spacingLeft=4;spacingRight=4;overflow=hidden;rotatable=0;points=[[0,0.5],[1,0.5]];portConstraint=eastwest;whiteSpace=wrap;html=1;" parent="MnxZtklNrE6G67OP9qPg-50" vertex="1">
          <mxGeometry y="26" width="150" height="54" as="geometry" />
        </mxCell>
        <mxCell id="MnxZtklNrE6G67OP9qPg-52" value="" style="line;strokeWidth=1;fillColor=none;align=left;verticalAlign=middle;spacingTop=-1;spacingLeft=3;spacingRight=3;rotatable=0;labelPosition=right;points=[];portConstraint=eastwest;strokeColor=inherit;" parent="MnxZtklNrE6G67OP9qPg-50" vertex="1">
          <mxGeometry y="80" width="150" height="8" as="geometry" />
        </mxCell>
        <mxCell id="MnxZtklNrE6G67OP9qPg-53" value="&lt;div&gt;+ _init_(None): None&lt;/div&gt;" style="text;strokeColor=none;fillColor=none;align=left;verticalAlign=top;spacingLeft=4;spacingRight=4;overflow=hidden;rotatable=0;points=[[0,0.5],[1,0.5]];portConstraint=eastwest;whiteSpace=wrap;html=1;" parent="MnxZtklNrE6G67OP9qPg-50" vertex="1">
          <mxGeometry y="88" width="150" height="22" as="geometry" />
        </mxCell>
        <mxCell id="MnxZtklNrE6G67OP9qPg-55" style="edgeStyle=orthogonalEdgeStyle;rounded=0;orthogonalLoop=1;jettySize=auto;html=1;entryX=1;entryY=0.5;entryDx=0;entryDy=0;" parent="1" source="MnxZtklNrE6G67OP9qPg-51" target="MnxZtklNrE6G67OP9qPg-10" edge="1">
          <mxGeometry relative="1" as="geometry">
            <mxPoint x="470" y="480" as="targetPoint" />
            <Array as="points">
              <mxPoint x="530" y="853" />
              <mxPoint x="530" y="483" />
            </Array>
          </mxGeometry>
        </mxCell>
      </root>
    </mxGraphModel>
  </diagram>
  <diagram id="jZeBDA0d3DILbh8B9IQQ" name="MultiProcess">
    <mxGraphModel dx="1723" dy="955" grid="1" gridSize="10" guides="1" tooltips="1" connect="1" arrows="1" fold="1" page="1" pageScale="1" pageWidth="850" pageHeight="1100" math="0" shadow="0">
      <root>
        <mxCell id="0" />
        <mxCell id="1" parent="0" />
        <mxCell id="Na2LQ2gIJFrHa-9E2_Me-24" value="" style="endArrow=none;dashed=1;html=1;dashPattern=1 3;strokeWidth=2;rounded=0;" edge="1" parent="1">
          <mxGeometry width="50" height="50" relative="1" as="geometry">
            <mxPoint x="454.52" y="380" as="sourcePoint" />
            <mxPoint x="454.52" y="50" as="targetPoint" />
          </mxGeometry>
        </mxCell>
        <mxCell id="Na2LQ2gIJFrHa-9E2_Me-33" value="" style="endArrow=none;dashed=1;html=1;dashPattern=1 3;strokeWidth=2;rounded=0;" edge="1" parent="1">
          <mxGeometry width="50" height="50" relative="1" as="geometry">
            <mxPoint x="465" y="380" as="sourcePoint" />
            <mxPoint x="465" y="50" as="targetPoint" />
          </mxGeometry>
        </mxCell>
        <mxCell id="Na2LQ2gIJFrHa-9E2_Me-26" value="" style="endArrow=none;dashed=1;html=1;dashPattern=1 3;strokeWidth=2;rounded=0;" edge="1" parent="1">
          <mxGeometry width="50" height="50" relative="1" as="geometry">
            <mxPoint x="415" y="380" as="sourcePoint" />
            <mxPoint x="415" y="50" as="targetPoint" />
          </mxGeometry>
        </mxCell>
        <mxCell id="Na2LQ2gIJFrHa-9E2_Me-12" value="" style="endArrow=none;dashed=1;html=1;dashPattern=1 3;strokeWidth=2;rounded=0;" edge="1" parent="1">
          <mxGeometry width="50" height="50" relative="1" as="geometry">
            <mxPoint x="374.43" y="380" as="sourcePoint" />
            <mxPoint x="374.43" y="50" as="targetPoint" />
          </mxGeometry>
        </mxCell>
        <mxCell id="Na2LQ2gIJFrHa-9E2_Me-13" value="" style="endArrow=none;dashed=1;html=1;dashPattern=1 3;strokeWidth=2;rounded=0;" edge="1" parent="1">
          <mxGeometry width="50" height="50" relative="1" as="geometry">
            <mxPoint x="535" y="380" as="sourcePoint" />
            <mxPoint x="535" y="50" as="targetPoint" />
          </mxGeometry>
        </mxCell>
        <mxCell id="Na2LQ2gIJFrHa-9E2_Me-21" value="" style="endArrow=none;dashed=1;html=1;dashPattern=1 3;strokeWidth=2;rounded=0;" edge="1" parent="1">
          <mxGeometry width="50" height="50" relative="1" as="geometry">
            <mxPoint x="395.00000000000006" y="50" as="sourcePoint" />
            <mxPoint x="395.00000000000006" y="380" as="targetPoint" />
          </mxGeometry>
        </mxCell>
        <mxCell id="Na2LQ2gIJFrHa-9E2_Me-8" value="" style="endArrow=none;dashed=1;html=1;dashPattern=1 3;strokeWidth=2;rounded=0;" edge="1" parent="1">
          <mxGeometry width="50" height="50" relative="1" as="geometry">
            <mxPoint x="275" y="380" as="sourcePoint" />
            <mxPoint x="275" y="50" as="targetPoint" />
          </mxGeometry>
        </mxCell>
        <mxCell id="Na2LQ2gIJFrHa-9E2_Me-9" value="" style="endArrow=none;dashed=1;html=1;dashPattern=1 3;strokeWidth=2;rounded=0;" edge="1" parent="1">
          <mxGeometry width="50" height="50" relative="1" as="geometry">
            <mxPoint x="295" y="380" as="sourcePoint" />
            <mxPoint x="295" y="50" as="targetPoint" />
          </mxGeometry>
        </mxCell>
        <mxCell id="Na2LQ2gIJFrHa-9E2_Me-4" value="" style="endArrow=none;dashed=1;html=1;dashPattern=1 3;strokeWidth=2;rounded=0;" edge="1" parent="1">
          <mxGeometry width="50" height="50" relative="1" as="geometry">
            <mxPoint x="215" y="380" as="sourcePoint" />
            <mxPoint x="215" y="50" as="targetPoint" />
          </mxGeometry>
        </mxCell>
        <mxCell id="Na2LQ2gIJFrHa-9E2_Me-1" value="" style="endArrow=none;dashed=1;html=1;dashPattern=1 3;strokeWidth=2;rounded=0;" edge="1" parent="1">
          <mxGeometry width="50" height="50" relative="1" as="geometry">
            <mxPoint x="95" y="380" as="sourcePoint" />
            <mxPoint x="95" y="50" as="targetPoint" />
          </mxGeometry>
        </mxCell>
        <mxCell id="Na2LQ2gIJFrHa-9E2_Me-3" value="&lt;div&gt;Load First 4 Batches&lt;/div&gt;&lt;div&gt;4 Processes&lt;br&gt;&lt;/div&gt;" style="rounded=0;whiteSpace=wrap;html=1;" vertex="1" parent="1">
          <mxGeometry x="95" y="70" width="120" height="60" as="geometry" />
        </mxCell>
        <mxCell id="Na2LQ2gIJFrHa-9E2_Me-5" value="&lt;div&gt;Run BoxSup&lt;/div&gt;&lt;div&gt;1 Process&lt;br&gt;&lt;/div&gt;" style="rounded=0;whiteSpace=wrap;html=1;" vertex="1" parent="1">
          <mxGeometry x="215" y="130" width="80" height="60" as="geometry" />
        </mxCell>
        <mxCell id="Na2LQ2gIJFrHa-9E2_Me-6" value="One Datatrain Time Diagramm" style="text;html=1;strokeColor=none;fillColor=none;align=center;verticalAlign=middle;whiteSpace=wrap;rounded=0;" vertex="1" parent="1">
          <mxGeometry x="215" y="10" width="420" height="30" as="geometry" />
        </mxCell>
        <mxCell id="Na2LQ2gIJFrHa-9E2_Me-7" value="&lt;div&gt;Analyse Batch Mem&lt;/div&gt;&lt;div&gt;1 Process &lt;br&gt;&lt;/div&gt;" style="rounded=0;whiteSpace=wrap;html=1;" vertex="1" parent="1">
          <mxGeometry x="215" y="260" width="60" height="110" as="geometry" />
        </mxCell>
        <mxCell id="Na2LQ2gIJFrHa-9E2_Me-10" value="&lt;div&gt;Load 12 Batches&lt;/div&gt;&lt;div&gt;12 Processes&lt;/div&gt;" style="rounded=0;whiteSpace=wrap;html=1;" vertex="1" parent="1">
          <mxGeometry x="275" y="200" width="120" height="60" as="geometry" />
        </mxCell>
        <mxCell id="Na2LQ2gIJFrHa-9E2_Me-11" value="&lt;div&gt;Run BoxSup&lt;/div&gt;&lt;div&gt;1 Process&lt;br&gt;&lt;/div&gt;" style="rounded=0;whiteSpace=wrap;html=1;" vertex="1" parent="1">
          <mxGeometry x="295" y="130" width="80" height="60" as="geometry" />
        </mxCell>
        <mxCell id="Na2LQ2gIJFrHa-9E2_Me-14" value="&lt;div&gt;Run BoxSup&lt;/div&gt;&lt;div&gt;1 Process&lt;br&gt;&lt;/div&gt;" style="rounded=0;whiteSpace=wrap;html=1;" vertex="1" parent="1">
          <mxGeometry x="375" y="130" width="80" height="60" as="geometry" />
        </mxCell>
        <mxCell id="Na2LQ2gIJFrHa-9E2_Me-15" value="&lt;div&gt;Run BoxSup&lt;/div&gt;&lt;div&gt;1 Process&lt;br&gt;&lt;/div&gt;" style="rounded=0;whiteSpace=wrap;html=1;" vertex="1" parent="1">
          <mxGeometry x="455" y="130" width="80" height="60" as="geometry" />
        </mxCell>
        <mxCell id="Na2LQ2gIJFrHa-9E2_Me-16" value="&lt;div&gt;2B&lt;br&gt;&lt;/div&gt;&lt;div&gt;2P&lt;br&gt;&lt;/div&gt;" style="rounded=0;whiteSpace=wrap;html=1;" vertex="1" parent="1">
          <mxGeometry x="395" y="200" width="20" height="60" as="geometry" />
        </mxCell>
        <mxCell id="Na2LQ2gIJFrHa-9E2_Me-17" value="&lt;div style=&quot;font-size: 10px;&quot;&gt;3 Batches&lt;/div&gt;" style="text;html=1;strokeColor=none;fillColor=none;align=center;verticalAlign=middle;whiteSpace=wrap;rounded=0;rotation=90;fontSize=10;" vertex="1" parent="1">
          <mxGeometry x="185" y="410" width="60" height="10" as="geometry" />
        </mxCell>
        <mxCell id="Na2LQ2gIJFrHa-9E2_Me-18" value="&lt;h1&gt;Example&lt;/h1&gt;&lt;p&gt;We assume that analyse batch mem results in 15 Batches per Queue. Every start of run pops one batch from queue.&lt;br&gt;&lt;/p&gt;" style="text;html=1;strokeColor=none;fillColor=none;spacing=5;spacingTop=-20;whiteSpace=wrap;overflow=hidden;rounded=0;" vertex="1" parent="1">
          <mxGeometry x="565" y="60" width="190" height="120" as="geometry" />
        </mxCell>
        <mxCell id="Na2LQ2gIJFrHa-9E2_Me-19" value="&lt;div style=&quot;font-size: 10px;&quot;&gt;3 Batches&lt;/div&gt;" style="text;html=1;strokeColor=none;fillColor=none;align=center;verticalAlign=middle;whiteSpace=wrap;rounded=0;rotation=90;fontSize=10;" vertex="1" parent="1">
          <mxGeometry x="245" y="410" width="60" height="10" as="geometry" />
        </mxCell>
        <mxCell id="Na2LQ2gIJFrHa-9E2_Me-20" value="&lt;div style=&quot;font-size: 10px;&quot;&gt;2 Batches&lt;/div&gt;" style="text;html=1;strokeColor=none;fillColor=none;align=center;verticalAlign=middle;whiteSpace=wrap;rounded=0;rotation=90;fontSize=10;" vertex="1" parent="1">
          <mxGeometry x="265" y="410" width="60" height="10" as="geometry" />
        </mxCell>
        <mxCell id="Na2LQ2gIJFrHa-9E2_Me-22" value="&lt;div style=&quot;font-size: 10px;&quot;&gt;1 Batches&lt;/div&gt;" style="text;html=1;strokeColor=none;fillColor=none;align=center;verticalAlign=middle;whiteSpace=wrap;rounded=0;rotation=90;fontSize=10;" vertex="1" parent="1">
          <mxGeometry x="345" y="410" width="60" height="10" as="geometry" />
        </mxCell>
        <mxCell id="Na2LQ2gIJFrHa-9E2_Me-23" value="&lt;div style=&quot;font-size: 10px;&quot;&gt;13 Batches&lt;/div&gt;" style="text;html=1;strokeColor=none;fillColor=none;align=center;verticalAlign=middle;whiteSpace=wrap;rounded=0;rotation=90;fontSize=10;flipV=1;" vertex="1" parent="1">
          <mxGeometry x="360" y="410" width="70" height="10" as="geometry" />
        </mxCell>
        <mxCell id="Na2LQ2gIJFrHa-9E2_Me-30" value="&lt;div style=&quot;font-size: 10px;&quot;&gt;15 Batches&lt;/div&gt;" style="text;html=1;strokeColor=none;fillColor=none;align=center;verticalAlign=middle;whiteSpace=wrap;rounded=0;rotation=90;fontSize=10;flipV=1;" vertex="1" parent="1">
          <mxGeometry x="380" y="410" width="70" height="10" as="geometry" />
        </mxCell>
        <mxCell id="Na2LQ2gIJFrHa-9E2_Me-31" value="&lt;div style=&quot;font-size: 10px;&quot;&gt;14 Batches&lt;/div&gt;" style="text;html=1;strokeColor=none;fillColor=none;align=center;verticalAlign=middle;whiteSpace=wrap;rounded=0;rotation=90;fontSize=10;flipV=1;" vertex="1" parent="1">
          <mxGeometry x="419" y="410" width="70" height="10" as="geometry" />
        </mxCell>
        <mxCell id="Na2LQ2gIJFrHa-9E2_Me-32" value="&lt;div&gt;1B&lt;br&gt;&lt;/div&gt;&lt;div&gt;1P&lt;br&gt;&lt;/div&gt;" style="rounded=0;whiteSpace=wrap;html=1;" vertex="1" parent="1">
          <mxGeometry x="455" y="200" width="10" height="60" as="geometry" />
        </mxCell>
        <mxCell id="Na2LQ2gIJFrHa-9E2_Me-34" value="&lt;div style=&quot;font-size: 10px;&quot;&gt;15 Batches&lt;/div&gt;" style="text;html=1;strokeColor=none;fillColor=none;align=center;verticalAlign=middle;whiteSpace=wrap;rounded=0;rotation=90;fontSize=10;flipV=1;" vertex="1" parent="1">
          <mxGeometry x="430" y="410" width="70" height="10" as="geometry" />
        </mxCell>
      </root>
    </mxGraphModel>
  </diagram>
  <diagram id="9qi5_bXHAMGQPwnxdGMm" name="Page-10">
    <mxGraphModel dx="1654" dy="353" grid="1" gridSize="10" guides="1" tooltips="1" connect="1" arrows="1" fold="1" page="1" pageScale="1" pageWidth="850" pageHeight="1100" math="0" shadow="0">
      <root>
        <mxCell id="0" />
        <mxCell id="1" parent="0" />
        <mxCell id="npPt_wvABXy-iRALb2tP-19" value="" style="edgeStyle=orthogonalEdgeStyle;rounded=0;orthogonalLoop=1;jettySize=auto;html=1;" edge="1" parent="1" source="npPt_wvABXy-iRALb2tP-6" target="npPt_wvABXy-iRALb2tP-18">
          <mxGeometry relative="1" as="geometry" />
        </mxCell>
        <mxCell id="npPt_wvABXy-iRALb2tP-6" value="Start" style="ellipse;whiteSpace=wrap;html=1;fillColor=#d5e8d4;strokeColor=#82b366;" vertex="1" parent="1">
          <mxGeometry x="365" y="20" width="120" height="30" as="geometry" />
        </mxCell>
        <mxCell id="npPt_wvABXy-iRALb2tP-10" value="Dataset" style="swimlane;fontStyle=1;align=center;verticalAlign=top;childLayout=stackLayout;horizontal=1;startSize=26;horizontalStack=0;resizeParent=1;resizeParentMax=0;resizeLast=0;collapsible=1;marginBottom=0;whiteSpace=wrap;html=1;" vertex="1" parent="1">
          <mxGeometry x="20" y="20" width="240" height="140" as="geometry" />
        </mxCell>
        <mxCell id="npPt_wvABXy-iRALb2tP-11" value="&lt;div&gt;+ img_dir: PathLike&lt;/div&gt;&lt;div&gt;+ img_label: PathLike&lt;/div&gt;&lt;div&gt;+ transform: Transform&lt;/div&gt;&lt;div&gt;+ target_transform: Transform&lt;br&gt;&lt;/div&gt;" style="text;strokeColor=none;fillColor=none;align=left;verticalAlign=top;spacingLeft=4;spacingRight=4;overflow=hidden;rotatable=0;points=[[0,0.5],[1,0.5]];portConstraint=eastwest;whiteSpace=wrap;html=1;" vertex="1" parent="npPt_wvABXy-iRALb2tP-10">
          <mxGeometry y="26" width="240" height="64" as="geometry" />
        </mxCell>
        <mxCell id="npPt_wvABXy-iRALb2tP-12" value="" style="line;strokeWidth=1;fillColor=none;align=left;verticalAlign=middle;spacingTop=-1;spacingLeft=3;spacingRight=3;rotatable=0;labelPosition=right;points=[];portConstraint=eastwest;strokeColor=inherit;" vertex="1" parent="npPt_wvABXy-iRALb2tP-10">
          <mxGeometry y="90" width="240" height="8" as="geometry" />
        </mxCell>
        <mxCell id="npPt_wvABXy-iRALb2tP-13" value="&lt;div&gt;+ __len__(): int&lt;/div&gt;&lt;div&gt;+ __getitem__(int): Tuple[Tensor, Tensor] &lt;br&gt;&lt;/div&gt;" style="text;strokeColor=none;fillColor=none;align=left;verticalAlign=top;spacingLeft=4;spacingRight=4;overflow=hidden;rotatable=0;points=[[0,0.5],[1,0.5]];portConstraint=eastwest;whiteSpace=wrap;html=1;" vertex="1" parent="npPt_wvABXy-iRALb2tP-10">
          <mxGeometry y="98" width="240" height="42" as="geometry" />
        </mxCell>
        <mxCell id="npPt_wvABXy-iRALb2tP-14" value="DataLoader" style="swimlane;fontStyle=1;align=center;verticalAlign=top;childLayout=stackLayout;horizontal=1;startSize=26;horizontalStack=0;resizeParent=1;resizeParentMax=0;resizeLast=0;collapsible=1;marginBottom=0;whiteSpace=wrap;html=1;" vertex="1" parent="1">
          <mxGeometry x="20" y="170" width="240" height="130" as="geometry" />
        </mxCell>
        <mxCell id="npPt_wvABXy-iRALb2tP-15" value="&lt;div&gt;+ data: Dataset&lt;/div&gt;&lt;div&gt;+ batch_size: int&lt;/div&gt;&lt;div&gt;+ shuffle: Bool&lt;/div&gt;" style="text;strokeColor=none;fillColor=none;align=left;verticalAlign=top;spacingLeft=4;spacingRight=4;overflow=hidden;rotatable=0;points=[[0,0.5],[1,0.5]];portConstraint=eastwest;whiteSpace=wrap;html=1;" vertex="1" parent="npPt_wvABXy-iRALb2tP-14">
          <mxGeometry y="26" width="240" height="54" as="geometry" />
        </mxCell>
        <mxCell id="npPt_wvABXy-iRALb2tP-16" value="" style="line;strokeWidth=1;fillColor=none;align=left;verticalAlign=middle;spacingTop=-1;spacingLeft=3;spacingRight=3;rotatable=0;labelPosition=right;points=[];portConstraint=eastwest;strokeColor=inherit;" vertex="1" parent="npPt_wvABXy-iRALb2tP-14">
          <mxGeometry y="80" width="240" height="8" as="geometry" />
        </mxCell>
        <mxCell id="npPt_wvABXy-iRALb2tP-17" value="&lt;div&gt;+ __iter__(): &lt;br&gt;&lt;/div&gt;&lt;div&gt;+ __next__(): Tuple[Tensor, Tensor] &lt;br&gt;&lt;/div&gt;" style="text;strokeColor=none;fillColor=none;align=left;verticalAlign=top;spacingLeft=4;spacingRight=4;overflow=hidden;rotatable=0;points=[[0,0.5],[1,0.5]];portConstraint=eastwest;whiteSpace=wrap;html=1;" vertex="1" parent="npPt_wvABXy-iRALb2tP-14">
          <mxGeometry y="88" width="240" height="42" as="geometry" />
        </mxCell>
        <mxCell id="npPt_wvABXy-iRALb2tP-21" value="" style="edgeStyle=orthogonalEdgeStyle;rounded=0;orthogonalLoop=1;jettySize=auto;html=1;" edge="1" parent="1" source="npPt_wvABXy-iRALb2tP-18" target="npPt_wvABXy-iRALb2tP-20">
          <mxGeometry relative="1" as="geometry" />
        </mxCell>
        <mxCell id="npPt_wvABXy-iRALb2tP-18" value="Create a &lt;b&gt;Dataset&lt;/b&gt; Instance" style="rounded=0;whiteSpace=wrap;html=1;fillColor=#dae8fc;strokeColor=#6c8ebf;" vertex="1" parent="1">
          <mxGeometry x="365" y="80" width="120" height="60" as="geometry" />
        </mxCell>
        <mxCell id="npPt_wvABXy-iRALb2tP-26" value="" style="edgeStyle=orthogonalEdgeStyle;rounded=0;orthogonalLoop=1;jettySize=auto;html=1;" edge="1" parent="1" source="npPt_wvABXy-iRALb2tP-20" target="npPt_wvABXy-iRALb2tP-25">
          <mxGeometry relative="1" as="geometry" />
        </mxCell>
        <mxCell id="npPt_wvABXy-iRALb2tP-20" value="Create a &lt;b&gt;Dataloader&lt;/b&gt; for the &lt;b&gt;Dataset&lt;/b&gt;" style="whiteSpace=wrap;html=1;fillColor=#dae8fc;strokeColor=#6c8ebf;rounded=0;" vertex="1" parent="1">
          <mxGeometry x="365" y="160" width="120" height="60" as="geometry" />
        </mxCell>
        <mxCell id="npPt_wvABXy-iRALb2tP-28" value="" style="edgeStyle=orthogonalEdgeStyle;rounded=0;orthogonalLoop=1;jettySize=auto;html=1;" edge="1" parent="1" source="npPt_wvABXy-iRALb2tP-25" target="npPt_wvABXy-iRALb2tP-27">
          <mxGeometry relative="1" as="geometry" />
        </mxCell>
        <mxCell id="npPt_wvABXy-iRALb2tP-25" value="Get next DataBatch from &lt;b&gt;Dataloader&lt;/b&gt;" style="whiteSpace=wrap;html=1;fillColor=#dae8fc;strokeColor=#6c8ebf;rounded=0;" vertex="1" parent="1">
          <mxGeometry x="365" y="240" width="120" height="60" as="geometry" />
        </mxCell>
        <mxCell id="npPt_wvABXy-iRALb2tP-30" value="" style="edgeStyle=orthogonalEdgeStyle;rounded=0;orthogonalLoop=1;jettySize=auto;html=1;" edge="1" parent="1" source="npPt_wvABXy-iRALb2tP-27" target="npPt_wvABXy-iRALb2tP-29">
          <mxGeometry relative="1" as="geometry" />
        </mxCell>
        <mxCell id="npPt_wvABXy-iRALb2tP-27" value="Process Batch" style="whiteSpace=wrap;html=1;fillColor=#dae8fc;strokeColor=#6c8ebf;rounded=0;" vertex="1" parent="1">
          <mxGeometry x="365" y="320" width="120" height="60" as="geometry" />
        </mxCell>
        <mxCell id="npPt_wvABXy-iRALb2tP-31" style="edgeStyle=orthogonalEdgeStyle;rounded=0;orthogonalLoop=1;jettySize=auto;html=1;entryX=1;entryY=0.5;entryDx=0;entryDy=0;" edge="1" parent="1" source="npPt_wvABXy-iRALb2tP-29" target="npPt_wvABXy-iRALb2tP-25">
          <mxGeometry relative="1" as="geometry">
            <mxPoint x="560" y="350" as="targetPoint" />
            <Array as="points">
              <mxPoint x="530" y="450" />
              <mxPoint x="530" y="270" />
            </Array>
          </mxGeometry>
        </mxCell>
        <mxCell id="npPt_wvABXy-iRALb2tP-35" value="yes" style="edgeLabel;html=1;align=center;verticalAlign=middle;resizable=0;points=[];" vertex="1" connectable="0" parent="npPt_wvABXy-iRALb2tP-31">
          <mxGeometry x="-0.7777" y="1" relative="1" as="geometry">
            <mxPoint as="offset" />
          </mxGeometry>
        </mxCell>
        <mxCell id="npPt_wvABXy-iRALb2tP-33" value="" style="edgeStyle=orthogonalEdgeStyle;rounded=0;orthogonalLoop=1;jettySize=auto;html=1;" edge="1" parent="1" source="npPt_wvABXy-iRALb2tP-29" target="npPt_wvABXy-iRALb2tP-32">
          <mxGeometry relative="1" as="geometry" />
        </mxCell>
        <mxCell id="npPt_wvABXy-iRALb2tP-34" value="no" style="edgeLabel;html=1;align=center;verticalAlign=middle;resizable=0;points=[];" vertex="1" connectable="0" parent="npPt_wvABXy-iRALb2tP-33">
          <mxGeometry x="-0.1378" y="1" relative="1" as="geometry">
            <mxPoint as="offset" />
          </mxGeometry>
        </mxCell>
        <mxCell id="npPt_wvABXy-iRALb2tP-29" value="Data Available?" style="rhombus;whiteSpace=wrap;html=1;fillColor=#fff2cc;strokeColor=#d6b656;" vertex="1" parent="1">
          <mxGeometry x="385" y="410" width="80" height="80" as="geometry" />
        </mxCell>
        <mxCell id="npPt_wvABXy-iRALb2tP-32" value="Stop" style="ellipse;whiteSpace=wrap;html=1;fillColor=#f8cecc;strokeColor=#b85450;" vertex="1" parent="1">
          <mxGeometry x="365" y="535" width="120" height="30" as="geometry" />
        </mxCell>
      </root>
    </mxGraphModel>
  </diagram>
</mxfile>
